<?xml version="1.0" encoding="utf-8"?>
<!-- Generator: Adobe Illustrator 23.0.0, SVG Export Plug-In . SVG Version: 6.00 Build 0)  -->
<svg version="1.1" id="Layer_1" xmlns="http://www.w3.org/2000/svg" xmlns:xlink="http://www.w3.org/1999/xlink" x="0px" y="0px"
	 viewBox="0 0 170 170" style="enable-background:new 0 0 170 170;" xml:space="preserve">
<style type="text/css">
	.st0{fill:#FFFFFF;}
	.st1{fill:none;stroke:#008EEA;stroke-width:2;}
	.st2{fill:#398ACA;}
	.st3{fill:#ECF7FD;}
	.st4{fill:#388AC9;}
</style>
<circle class="st0" cx="85" cy="85.3" r="85"/>
<g id="Rectangle-776">
	<path id="Rectangle-776-fill" class="st0" d="M85,3c45.3,0,82,36.7,82,82s-36.7,82-82,82S3,130.3,3,85S39.7,3,85,3z"/>
	<path id="Rectangle-776-stroke" class="st1" d="M85,4c44.8,0,81.1,36.3,81.1,81.1s-36.3,81.1-81.1,81.1S4,129.8,4,85S40.2,4,85,4z"
		/>
</g>
<g>
	<g>
		<polygon class="st0" points="114.1,63.9 57,63.9 66.2,32.2 104.9,32.2 		"/>
	</g>
	<g>
		<path class="st2" d="M114.9,64.5H56.2l9.5-33h39.6L114.9,64.5z M57.8,63.3h55.5l-8.9-30.6H66.6L57.8,63.3z"/>
	</g>
</g>
<g>
	<g>
		<polygon class="st3" points="112.3,63.9 61,63.9 69.2,35.4 104,35.4 		"/>
	</g>
</g>
<g>
	<g>
		<polygon class="st0" points="114,107.4 56.9,107.4 66.1,139.2 104.8,139.2 		"/>
	</g>
	<g>
		<path class="st2" d="M105.2,139.8H65.6l-9.5-33h58.6L105.2,139.8z M66.5,138.6h37.8l8.9-30.6H57.7L66.5,138.6z"/>
	</g>
</g>
<g>
	<g>
		<polygon class="st3" points="61,109.8 112.3,109.8 104,138.3 69.3,138.3 		"/>
	</g>
</g>
<g>
	<g>
		<g>
			<circle class="st3" cx="85.5" cy="86.3" r="42.5"/>
		</g>
		<g>
			<path class="st2" d="M85.5,129.4c-5.8,0-11.5-1.1-16.8-3.4c-5.1-2.2-9.7-5.3-13.7-9.2c-4-4-7.1-8.6-9.2-13.7
				c-2.2-5.3-3.4-11-3.4-16.8c0-5.8,1.1-11.5,3.4-16.8c2.2-5.1,5.3-9.7,9.2-13.7c4-4,8.6-7.1,13.7-9.2c5.3-2.2,11-3.4,16.8-3.4
				s11.5,1.1,16.8,3.4c5.1,2.2,9.7,5.3,13.7,9.2c4,4,7.1,8.6,9.2,13.7c2.2,5.3,3.4,11,3.4,16.8c0,5.8-1.1,11.5-3.4,16.8
				c-2.2,5.1-5.3,9.7-9.2,13.7c-4,4-8.6,7.1-13.7,9.2C97,128.2,91.3,129.4,85.5,129.4z M85.5,44.4c-23.1,0-41.9,18.8-41.9,41.9
				s18.8,41.9,41.9,41.9s41.9-18.8,41.9-41.9S108.6,44.4,85.5,44.4z"/>
		</g>
	</g>
</g>
<g>
	<g>
		<g>
			<circle class="st0" cx="85.5" cy="86.3" r="36.6"/>
		</g>
		<g>
			<path class="st2" d="M85.5,123.5c-5,0-9.9-1-14.5-2.9c-4.4-1.9-8.4-4.6-11.8-8c-3.4-3.4-6.1-7.4-8-11.8
				c-1.9-4.6-2.9-9.5-2.9-14.5s1-9.9,2.9-14.5c1.9-4.4,4.6-8.4,8-11.8c3.4-3.4,7.4-6.1,11.8-8c4.6-1.9,9.5-2.9,14.5-2.9
				c5,0,9.9,1,14.5,2.9c4.4,1.9,8.4,4.6,11.8,8c3.4,3.4,6.1,7.4,8,11.8c1.9,4.6,2.9,9.5,2.9,14.5s-1,9.9-2.9,14.5
				c-1.9,4.4-4.6,8.4-8,11.8c-3.4,3.4-7.4,6.1-11.8,8C95.4,122.5,90.6,123.5,85.5,123.5z M85.5,50.3c-19.8,0-36,16.1-36,36
				s16.1,36,36,36c19.8,0,36-16.1,36-36S105.4,50.3,85.5,50.3z"/>
		</g>
	</g>
</g>
<g>
	<g>
		<circle class="st3" cx="87.8" cy="88.2" r="32.8"/>
	</g>
</g>
<g>
	<g id="adb">
		<g>
			<g>
				<path class="st4" d="M85.5,110.2c-4.2,0-8.2-1.6-11.1-4.6c-2.9-2.9-4.6-6.9-4.6-11.1v-9.2h31.4v9.2c0,4.2-1.6,8.2-4.6,11.1
					C93.7,108.6,89.8,110.2,85.5,110.2z M71,86.5v8c0,8.1,6.4,14.5,14.5,14.5s14.5-6.4,14.5-14.5v-8H71z M101.2,84.3H69.8v-2.8
					c0-4.9,2.2-9.4,5.9-12.2L71.3,65l2.5-2.8l5.1,5.1c2.2-0.9,4.5-1.4,6.5-1.4c2.3,0,4.6,0.6,6.6,1.6l5.1-5.1l2.6,2.6l-4.4,4.4
					c3.7,2.8,5.9,7.3,5.9,12.2V84.3z M71,83.1h29v-1.6c0-4.7-2.2-9.1-6-11.6l-0.6-0.4l4.6-4.6l-0.9-0.9l-4.9,4.9l-0.4-0.2
					c-1.9-1.1-4.2-1.6-6.4-1.6c-2,0-4.3,0.5-6.4,1.5l-0.4,0.2l-4.8-4.8l-0.9,1l4.6,4.6L77,70c-3.7,2.5-6,6.8-6,11.6V83.1z M92,80
					c-1.6,0-2.8-1.1-2.8-2.8s1.1-2.8,2.8-2.8s2.8,1.1,2.8,2.8S93.6,80,92,80z M92,75.7c-1,0-1.6,0.6-1.6,1.6s0.6,1.6,1.6,1.6
					s1.6-0.6,1.6-1.6S93,75.7,92,75.7z M79.1,80c-1.6,0-2.8-1.1-2.8-2.8s1.1-2.8,2.8-2.8s2.8,1.1,2.8,2.8S80.7,80,79.1,80z
					 M79.1,75.7c-1,0-1.6,0.6-1.6,1.6s0.6,1.6,1.6,1.6s1.6-0.6,1.6-1.6S80,75.7,79.1,75.7z"/>
			</g>
		</g>
	</g>
</g>
</svg>
