<?xml version="1.0" encoding="utf-8"?>
<!-- Generator: Adobe Illustrator 23.0.0, SVG Export Plug-In . SVG Version: 6.00 Build 0)  -->
<svg version="1.1" id="Layer_1" xmlns="http://www.w3.org/2000/svg" xmlns:xlink="http://www.w3.org/1999/xlink" x="0px" y="0px"
	 viewBox="0 0 170 170" style="enable-background:new 0 0 170 170;" xml:space="preserve">
<style type="text/css">
	.st0{fill:#FFFFFF;}
	.st1{fill:none;stroke:#008EEA;stroke-width:2;}
	.st2{fill:#398ACA;}
	.st3{fill:#EBF7FD;}
	.st4{fill:#ECF7FD;}
</style>
<circle class="st0" cx="85" cy="85" r="85"/>
<g id="Rectangle-776">
	<path id="Rectangle-776-fill" class="st0" d="M85,3c45.3,0,82,36.7,82,82s-36.7,82-82,82S3,130.3,3,85S39.7,3,85,3z"/>
	<path id="Rectangle-776-stroke" class="st1" d="M85,4c44.8,0,81.1,36.3,81.1,81.1s-36.3,81.1-81.1,81.1S4,129.8,4,85S40.2,4,85,4z"
		/>
</g>
<g>
	<path class="st2" d="M108.9,131.1H51c-4.8,0-9.4-1.9-12.8-5.3c-3.4-3.4-5.3-8-5.3-12.8V55.1c0-4.8,1.9-9.4,5.3-12.8
		c3.4-3.4,8-5.3,12.8-5.3h57.9c4.8,0,9.4,1.9,12.8,5.3c3.4,3.4,5.3,8,5.3,12.8V113c0,4.8-1.9,9.4-5.3,12.8
		C118.3,129.2,113.7,131.1,108.9,131.1z M51,38c-9.4,0-17.1,7.7-17.1,17.1V113c0,9.4,7.7,17.1,17.1,17.1h57.9
		c9.4,0,17.1-7.7,17.1-17.1V55.1c0-9.4-7.7-17.1-17.1-17.1H51z"/>
</g>
<g>
	<rect x="42.5" y="46.5" class="st0" width="74.9" height="74.9"/>
	<path class="st2" d="M117.9,122h-76V46h76V122z M43,121h73.9V47.1H43V121z"/>
</g>
<g>
	<polygon class="st3" points="56.6,118.5 114.4,54.4 114.4,118.5 	"/>
</g>
<g>
	<g>
		<path class="st2" d="M82.2,87.8H51.6V55.7h30.6V87.8z M52.6,86.8h28.5V56.7H52.6V86.8z"/>
	</g>
	<g>
		<path class="st2" d="M108.3,76.2h-24V55.7h24V76.2z M85.3,75.2h21.9V56.7H85.3V75.2z"/>
	</g>
	<g>
		<path class="st2" d="M82.2,112.4H51.6V89.9h30.6V112.4z M52.6,111.3h28.5V91H52.6V111.3z"/>
	</g>
	<g>
		<path class="st2" d="M108.3,112.4h-24V78.3h24V112.4z M85.3,111.3h21.9v-32H85.3V111.3z"/>
	</g>
</g>
<g>
	<rect x="126.5" y="56.2" class="st4" width="11.5" height="9.9"/>
	<path class="st2" d="M138.5,66.6H126v-11h12.6V66.6z M127,65.5h10.5v-8.9H127V65.5z"/>
</g>
<g>
	<rect x="126.5" y="101.9" class="st4" width="11.5" height="9.9"/>
	<path class="st2" d="M138.5,112.3H126v-11h12.6V112.3z M127,111.3h10.5v-8.9H127V111.3z"/>
</g>
<g>
	<rect x="126.5" y="79" class="st4" width="11.5" height="9.9"/>
	<path class="st2" d="M138.5,89.5H126v-11h12.6V89.5z M127,88.4h10.5v-8.9H127V88.4z"/>
</g>
</svg>
