<?xml version="1.0" encoding="utf-8"?>
<!-- Generator: Adobe Illustrator 23.0.0, SVG Export Plug-In . SVG Version: 6.00 Build 0)  -->
<svg version="1.1" id="Layer_1" xmlns="http://www.w3.org/2000/svg" xmlns:xlink="http://www.w3.org/1999/xlink" x="0px" y="0px"
	 viewBox="0 0 170 170" style="enable-background:new 0 0 170 170;" xml:space="preserve">
<style type="text/css">
	.st0{fill:#FFFFFF;}
	.st1{fill:none;stroke:#008EEA;stroke-width:2;}
	.st2{fill:#EEF8FE;}
	.st3{fill:none;stroke:#388CCB;stroke-width:2;stroke-linecap:round;}
	.st4{display:none;}
	.st5{display:inline;fill:#EBF7FD;}
	.st6{fill:#398ACA;}
	.st7{fill:#6FCBDC;}
	.st8{fill:#EBF7FD;}
</style>
<circle class="st0" cx="84.7" cy="85" r="85"/>
<g>
	<g id="Rectangle-776">
		<path id="Rectangle-776-fill" class="st0" d="M85,3c45.3,0,82,36.7,82,82s-36.7,82-82,82S3,130.3,3,85S39.7,3,85,3z"/>
		<path id="Rectangle-776-stroke" class="st1" d="M85,4c44.8,0,81.1,36.3,81.1,81.1s-36.3,81.1-81.1,81.1S4,129.8,4,85S40.2,4,85,4z
			"/>
	</g>
	<path id="ic_android_auto" class="st2" d="M123,58c3-0.3,6-0.7,9-1c0.3,1,0.7,2,1,3c1.2,1.6,1.1,4.9,1,8c-2.1,1.8-4.3,3.7-5,7
		c5.5,6.9,3,38.1,1,47c-0.7,0-1.3,0-2,0c-2.2,1.6-8.2,1.1-12,1c-0.8-1.4-1.8-2.9-3-4c0-3,0-6,0-9c-18.7,0-37.3,0-56,0
		c0.1,3.2,0.3,7.3-1,9c-1.6,5.3-8.2,4.3-15,4c-0.3-0.7-0.7-1.3-1-2c-6.5-7.7,0.2-38.3,1-46c0.4-4.1-4-4.1-5-7c0.3-3.3,0.7-6.7,1-10
		c1.7-0.6,3.1-0.9,6-1c1.2,0.9,1.7,0.8,4,1c0.9-9.8,5.8-15.5,11-21c13,0,26,0,39,0c4.5,0,12.2-1,15,1C118.5,40,122.2,50.6,123,58z
		 M51,72c22.7,0,45.3,0,68,0c-0.3-5.8-7.7-27.4-11-29c-15.3,0-30.7,0-46,0C57.4,50.7,51.9,60.9,51,72z M115,68c-18.3,0-36.7,0-55,0
		c0-0.3,0-0.7,0-1c4.1-5,5.3-15.2,8-21c7.5-0.9,34-3.3,39,1C110.1,50.1,114.3,62.6,115,68z M63,121c14.7,0,29.3,0,44,0
		c0,1.3,0,2.7,0,4c-14.7,0-29.3,0-44,0C63,123.7,63,122.3,63,121z"/>
	<g id="Shape-7">
		<path id="Shape-7-stroke" class="st3" d="M108.9,126.4H88.5 M76.3,126.4c-0.9,0-1.2,0-2.1,0 M68.9,126.4c-4.2,0-7.3,0-7.3,0"/>
	</g>
	<g id="Shape-8">
		<path id="Shape-8-stroke" class="st3" d="M75.1,129.9H94"/>
	</g>
</g>
<g class="st4">
	<path class="st5" d="M105,125H64.1c-1,0-1.9-0.8-1.9-1.9v-0.3c0-1,0.8-1.9,1.9-1.9H105c1,0,1.9,0.8,1.9,1.9v0.3
		C106.9,124.2,106.1,125,105,125z"/>
</g>
<g>
	<g>
		<path class="st0" d="M129.3,57.2c-0.4,0-0.9,0.1-1.3,0.2l-4.9,1.6l-5.1-14.4c-1.4-4.1-5.7-7.4-9.5-7.4H61.3c-3.8,0-8,3.3-9.4,7.4
			L46.8,59L42,57.4c-0.4-0.1-0.9-0.2-1.3-0.2c-2.3,0-4,2.1-4,4.9v3.4c0,3.3,2.3,6,5.1,6h0.6l-0.8,2.3c-1.3,3.8-2.4,10.2-2.4,14.3
			v28.6c0,3.3,2.3,6,5.1,6H51c2.8,0,5.1-2.7,5.1-6v-7.1h57.7v7.1c0,3.3,2.3,6,5.1,6h6.7c2.8,0,5.1-2.7,5.1-6V88.1
			c0-4.1-1.1-10.5-2.4-14.3l-0.8-2.3h0.6c2.8,0,5.1-2.7,5.1-6v-3.4C133.3,59.3,131.6,57.2,129.3,57.2z M50.5,68.2l7.7-21.8
			C59,44,61.5,42,63.8,42h42.4c2.3,0,4.8,2,5.7,4.4l7.7,21.8c0.9,2.4-0.3,4.4-2.5,4.4H53C50.7,72.6,49.6,70.6,50.5,68.2z M67.5,95.7
			c0,1.3-0.9,2.4-2.1,2.4H50.9c-1.1,0-2.1-1.1-2.1-2.4v-8.1c0-1.3,0.9-2.4,2.1-2.4h14.5c1.1,0,2.1,1.1,2.1,2.4V95.7z M120.9,95.7
			c0,1.3-0.9,2.4-2.1,2.4h-14.5c-1.1,0-2.1-1.1-2.1-2.4v-8.1c0-1.3,0.9-2.4,2.1-2.4h14.5c1.1,0,2.1,1.1,2.1,2.4V95.7z"/>
		<path class="st6" d="M125.6,123.3h-6.7c-3.2,0-5.8-3-5.8-6.6v-6.5H56.8v6.5c0,3.7-2.6,6.6-5.8,6.6h-6.7c-3.2,0-5.8-3-5.8-6.6V88.1
			c0-4.2,1.1-10.7,2.5-14.5l0.5-1.5c-3-0.2-5.4-3.1-5.4-6.6v-3.4c0-3.2,1.9-5.5,4.6-5.5c0.5,0,1,0.1,1.5,0.2l4.2,1.4l4.8-13.8
			c0.7-2.1,2.2-4.1,4.1-5.5c1.9-1.5,4-2.3,6-2.3h47.4c2,0,4.1,0.8,6,2.3c1.9,1.5,3.3,3.4,4.1,5.5l4.8,13.8l4.3-1.4
			c0.5-0.2,1-0.2,1.5-0.2c1.3,0,2.5,0.6,3.4,1.6c0.8,1,1.3,2.4,1.3,3.9v3.4c0,3.5-2.4,6.5-5.5,6.6l0.5,1.5
			c1.4,3.8,2.5,10.4,2.5,14.5v28.6C131.4,120.3,128.8,123.3,125.6,123.3z M55.5,108.8h59v7.8c0,2.9,2,5.3,4.5,5.3h6.7
			c2.5,0,4.5-2.4,4.5-5.3V88.1c0-4-1.1-10.3-2.4-14.1l-1.1-3.2h1.5c2.5,0,4.5-2.4,4.5-5.3v-3.4c0-1.2-0.3-2.3-1-3.1
			c-0.6-0.7-1.4-1.1-2.3-1.1c-0.4,0-0.7,0.1-1.1,0.2l-5.5,1.8l-5.3-15c-1.3-3.8-5.3-7-8.8-7H61.3c-3.5,0-7.5,3.1-8.8,7l-5.3,15
			l-5.4-1.7c-0.4-0.1-0.7-0.2-1.1-0.2c-1.9,0-3.3,1.8-3.3,4.2v3.4c0,2.9,2,5.3,4.5,5.3h1.5L42.2,74c-1.3,3.7-2.4,10-2.4,14.1v28.6
			c0,2.9,2,5.3,4.5,5.3H51c2.5,0,4.5-2.4,4.5-5.3V108.8z M118.8,98.8h-14.5c-1.5,0-2.7-1.4-2.7-3.1v-8.1c0-1.7,1.2-3.1,2.7-3.1h14.5
			c1.5,0,2.7,1.4,2.7,3.1v8.1C121.6,97.4,120.3,98.8,118.8,98.8z M104.3,85.8c-0.8,0-1.4,0.8-1.4,1.7v8.1c0,0.9,0.6,1.7,1.4,1.7
			h14.5c0.8,0,1.4-0.8,1.4-1.7v-8.1c0-0.9-0.6-1.7-1.4-1.7H104.3z M65.5,98.8H50.9c-1.5,0-2.7-1.4-2.7-3.1v-8.1
			c0-1.7,1.2-3.1,2.7-3.1h14.5c1.5,0,2.7,1.4,2.7,3.1v8.1C68.2,97.4,67,98.8,65.5,98.8z M50.9,85.8c-0.8,0-1.4,0.8-1.4,1.7v8.1
			c0,0.9,0.6,1.7,1.4,1.7h14.5c0.8,0,1.4-0.8,1.4-1.7v-8.1c0-0.9-0.6-1.7-1.4-1.7H50.9z M116.9,73.3H53c-1.2,0-2.2-0.5-2.8-1.4
			c-0.7-1-0.8-2.5-0.3-3.9l0,0l7.7-21.8c0.9-2.7,3.8-4.9,6.3-4.9h42.4c2.5,0,5.3,2.2,6.3,4.9l7.7,21.8c0.5,1.5,0.4,2.9-0.3,3.9
			C119.2,72.8,118.1,73.3,116.9,73.3z M51.1,68.4c-0.4,1.1-0.3,2.1,0.2,2.7c0.4,0.5,1,0.8,1.8,0.8h63.9c0.8,0,1.4-0.3,1.8-0.8
			c0.5-0.7,0.5-1.7,0.2-2.7l-7.7-21.8c-0.8-2.2-3.1-4-5-4H63.8c-2,0-4.3,1.8-5,4L51.1,68.4L51.1,68.4z"/>
	</g>
	<g>
		<rect x="47" y="99" transform="matrix(0.2124 -0.9772 0.9772 0.2124 -67.6919 131.3596)" class="st6" width="1.3" height="17.4"/>
	</g>
	<g>
		<path class="st7" d="M130.6,105.8l-17,3.7L130.6,105.8z"/>
		
			<rect x="113.5" y="107" transform="matrix(0.9772 -0.2124 0.2124 0.9772 -20.0867 28.4058)" class="st6" width="17.4" height="1.3"/>
	</g>
	<g>
		<path class="st8" d="M125.4,72.7l2.2,8.3c0.1,0.5,0.2,1,0.2,1.5v20.2l-14.5,5H56.6l-13-2.9v-19c0-0.5,0-0.9,0.1-1.4l2.6-11.8
			l3.8,3.2h70.7L125.4,72.7z"/>
	</g>
	<g>
		<path class="st8" d="M108.6,48.7l6.9,19.3H60.1l6.2-19.2c0.7-2.2,2.5-3.7,4.6-3.7h33.2C106.1,45.2,107.8,46.5,108.6,48.7z"/>
	</g>
	<g>
		<path class="st0" d="M60.6,97.2h-4.9c-3,0-5.5-2.5-5.5-5.5v-0.9c0-3,2.5-5.5,5.5-5.5h4.9c3,0,5.5,2.5,5.5,5.5v0.9
			C66.1,94.8,63.6,97.2,60.6,97.2z"/>
		<path class="st6" d="M61.7,97.9h-7.1c-2.8,0-5.1-2.3-5.1-5.1v-3c0-2.8,2.3-5.1,5.1-5.1h7.1c2.8,0,5.1,2.3,5.1,5.1v3
			C66.7,95.6,64.5,97.9,61.7,97.9z M54.6,86.1c-2.1,0-3.7,1.7-3.7,3.7v3c0,2.1,1.7,3.7,3.7,3.7h7.1c2.1,0,3.7-1.7,3.7-3.7v-3
			c0-2.1-1.7-3.7-3.7-3.7H54.6z"/>
	</g>
	<g>
		<path class="st8" d="M51,122h-6.7c-2.5,0-4.5-2.4-4.5-5.3v-10l15.8,3.4v6.5C55.6,119.6,53.5,122,51,122z"/>
	</g>
	<g>
		<path class="st8" d="M118.9,122h6.7c2.5,0,4.5-2.4,4.5-5.3v-10l-15.8,3.4v6.5C114.3,119.6,116.4,122,118.9,122z"/>
	</g>
	<g>
		<path class="st0" d="M114.1,97.2h-4.9c-3,0-5.5-2.5-5.5-5.5v-0.9c0-3,2.5-5.5,5.5-5.5h4.9c3,0,5.5,2.5,5.5,5.5v0.9
			C119.5,94.8,117.1,97.2,114.1,97.2z"/>
		<path class="st6" d="M115.1,97.9H108c-2.8,0-5.1-2.3-5.1-5.1v-3c0-2.8,2.3-5.1,5.1-5.1h7.1c2.8,0,5.1,2.3,5.1,5.1v3
			C120.2,95.6,117.9,97.9,115.1,97.9z M108,86.1c-2.1,0-3.7,1.7-3.7,3.7v3c0,2.1,1.7,3.7,3.7,3.7h7.1c2.1,0,3.7-1.7,3.7-3.7v-3
			c0-2.1-1.7-3.7-3.7-3.7H108z"/>
	</g>
</g>
</svg>
