<?xml version="1.0" encoding="utf-8"?>
<!-- Generator: Adobe Illustrator 23.0.0, SVG Export Plug-In . SVG Version: 6.00 Build 0)  -->
<svg version="1.1" id="Layer_1" xmlns="http://www.w3.org/2000/svg" xmlns:xlink="http://www.w3.org/1999/xlink" x="0px" y="0px"
	 viewBox="0 0 170 170" style="enable-background:new 0 0 170 170;" xml:space="preserve">
<style type="text/css">
	.st0{fill:#FFFFFF;}
	.st1{fill:none;stroke:#008EEA;stroke-width:2;}
	.st2{fill:#398ACA;}
	.st3{fill:#EBF7FD;}
</style>
<circle class="st0" cx="85" cy="84.8" r="85"/>
<g id="Rectangle-776">
	<path id="Rectangle-776-fill" class="st0" d="M85,3c45.3,0,82,36.7,82,82s-36.7,82-82,82S3,130.3,3,85S39.7,3,85,3z"/>
	<path id="Rectangle-776-stroke" class="st1" d="M85,4c44.8,0,81.1,36.3,81.1,81.1s-36.3,81.1-81.1,81.1S4,129.8,4,85S40.2,4,85,4z"
		/>
</g>
<g>
	<circle class="st2" cx="96.1" cy="39.4" r="0.4"/>
</g>
<g>
	<circle class="st2" cx="100.9" cy="39.5" r="0.6"/>
</g>
<g>
	<path class="st0" d="M113.1,133.5H80.2c-10,0-18.2-8.1-18.2-18.2v-61c0-10,8.1-18.2,18.2-18.2h32.9c10,0,18.2,8.1,18.2,18.2v61
		C131.2,125.4,123.1,133.5,113.1,133.5z"/>
	<path class="st2" d="M126.3,134.1H67c-3,0-5.5-2.5-5.5-5.5V41.1c0-3,2.5-5.5,5.5-5.5h59.3c3,0,5.5,2.5,5.5,5.5v87.4
		C131.8,131.6,129.3,134.1,126.3,134.1z M67,36.7c-2.4,0-4.4,2-4.4,4.4v87.4c0,2.4,2,4.4,4.4,4.4h59.3c2.4,0,4.4-2,4.4-4.4V41.1
		c0-2.4-2-4.4-4.4-4.4H67z"/>
</g>
<g>
	<path class="st2" d="M128.1,124.5H65.2V42.2h62.9V124.5z M66.3,123.4H127V43.3H66.3V123.4z"/>
</g>
<g>
	<path class="st2" d="M101.3,130.4h-9.4c-0.8,0-1.5-0.7-1.5-1.5c0-0.8,0.7-1.5,1.5-1.5h9.4c0.8,0,1.5,0.7,1.5,1.5
		C102.9,129.7,102.2,130.4,101.3,130.4z M91.9,128c-0.5,0-0.9,0.4-0.9,0.9c0,0.5,0.4,0.9,0.9,0.9h9.4c0.5,0,0.9-0.4,0.9-0.9
		c0-0.5-0.4-0.9-0.9-0.9H91.9z"/>
</g>
<g>
	<polygon class="st3" points="67,123.2 126.9,43.6 126.9,123.2 	"/>
</g>
<g>
	<g>
		<path class="st0" d="M65,133.5H45.1c-6.1,0-11-4.9-11-11V69.9c0-6.1,4.9-11,11-11H65c6.1,0,11,4.9,11,11v52.7
			C75.9,128.6,71,133.5,65,133.5z"/>
		<path class="st2" d="M71,134.1H39.1c-3,0-5.5-2.5-5.5-5.5V63.8c0-3,2.5-5.5,5.5-5.5H71c3,0,5.5,2.5,5.5,5.5v64.7
			C76.5,131.6,74,134.1,71,134.1z M39.1,59.4c-2.4,0-4.4,2-4.4,4.4v64.7c0,2.4,2,4.4,4.4,4.4H71c2.4,0,4.4-2,4.4-4.4V63.8
			c0-2.4-2-4.4-4.4-4.4H39.1z"/>
	</g>
	<g>
		<path class="st0" d="M65,133.5H45.1c-6.1,0-11-4.9-11-11V69.8c0-6.1,4.9-11,11-11H65c6.1,0,11,4.9,11,11v52.7
			C76,128.6,71.1,133.5,65,133.5z"/>
		<path class="st2" d="M71,134.1H39.1c-3,0-5.5-2.5-5.5-5.5V63.8c0-3,2.5-5.5,5.5-5.5H71c3,0,5.5,2.5,5.5,5.5v64.7
			C76.5,131.6,74.1,134.1,71,134.1z M39.1,59.4c-2.4,0-4.4,2-4.4,4.4v64.7c0,2.4,2,4.4,4.4,4.4H71c2.4,0,4.4-2,4.4-4.4V63.8
			c0-2.4-2-4.4-4.4-4.4H39.1z"/>
	</g>
	<g>
		<rect x="37.3" y="63.9" class="st0" width="35.6" height="62.3"/>
		<path class="st2" d="M73.4,126.8H36.7V63.4h36.7V126.8z M37.8,125.7h34.5V64.5H37.8V125.7z"/>
	</g>
	<g>
		<path class="st0" d="M58.2,130.9H52c-0.3,0-0.5-0.2-0.5-0.5v-0.9c0-0.3,0.2-0.5,0.5-0.5h6.2c0.3,0,0.5,0.2,0.5,0.5v0.9
			C58.6,130.7,58.4,130.9,58.2,130.9z"/>
		<path class="st2" d="M57.7,131.2h-5.3c-0.7,0-1.3-0.6-1.3-1.3s0.6-1.3,1.3-1.3h5.3c0.7,0,1.3,0.6,1.3,1.3S58.4,131.2,57.7,131.2z
			 M52.4,129.4c-0.3,0-0.6,0.3-0.6,0.6s0.3,0.6,0.6,0.6h5.3c0.3,0,0.6-0.3,0.6-0.6s-0.3-0.6-0.6-0.6H52.4z"/>
	</g>
	<g>
		<path class="st2" d="M59.2,61.7H51c-0.1,0-0.1-0.1-0.1-0.1v-0.2c0-0.1,0.1-0.1,0.1-0.1h8.2c0.1,0,0.1,0.1,0.1,0.1v0.2
			C59.3,61.7,59.2,61.7,59.2,61.7z"/>
	</g>
	<g>
		<polygon class="st3" points="38.7,125.6 72.2,64.6 72.2,125.6 		"/>
	</g>
</g>
</svg>
