<?xml version="1.0" encoding="utf-8"?>
<!-- Generator: Adobe Illustrator 23.0.0, SVG Export Plug-In . SVG Version: 6.00 Build 0)  -->
<svg version="1.1" id="Layer_1" xmlns="http://www.w3.org/2000/svg" xmlns:xlink="http://www.w3.org/1999/xlink" x="0px" y="0px"
	 viewBox="0 0 170 170" style="enable-background:new 0 0 170 170;" xml:space="preserve">
<style type="text/css">
	.st0{fill:#FFFFFF;}
	.st1{fill:none;stroke:#008EEA;stroke-width:2;}
	.st2{fill:#398ACA;}
	.st3{fill:#EBF7FD;}
	.st4{fill:#388AC9;}
</style>
<circle class="st0" cx="85" cy="85" r="85"/>
<g id="ic_voice_assistant">
	<g id="Rectangle-776">
		<path id="Rectangle-776-fill" class="st0" d="M85,3.5c45.3,0,82,36.7,82,82s-36.7,82-82,82s-82-36.7-82-82S39.7,3.5,85,3.5z"/>
		<path id="Rectangle-776-stroke" class="st1" d="M85,4.5c44.8,0,81.1,36.3,81.1,81.1s-36.3,81.1-81.1,81.1S4,130.3,4,85.5
			S40.2,4.5,85,4.5z"/>
	</g>
</g>
<g>
	<g>
		<path class="st0" d="M91.3,139.9H78.6c-14.9,0-26.9-12.1-26.9-26.9V58.1c0-14.9,12.1-26.9,26.9-26.9h12.7
			c14.9,0,26.9,12.1,26.9,26.9v54.8C118.2,127.8,106.2,139.9,91.3,139.9z"/>
		<path class="st2" d="M112.8,140.5H57.2c-3.4,0-6.1-2.7-6.1-6.1V36.7c0-3.4,2.7-6.1,6.1-6.1h55.6c3.4,0,6.1,2.7,6.1,6.1v97.7
			C118.9,137.8,116.1,140.5,112.8,140.5z M57.2,31.8c-2.7,0-4.9,2.2-4.9,4.9v97.7c0,2.7,2.2,4.9,4.9,4.9h55.6c2.7,0,4.9-2.2,4.9-4.9
			V36.7c0-2.7-2.2-4.9-4.9-4.9H57.2z"/>
	</g>
	<g>
		<path class="st0" d="M91.4,139.8H78.7c-14.9,0-26.9-12.1-26.9-26.9V58.1c0-14.9,12.1-26.9,26.9-26.9h12.7
			c14.9,0,26.9,12.1,26.9,26.9v54.8C118.3,127.8,106.2,139.8,91.4,139.8z"/>
		<path class="st2" d="M112.8,140.4H57.2c-3.4,0-6.1-2.7-6.1-6.1V36.6c0-3.4,2.7-6.1,6.1-6.1h55.6c3.4,0,6.1,2.7,6.1,6.1v97.7
			C118.9,137.7,116.2,140.4,112.8,140.4z M57.2,31.7c-2.7,0-4.9,2.2-4.9,4.9v97.7c0,2.7,2.2,4.9,4.9,4.9h55.6c2.7,0,4.9-2.2,4.9-4.9
			V36.6c0-2.7-2.2-4.9-4.9-4.9H57.2z"/>
	</g>
	<g>
		<rect x="56.7" y="38.5" class="st0" width="56.7" height="90.7"/>
		<path class="st2" d="M114,129.8H56.1V37.9H114V129.8z M57.3,128.6h55.4V39.1H57.3V128.6z"/>
	</g>
	<g>
		<path class="st0" d="M89.6,136h-9.2c-0.6,0-1.1-0.5-1.1-1.1v-0.5c0-0.6,0.5-1.1,1.1-1.1h9.2c0.6,0,1.1,0.5,1.1,1.1v0.5
			C90.7,135.5,90.2,136,89.6,136z"/>
		<path class="st2" d="M89.7,136.4h-9.3c-0.8,0-1.4-0.6-1.4-1.4v-0.6c0-0.8,0.6-1.4,1.4-1.4h9.3c0.8,0,1.4,0.6,1.4,1.4v0.6
			C91.1,135.7,90.5,136.4,89.7,136.4z M80.4,133.7c-0.4,0-0.7,0.3-0.7,0.7v0.6c0,0.4,0.3,0.7,0.7,0.7h9.3c0.4,0,0.7-0.3,0.7-0.7
			v-0.6c0-0.4-0.3-0.7-0.7-0.7H80.4z"/>
	</g>
	<g>
		<path class="st2" d="M91.5,35.3H78.6c-0.1,0-0.3-0.1-0.3-0.3v-0.1c0-0.1,0.1-0.3,0.3-0.3h12.9c0.1,0,0.3,0.1,0.3,0.3v0.1
			C91.7,35.2,91.6,35.3,91.5,35.3z"/>
	</g>
	<g>
		<polygon class="st3" points="58.3,128.3 111.6,39.5 111.6,128.3 		"/>
	</g>
	<g>
		<path class="st2" d="M85,92.8c-9.4,0-17.1-7.7-17.1-17.1c0-9.4,7.7-17.1,17.1-17.1c9.4,0,17.1,7.7,17.1,17.1
			C102.1,85.1,94.5,92.8,85,92.8z M85,59.3c-9,0-16.4,7.3-16.4,16.4S76,92.1,85,92.1s16.4-7.3,16.4-16.4S94.1,59.3,85,59.3z"/>
	</g>
	<g>
		<g id="mic">
			<g>
				<path class="st4" d="M86.8,88.2h-3.6v-4c-4.1-0.9-7.1-4.4-7.1-8.4v-0.6h3.2v0.6c0,3.4,2.9,5.4,5.7,5.4c2.8,0,5.7-2,5.7-5.4v-0.6
					h3.2v0.6c0,4-3,7.6-7.1,8.4V88.2z M84.5,86.9h1.1v-3.8l0.5-0.1c3.5-0.5,6.2-3.4,6.5-6.7h-0.8c-0.1,1.6-0.9,3.1-2.1,4.2
					c-1.3,1.2-3,1.8-4.8,1.8s-3.5-0.7-4.8-1.8c-1.2-1.1-1.9-2.6-2.1-4.2h-0.8c0.3,3.3,3,6.2,6.5,6.7l0.5,0.1V86.9z M85,79.9
					c-2.3,0-4.2-1.8-4.2-4.2v-7.1c0-2.3,1.8-4.2,4.2-4.2s4.2,1.8,4.2,4.2v7.1C89.2,78.1,87.4,79.9,85,79.9z M85,65.7
					c-1.7,0-2.9,1.3-2.9,2.9v7.1c0,1.7,1.3,2.9,2.9,2.9c1.7,0,2.9-1.3,2.9-2.9v-7.1C88,67,86.7,65.7,85,65.7z"/>
			</g>
		</g>
	</g>
</g>
</svg>
