<svg xmlns="http://www.w3.org/2000/svg" width="394" height="100" viewBox="0 0 394 100"><path d="M253.186 19.662c-1.277 1.753-3.728 2.135-5.475.855-11.3-8.28-24.58-12.594-38.62-12.594s-27.55 4.314-38.85 12.594c-.696.51-1.505.757-2.31.757-1.205 0-2.4-.56-3.164-1.612-1.277-1.753-.895-4.212.852-5.492C178.268 4.9 193.378 0 209.088 0c15.714 0 30.594 4.9 43.245 14.17 1.748 1.28 2.13 3.74.853 5.492zm-61.748 34.436v39.345c0 3.617-2.802 6.557-6.41 6.557h-37.005c-3.606 0-6.55-2.94-6.55-6.557v-56.83c0-3.62 2.91-6.558 6.518-6.558h4.348c3.607 0 6.517 2.94 6.517 6.557v10.93h26.07c3.605 0 6.516 2.94 6.516 6.556zm-17.38 6.558c0-1.2-.974-2.186-2.17-2.186l-10.804.027c-1.197 0-2.232.958-2.232 2.16v26.228c0 1.2 1.035 2.18 2.232 2.18h10.884c1.198 0 2.09-.98 2.09-2.18v-26.23zM126.256 100H89.25c-3.607 0-6.43-2.94-6.43-6.557V54.098c0-3.617 2.91-6.557 6.518-6.557h36.93c3.606 0 6.518 2.99 6.518 6.61v39.3c0 3.62-2.924 6.55-6.53 6.55zm-10.85-39.344c0-1.2-.974-2.186-2.172-2.186h-10.86c-1.2 0-2.174.985-2.174 2.186v26.23c0 1.2.913 2.18 2.11 2.18h10.884c1.198 0 2.212-.98 2.212-2.18v-26.23zM67.482 100H63.13c-3.607 0-6.647-2.94-6.647-6.557V58.47h-1.628c-1.196 1.34-2.954 2.186-4.888 2.186 0 0-3.758-.006-4.888 0 .16.55.54 1.563.54 2.186v30.6c0 3.618-2.91 6.558-6.518 6.558H34.76c-3.607 0-6.518-2.94-6.518-6.557v-30.6c0-.772.3-1.5.544-2.187-1.074.006-4.888 0-4.888 0-1.934 0-3.692-.846-4.888-2.186h-1.63v34.973c0 3.617-2.91 6.557-6.516 6.557H6.517C2.91 100 0 97.067 0 93.45V54.148c0-3.617 2.91-6.607 6.517-6.607H28.24c3.607 0 6.517 2.94 6.517 6.56 0 .77-.028 1.5-.27 2.187 1.883-.008 3.534-.007 5.158 0-.243-.686-.27-1.416-.27-2.186 0-3.617 2.638-6.557 6.244-6.557h21.99c3.607 0 6.246 2.94 6.246 6.558v39.346c0 3.617-2.773 6.557-6.38 6.557zm119.34-61.475c-.74 0-1.523-.488-1.93-1.175-.614-1.036-.275-2.376.76-2.992 7.033-4.194 15.212-6.49 23.438-6.49 8.225 0 16.178 2.296 23.21 6.49 1.035.616 1.375 1.956.76 2.992-.614 1.037-1.95 1.378-2.983.76-6.36-3.79-13.544-5.87-20.987-5.87-7.443 0-14.854 2.08-21.215 5.872-.348.208-.673.413-1.052.413zm20.096 9.016h4.344c3.607 0 6.517 2.94 6.517 6.56v39.346c0 3.617-2.91 6.557-6.52 6.557h-4.344c-3.607 0-6.518-2.94-6.518-6.556v-39.35c0-3.616 2.91-6.556 6.517-6.556zm2.172-27.32c-10.744 0-21.22 3.048-30.08 9.06-1.394.946-3.288.58-4.23-.82-.945-1.397-.58-3.297.815-4.243 9.873-6.7 21.53-10.28 33.495-10.28 11.966 0 23.395 3.58 33.268 10.28 1.394.946 1.76 2.846.816 4.245-.59.873-1.55 1.344-2.527 1.344-.587 0-1.18-.17-1.705-.525-8.86-6.013-19.11-9.06-29.852-9.06z" fill="#0091EA"/><path d="M393.492 55.365l-8.93 19.21c-.054.148-.114.295-.18.44l-4.663 10.028c-.01-.004-.016-.01-.02-.013l-5.496 11.817c-.92 1.98-2.876 3.146-4.92 3.152h-2.04c-2.45-.01-4.792-1.41-5.896-3.787l-16.8-37.452c-1.288-3.01-.11-7.175 3.16-8.704l3.944-1.847c3.574-1.64 7.154-.11 8.678 3.17l11.296 25.18 8.35-17.97.004-.005 3.643-7.837c1.27-2.73 4.38-4.035 7.232-2.64 2.723 1.273 3.902 4.52 2.63 7.253zM319.48 89.083c1.195-1.34 3.08-2.198 5.014-2.198h4.344c3.607 0 6.517 2.94 6.517 6.558 0 3.617-3.05 6.557-6.656 6.557h-37.01c-3.607 0-6.574-2.94-6.574-6.557V54.098c0-3.617 2.91-6.557 6.516-6.557h37.2c3.608 0 6.518 2.94 6.518 6.56V71.59c0 3.617-2.91 6.557-6.516 6.557h-26.34v10.93l16.98.01zm-14.81-21.87h11.134c1.197 0 2.173-.985 2.173-2.186v-4.37c0-1.202-.976-2.187-2.173-2.187H304.67c-1.196 0-2.17.985-2.17 2.186v4.37c0 1.202.974 2.187 2.17 2.187zM269.926 100H232.92c-3.607 0-6.453-2.94-6.453-6.557V54.098c0-3.617 2.91-6.557 6.517-6.557h26.068V36.616c0-3.618 2.91-6.557 6.517-6.557h4.34c3.607 0 6.517 2.94 6.517 6.557v56.83c0 3.618-2.9 6.558-6.506 6.558zm-10.873-39.344c0-1.2-.975-2.186-2.173-2.186h-10.862c-1.198 0-2.173.985-2.173 2.186v26.23c0 1.2.975 2.185 2.173 2.185h10.86c1.2 0 2.174-.98 2.174-2.182v-26.23z" fill="#00C853"/></svg>