<svg xmlns="http://www.w3.org/2000/svg" viewBox="0 0 112.196 112.196"><circle cx="56.098" cy="56.097" r="56.098" fill="#007AB9"/><path d="M89.616 60.61v23.13h-13.41V62.16c0-5.417-1.935-9.117-6.79-9.117-3.705 0-5.906 2.49-6.878 4.903-.353.862-.444 2.06-.444 3.268v22.524h-13.41s.18-36.546 0-40.33h13.41v5.716c-.026.045-.064.09-.088.132h.09v-.132c1.78-2.742 4.96-6.662 12.084-6.662 8.822 0 15.436 5.764 15.436 18.15zm-54.96-36.64c-4.587 0-7.588 3.01-7.588 6.966 0 3.872 2.914 6.97 7.412 6.97h.087c4.677 0 7.585-3.098 7.585-6.97-.09-3.956-2.908-6.967-7.496-6.967zm-6.79 59.77H41.27V43.41H27.865v40.33z" fill="#F1F2F2"/></svg>