<svg xmlns="http://www.w3.org/2000/svg" viewBox="0 0 112.197 112.197"><circle cx="56.099" cy="56.098" r="56.098" fill="#55ACEE"/><path d="M90.46 40.316c-2.403 1.066-4.99 1.787-7.7 2.11 2.768-1.66 4.893-4.285 5.896-7.418-2.59 1.537-5.462 2.652-8.515 3.253-2.442-2.6-5.93-4.23-9.79-4.23-7.4 0-13.405 6.006-13.405 13.41 0 1.05.12 2.074.35 3.056-11.145-.56-21.026-5.897-27.64-14.012-1.154 1.98-1.816 4.286-1.816 6.743 0 4.65 2.37 8.757 5.964 11.16-2.196-.068-4.265-.67-6.072-1.678v.17c0 6.496 4.624 11.915 10.757 13.146-1.125.308-2.31.47-3.533.47-.866 0-1.705-.082-2.523-.238 1.706 5.326 6.657 9.203 12.526 9.312-4.59 3.596-10.37 5.74-16.655 5.74-1.08 0-2.15-.064-3.196-.19 5.93 3.807 12.98 6.026 20.552 6.026 24.664 0 38.152-20.432 38.152-38.153 0-.58-.014-1.16-.04-1.734 2.622-1.89 4.895-4.25 6.692-6.94z" fill="#F1F2F2"/></svg>