<svg height="64" viewBox="0 0 64 64" width="64" xmlns="http://www.w3.org/2000/svg"><path d="m49.487332 15.034127c-6.859099.032528-12.074233 4.570181-14.026321 11.800559-3.274531-5.039065-5.829468-10.805377-7.295448-15.672198l-7.220809.03445.08994 19.13811a6.8610899 6.8610899 0 0 1 -13.7220251.065072l-.089947-19.138108-7.22272306.034452.0899485 19.138111c.038276 7.942317 6.38447356 14.234927 14.14880566 14.19665 7.764331-.03828 14.055028-6.386386 14.018666-14.328703l-.01525-3.249651c1.45641 2.880285 3.276444 5.940469 5.276377 8.640857l-4.415162 21.143784 7.400706-.03445 3.180756-15.362163c2.895596 1.793242 6.150988 2.859235 9.940334 2.842011 7.94423-.03828 14.414826-6.566286 14.374635-14.872227-.03636-7.946144-6.568201-14.412911-14.512431-14.37655zm.103338 21.846154c-2.887941.01343-5.781624-1.236322-8.137525-3.213289l.708119-2.889856v-.181812c.528212-3.073579 2.126244-8.315509 7.542328-8.340387a7.243775 7.243775 0 0 1 7.257172 7.188274c-.162674 4.15297-3.576912 7.419845-7.370085 7.43707z" fill="#6fda44" stroke-width="1.913811"/></svg>