<svg xmlns="http://www.w3.org/2000/svg" width="670" height="168" viewBox="0 0 670 168"><path d="M669.137 93.013l-15.187 32.274c-.092.248-.192.495-.307.74l-7.927 16.845-.03-.022-9.344 19.853c-1.566 3.328-4.89 5.285-8.367 5.295V168h-3.466v-.002c-4.17-.016-8.155-2.365-10.03-6.354l-28.57-62.92c-2.19-5.06-.19-12.056 5.37-14.625l6.71-3.1c6.08-2.76 12.164-.19 14.756 5.32l19.207 42.3 14.206-30.187.004-.008 6.195-13.166c2.16-4.59 7.45-6.777 12.3-4.436 4.63 2.14 6.634 7.597 4.474 12.187zm-125.86 56.646c2.033-2.25 5.238-3.696 8.527-3.696h7.388c6.133 0 11.082 4.94 11.082 11.017 0 6.078-5.185 11.017-11.32 11.017h-62.927c-6.134 0-11.18-4.94-11.18-11.017v-66.1c0-6.075 4.95-11.014 11.084-11.014h63.265c6.133 0 11.082 4.938 11.082 11.015v29.38c0 6.077-4.95 11.016-11.082 11.016h-44.79v18.36l28.875.02zm-25.182-36.745h18.932c2.036 0 3.694-1.655 3.694-3.672V101.9c0-2.017-1.654-3.672-3.69-3.672H518.1c-2.036 0-3.694 1.654-3.694 3.672v7.344c0 2.017 1.66 3.672 3.695 3.672zM459.01 168h-62.93c-6.132 0-10.972-4.94-10.972-11.016v-66.1c0-6.076 4.95-11.015 11.082-11.015h44.33V61.504c0-6.077 4.95-11.016 11.082-11.016h7.388c6.133 0 11.082 4.94 11.082 11.016v95.476c0 6.077-4.93 11.016-11.062 11.016zm-18.49-66.098c0-2.018-1.66-3.673-3.695-3.673h-18.47c-2.036 0-3.694 1.65-3.694 3.67v44.064c0 2.018 1.66 3.672 3.698 3.672h18.47c2.036 0 3.694-1.655 3.694-3.673V101.9zM421.233 34.47c-19.217-13.912-41.8-21.16-65.678-21.16-23.877 0-46.848 7.248-66.065 21.16-1.184.857-2.56 1.27-3.924 1.27-2.054 0-4.08-.938-5.386-2.708-2.17-2.945-1.52-7.076 1.45-9.226C303.144 8.232 328.834 0 355.556 0c26.72 0 52.024 8.232 73.54 23.806 2.97 2.15 3.62 6.28 1.45 9.226-2.172 2.944-6.34 3.588-9.312 1.437zM325.54 90.884v66.1c0 6.076-4.763 11.015-10.896 11.015h-62.93c-6.132 0-11.137-4.94-11.137-11.02V61.51c0-6.077 4.95-11.016 11.082-11.016h7.385c6.133 0 11.082 4.94 11.082 11.016v18.36h44.33c6.13 0 11.08 4.94 11.08 11.017zM295.988 101.9c0-2.017-1.658-3.672-3.694-3.672l-18.37.045c-2.035 0-3.794 1.61-3.794 3.627v44.065c0 2.018 1.76 3.662 3.795 3.662h18.51c2.035 0 3.553-1.645 3.553-3.663V101.9zm-81.29 66.1h-62.93c-6.132 0-10.93-4.94-10.93-11.016v-66.1c0-6.076 4.948-11.015 11.08-11.015h62.8c6.134 0 11.085 5.02 11.085 11.1v66.023c0 6.077-4.972 11.004-11.105 11.004zm-18.45-66.098c0-2.018-1.658-3.673-3.694-3.673h-18.47c-2.036 0-3.694 1.65-3.694 3.67v44.064c0 2.018 1.554 3.662 3.59 3.662h18.508c2.036 0 3.76-1.645 3.76-3.663V101.9zM114.752 168h-7.403c-6.137 0-11.307-4.94-11.307-11.016V98.23h-2.77c-2.034 2.25-5.023 3.672-8.312 3.672 0 0-6.39-.01-8.31 0 .276.923.924 2.625.924 3.672v51.41c0 6.077-4.95 11.016-11.083 11.016h-7.387c-6.133 0-11.082-4.94-11.082-11.016v-51.41c0-1.294.51-2.52.925-3.672-1.826.01-8.312 0-8.312 0-3.29 0-6.278-1.42-8.312-3.673h-2.77v58.75c0 6.078-4.95 11.017-11.082 11.017h-7.39C4.95 168 0 163.072 0 156.995V90.97c0-6.078 4.95-11.1 11.082-11.1h36.94c6.134 0 11.083 4.938 11.083 11.015 0 1.294-.048 2.52-.46 3.672 3.202-.013 6.01-.012 8.772 0-.413-1.152-.462-2.38-.462-3.672 0-6.077 4.488-11.016 10.62-11.016h37.403c6.134 0 10.62 4.935 10.62 11.012v66.1c0 6.076-4.712 11.015-10.846 11.015zM355.556 33.967c-18.27 0-36.083 5.12-51.15 15.22-2.37 1.588-5.594.972-7.197-1.377-1.608-2.35-.986-5.542 1.384-7.13 16.79-11.255 36.61-17.27 56.96-17.27 20.346 0 39.782 6.015 56.57 17.27 2.37 1.59 2.993 4.78 1.39 7.13-1.003 1.468-2.635 2.26-4.298 2.26-1 0-2.01-.287-2.9-.884-15.067-10.1-32.495-15.22-50.764-15.22zM317.69 64.72c-1.262 0-2.592-.818-3.283-1.97-1.045-1.743-.467-3.994 1.29-5.03 11.96-7.044 25.87-10.9 39.86-10.9 13.986 0 27.51 3.856 39.47 10.9 1.757 1.036 2.335 3.287 1.29 5.028-1.044 1.74-3.316 2.314-5.073 1.28-10.817-6.372-23.032-9.864-35.688-9.864-12.658 0-25.26 3.492-36.076 9.864-.593.35-1.146.693-1.79.693zm34.17 15.15h7.39c6.133 0 11.082 4.938 11.082 11.015v66.1c0 6.076-4.95 11.015-11.082 11.015h-7.39c-6.132 0-11.08-4.94-11.08-11.016v-66.1c0-6.076 4.948-11.015 11.08-11.015z" fill="#FFF"/></svg>