<svg xmlns="http://www.w3.org/2000/svg" width="206" height="22" viewBox="0 0 206 22"><path d="M204.338 18.445c-.383 1.035-.78 1.998-1.195 2.89h-1.465c.21-.814.443-1.818.697-3.013.254-1.195.432-2.152.533-2.87h2.133l.18.268c-.203.782-.496 1.69-.88 2.725zm-10.64-8.455c.39.22 1.14.535 2.25.95 1.523.554 2.552 1.112 3.087 1.675.535.562.803 1.27.803 2.12 0 1.196-.445 2.118-1.336 2.767-.89.648-2.14.972-3.75.972-1.703 0-3.03-.27-3.984-.808V15.86c.617.314 1.28.56 1.986.74.707.18 1.39.27 2.045.27 1.01 0 1.793-.163 2.34-.488.546-.324.82-.818.82-1.482 0-.5-.217-.928-.65-1.283-.434-.356-1.28-.775-2.538-1.26-1.195-.445-2.045-.834-2.548-1.166-.504-.33-.88-.705-1.125-1.13-.247-.42-.37-.923-.37-1.51 0-1.045.426-1.872 1.28-2.48.85-.602 2.02-.905 3.502-.905 1.383 0 2.734.28 4.054.843l-.69 1.583c-1.29-.532-2.458-.797-3.505-.797-.92 0-1.616.145-2.085.434-.47.29-.703.688-.703 1.196 0 .343.088.636.264.878.175.244.46.474.85.693zm-11.51 8.484c-1.147 0-2.166-.27-3.057-.808-.89-.54-1.574-1.313-2.06-2.32-.483-1.008-.725-2.188-.725-3.54 0-2.093.523-3.724 1.57-4.892 1.047-1.168 2.5-1.752 4.36-1.752 1.796 0 3.224.597 4.283 1.793 1.058 1.195 1.588 2.812 1.588 4.85 0 2.095-.528 3.73-1.582 4.906-1.054 1.18-2.51 1.767-4.37 1.767zm2.95-10.388c-.662-.848-1.636-1.272-2.925-1.272-1.274 0-2.235.418-2.883 1.254-.648.836-.973 2.082-.973 3.738 0 1.64.33 2.89.985 3.75.656.86 1.62 1.29 2.894 1.29s2.24-.428 2.9-1.284c.66-.855.99-2.107.99-3.756 0-1.632-.33-2.873-.99-3.72zm-.687-5.01c-.285 0-.533-.096-.74-.287-.207-.196-.31-.487-.31-.877 0-.406.103-.7.31-.88.207-.18.455-.27.744-.27.29 0 .542.09.757.27.215.18.32.474.32.88 0 .39-.106.68-.32.873-.216.19-.468.286-.757.286zm-4.46 0c-.29 0-.538-.096-.745-.287-.207-.196-.31-.487-.31-.877 0-.406.103-.7.31-.88.207-.18.455-.27.744-.27.296 0 .552.09.767.27.215.18.322.474.322.88 0 .39-.108.68-.323.873-.215.19-.47.286-.768.286zm-8.883 6.808c0-1.023-.22-1.79-.657-2.302-.438-.512-1.118-.768-2.04-.768-1.21 0-2.105.348-2.683 1.043-.58.695-.868 1.766-.868 3.21v7.173h-1.947V9.884c0-1.023-.22-1.79-.656-2.302-.438-.512-1.12-.768-2.05-.768-1.22 0-2.112.365-2.68 1.096-.565.73-.848 1.928-.848 3.592v6.738h-1.948V5.396h1.582l.317 1.758h.096c.367-.625.884-1.113 1.552-1.465.666-.355 1.414-.53 2.243-.53 2.008 0 3.32.725 3.938 2.18h.094c.382-.67.937-1.205 1.664-1.595.726-.39 1.554-.586 2.484-.586 1.454 0 2.542.373 3.265 1.12.722.745 1.084 1.94 1.084 3.58v8.38h-1.945V9.882zM148.662.004h1.945V18.24h-1.945V.005zm-9.363 18.47c-1.15 0-2.17-.27-3.06-.808-.89-.54-1.58-1.313-2.065-2.32-.485-1.008-.727-2.188-.727-3.54 0-2.093.524-3.724 1.57-4.892 1.047-1.168 2.5-1.752 4.36-1.752 1.797 0 3.224.597 4.283 1.793 1.06 1.195 1.59 2.812 1.59 4.85 0 2.095-.527 3.73-1.58 4.906-1.057 1.18-2.514 1.767-4.37 1.767zm2.943-10.388c-.66-.848-1.635-1.272-2.924-1.272-1.273 0-2.234.418-2.883 1.254-.65.836-.973 2.082-.973 3.738 0 1.64.328 2.89.984 3.75.655.86 1.62 1.29 2.894 1.29 1.273 0 2.24-.428 2.9-1.284.66-.855.99-2.107.99-3.756 0-1.632-.33-2.873-.99-3.72zm-14.02 1.845c0-1.043-.24-1.824-.716-2.34-.478-.515-1.224-.773-2.24-.773-1.35 0-2.337.367-2.96 1.102-.62.733-.93 1.936-.93 3.61v6.713h-1.945V.006h1.945v5.52c0 .664-.03 1.215-.093 1.652h.117c.384-.617.93-1.103 1.636-1.46.705-.354 1.512-.532 2.42-.532 1.57 0 2.746.373 3.53 1.12.786.745 1.18 1.93 1.18 3.556v8.38h-1.946V9.93zm-13.396 8.547c-2.485 0-3.727-1.308-3.727-3.926V6.91h-1.84v-.94l1.84-.808.82-2.742h1.126v2.976h3.725v1.512h-3.724v7.558c0 .774.182 1.368.55 1.782.367.414.87.62 1.51.62.345 0 .677-.024.997-.075.32-.05.575-.104.762-.16v1.49c-.212.1-.522.185-.932.252-.41.066-.78.1-1.108.1zM106.884 6.93c-1.04 0-1.928.423-2.666 1.267-.74.844-1.11 1.894-1.11 3.152v6.89h-1.945V5.393h1.606l.22 2.38h.095c.476-.837 1.05-1.48 1.723-1.935.67-.45 1.41-.678 2.214-.678.57 0 1.082.047 1.536.14l-.27 1.805c-.53-.117-1-.176-1.404-.176zM95.33 16.413h-.094c-.64.804-1.28 1.35-1.916 1.635-.637.285-1.43.427-2.384.427-1.274 0-2.272-.328-2.995-.984-.72-.653-1.08-1.59-1.08-2.8 0-2.592 2.075-3.95 6.223-4.08l2.18-.07v-.793c0-1.008-.216-1.752-.65-2.233-.433-.48-1.127-.72-2.08-.72-1.07 0-2.28.33-3.632.985l-.597-1.49c.632-.345 1.325-.614 2.08-.81.753-.195 1.51-.293 2.267-.293 1.53 0 2.665.34 3.403 1.02.74.68 1.11 1.77 1.11 3.27v8.765h-1.44l-.39-1.827zm-.117-4.49l-1.945.083c-1.547.055-2.663.295-3.346.72-.684.427-1.025 1.09-1.025 1.988 0 .703.212 1.238.638 1.605.426.364 1.022.55 1.787.55 1.21 0 2.162-.33 2.854-.998.69-.664 1.037-1.594 1.037-2.79v-1.16zm-10.78 1.443c0 1.53-.52 2.726-1.554 3.586-1.04.86-2.487 1.29-4.346 1.29H72.56V1.107h4.84c2.274 0 3.918.34 4.934 1.02 1.016.68 1.523 1.754 1.523 3.222 0 1.012-.283 1.85-.85 2.51-.566.66-1.392 1.09-2.478 1.283v.117c2.6.447 3.9 1.814 3.9 4.103zM80.868 7.78c.616-.44.925-1.185.925-2.232 0-.96-.344-1.654-1.03-2.08-.69-.425-1.783-.638-3.283-.638h-2.93v5.613h3.282c1.406 0 2.418-.22 3.035-.662zm-2.907 2.35h-3.41v6.41h3.577c1.383 0 2.424-.267 3.123-.802.7-.535 1.05-1.373 1.05-2.514 0-1.062-.36-1.843-1.074-2.344-.715-.5-1.803-.75-3.264-.75zm-17.87-.2c0-1.046-.24-1.827-.713-2.342-.477-.516-1.223-.774-2.238-.774-1.354 0-2.34.367-2.96 1.102-.62.734-.933 1.937-.933 3.61v6.714H51.3V.005h1.945v5.52c0 .664-.03 1.215-.094 1.652h.12c.38-.617.928-1.103 1.635-1.46.707-.354 1.514-.532 2.42-.532 1.57 0 2.748.373 3.533 1.12.785.745 1.177 1.93 1.177 3.556v8.38H60.09V9.93zM46.44 7.055c-.508-.113-.958-.17-1.348-.17-2.61 0-3.914 1.664-3.914 4.993 0 1.578.318 2.79.955 3.632.637.843 1.58 1.265 2.83 1.265 1.07 0 2.17-.23 3.294-.69v1.72c-.86.447-1.942.67-3.246.67-1.86 0-3.3-.573-4.32-1.718-1.016-1.144-1.526-2.763-1.526-4.857 0-2.148.518-3.81 1.553-4.98 1.035-1.172 2.51-1.758 4.424-1.758.617 0 1.234.066 1.85.2.618.132 1.103.288 1.454.468l-.597 1.652c-.43-.172-.9-.314-1.407-.428zm-11.65-3.84c-.327 0-.6-.106-.82-.32-.218-.216-.327-.54-.327-.98 0-.445.11-.77.328-.98.22-.205.496-.31.82-.31.316 0 .586.107.81.318.23.21.34.535.34.973 0 .437-.11.763-.34.978-.224.215-.494.322-.81.322zM29.73 6.93c-1.04 0-1.93.423-2.667 1.267-.74.844-1.108 1.894-1.108 3.152v6.89H24.01V5.393h1.605l.223 2.38h.094c.476-.837 1.05-1.48 1.722-1.935.672-.45 1.41-.678 2.215-.678.57 0 1.08.047 1.53.14l-.27 1.805c-.53-.117-1-.176-1.404-.176zM17.94.006h1.945V18.24H17.94V.005zM7.063 18.476c-2.062 0-3.658-.564-4.787-1.69-1.13-1.124-1.693-2.67-1.693-4.64V1.106h1.992v11.18c0 1.43.39 2.528 1.172 3.294.78.764 1.93 1.147 3.445 1.147 1.446 0 2.56-.385 3.34-1.154.78-.77 1.172-1.873 1.172-3.31V1.106h1.992v11.086c0 1.953-.59 3.488-1.77 4.605-1.18 1.118-2.8 1.676-4.863 1.676zm28.688-.236H33.81V5.396h1.945V18.24z" fill="#FFF"/></svg>