<svg xmlns="http://www.w3.org/2000/svg" id="scheme" viewBox="0 0 660 484">
  <defs>
    <style>
      .cls-9{fill:#085c95}.cls-8{isolation:isolate}.cls-2,.cls-3{fill:none;stroke-width:3px;stroke:#0091ea}.cls-3{stroke-linecap:round;stroke-linejoin:round}.cls-7{fill:#fff}
    </style>
  </defs>
  <path fill="#085c95" style="isolation:isolate" d="M350 0C216.4 0 108 108.4 108 242s108.3 242 242 242 242-108.4 242-242S483.7 0 350 0zm0 418.5A176.5 176.5 0 1 1 526.5 242 176.47 176.47 0 0 1 350 418.5z" opacity=".8"/>
  <g id="arrows">
    <path d="M447.1 65.9a204.32 204.32 0 0 1 32.3 22m56.5 74.7a202.43 202.43 0 0 1 12.4 37.9M459.7 50A213.25 213.25 0 0 1 493 73.2m62.8 85.1a226.62 226.62 0 0 1 12.3 39.3M257.5 436.9a213.45 213.45 0 0 1-116.6-151.2m418.3-.3a213.12 213.12 0 0 1-120.3 153.2" class="cls-2"/>
    <path d="M484.9 74.5l8.4-1-.5-8.4M454.9 63.2l-7.9 2.5 2.1 7.7M561.3 192.4l7 4.7 4.9-6.5M441.4 430.7l-2.2 8.1 7.8 2.6M147.3 289l-6.5-5.4-5.5 6M543.4 165.1l-7.9-2.3-2.4 7.4" class="cls-3"/>
    <path fill="none" stroke="#fff" stroke-dasharray="0 9" stroke-linecap="round" stroke-width="3" d="M363.7 77.5c45 21.7 83.3 92.4 80.6 169.5s-45.9 147.9-92.5 169.5"/>
    <path fill="none" stroke="#fff" stroke-linecap="round" stroke-linejoin="round" stroke-width="3" d="M371.8 75.5l-8 1.9 1.6 7.6"/>
  </g>
  <path fill="none" stroke="#fff" stroke-width="3" d="M350 66a176 176 0 1 1-176 176"/>
  <circle cx="351" cy="67" r="8" class="cls-7"/>
  <circle cx="351" cy="416" r="8" class="cls-7"/>
  <circle cx="474" cy="119" r="8" class="cls-7"/>
  <circle cx="524" cy="240" r="8" class="cls-7"/>
  <circle cx="174" cy="240" r="8" class="cls-7"/>
  <g class="cls-8">
    <path d="M23 234.66v-12.85h3.49v12.85zM41.46 234.66h-4.55l-4.69-9h-.08c.11 1.42.16 2.51.16 3.26v5.79h-3.07v-12.9h4.53l4.68 8.93h.05q-.12-1.94-.12-3.12v-5.81h3.09zM49.91 234.66h-3.47v-10H43.3v-2.84H53v2.84h-3.09zM62.5 234.66h-7.63v-12.85h7.63v2.79h-4.15v2h3.84v2.79h-3.84v2.42h4.15zM69.91 227.14h5.55v6.92a15.15 15.15 0 0 1-5 .78 6 6 0 0 1-4.59-1.73 6.87 6.87 0 0 1-1.62-4.91 6.46 6.46 0 0 1 1.77-4.84 6.83 6.83 0 0 1 5-1.73 10.52 10.52 0 0 1 2.29.23 9 9 0 0 1 1.87.58l-1.09 2.72a6.79 6.79 0 0 0-3-.69 2.92 2.92 0 0 0-2.36 1 5.3 5.3 0 0 0-.07 5.58 2.59 2.59 0 0 0 2.16.94 6.4 6.4 0 0 0 1.43-.15v-2h-2.3zM81.55 230v4.67h-3.47v-12.86h4.21q5.24 0 5.23 3.8a3.78 3.78 0 0 1-2.17 3.45l3.74 5.6h-3.94L82.43 230zm0-2.61h.65c1.21 0 1.82-.54 1.82-1.61 0-.89-.6-1.33-1.79-1.33h-.68z" class="cls-7"/>
    <path d="M98.14 234.66l-.63-2.41h-4.18l-.65 2.41h-3.81l4.19-12.9h4.63l4.25 12.9zm-1.35-5.25l-.56-2.11-.47-1.82c-.18-.75-.3-1.28-.36-1.6-.05.3-.16.79-.31 1.47s-.5 2-1 4.06zM109 234.66h-3.48v-10h-3.13v-2.84h9.74v2.84H109zM114 234.66v-12.85h3.49v12.85zM132.25 228.22a6.94 6.94 0 0 1-1.59 4.93 7.21 7.21 0 0 1-9.29 0 8.3 8.3 0 0 1 0-9.84 7.27 7.27 0 0 1 9.31 0 6.91 6.91 0 0 1 1.57 4.91zm-8.84 0c0 2.48.86 3.73 2.59 3.73a2.25 2.25 0 0 0 2-.91 6.53 6.53 0 0 0 0-5.66 2.18 2.18 0 0 0-1.93-.92q-2.66 0-2.66 3.76zM146.81 234.66h-4.56l-4.69-9h-.08c.11 1.42.17 2.51.17 3.26v5.79h-3.08v-12.9h4.54l4.67 8.93h.06c-.09-1.29-.13-2.33-.13-3.12v-5.81h3.1z" class="cls-7"/>
  </g>
  <g class="cls-8">
    <path d="M15 256.26l-.87-.9a6.75 6.75 0 0 1-1.3.69 5.18 5.18 0 0 1-1.13.29 10.16 10.16 0 0 1-1.44.1 5.93 5.93 0 0 1-2.45-.44 3.67 3.67 0 0 1-1.63-1.33 3.38 3.38 0 0 1-.57-1.94A3.82 3.82 0 0 1 8 249.17a5.34 5.34 0 0 1-.85-1.31 3.88 3.88 0 0 1-.3-1.56 2.65 2.65 0 0 1 1.09-2.23 4.8 4.8 0 0 1 3-.83 4.52 4.52 0 0 1 2.89.83 2.68 2.68 0 0 1 1 2.23 3.2 3.2 0 0 1-.56 1.81 5.6 5.6 0 0 1-1.76 1.56l1.75 1.66a6.46 6.46 0 0 0 .91-2.28h3.57a12.05 12.05 0 0 1-.83 2.43 9.69 9.69 0 0 1-1.28 2.08l2.81 2.7zm-5.86-3.81a1.12 1.12 0 0 0 .4.9 1.47 1.47 0 0 0 1 .35 2.59 2.59 0 0 0 .88-.13 1.82 1.82 0 0 0 .58-.3l-2.18-2.21a1.66 1.66 0 0 0-.67 1.39zm2.6-6.15a.76.76 0 0 0-.25-.62 1.1 1.1 0 0 0-1.28 0 .87.87 0 0 0-.28.71 1.93 1.93 0 0 0 .78 1.36 2.18 2.18 0 0 0 .76-.67 1.4 1.4 0 0 0 .28-.78zM36.33 249.56a6.64 6.64 0 0 1-1.77 5 6.8 6.8 0 0 1-5 1.74h-4.14v-12.89h4.45a6.76 6.76 0 0 1 4.78 1.59 6 6 0 0 1 1.68 4.56zm-3.6.13a4.12 4.12 0 0 0-.7-2.62 2.6 2.6 0 0 0-2.13-.86h-1v7.2h.78a2.82 2.82 0 0 0 2.32-.91 4.47 4.47 0 0 0 .73-2.81zM46.26 256.26h-7.63v-12.85h7.63v2.79H42.1v2H46v2.8h-3.9v2.43h4.16zM57.84 247.5a4.35 4.35 0 0 1-1.27 3.33A5.14 5.14 0 0 1 53 252h-1v4.26h-3.49v-12.85H53a5.46 5.46 0 0 1 3.65 1.06 3.79 3.79 0 0 1 1.19 3.03zM52 249.17h.63a1.75 1.75 0 0 0 1.25-.44 1.58 1.58 0 0 0 .46-1.21c0-.87-.48-1.31-1.44-1.31H52zM59.88 256.26v-12.85h3.47v10.05h4.95v2.8zM82.38 249.82a6.94 6.94 0 0 1-1.59 4.93 6.11 6.11 0 0 1-4.66 1.69 6.09 6.09 0 0 1-4.63-1.7 8.34 8.34 0 0 1 0-9.84 6.11 6.11 0 0 1 4.66-1.69 6.07 6.07 0 0 1 4.65 1.68 6.91 6.91 0 0 1 1.57 4.93zm-8.84 0c0 2.48.87 3.73 2.59 3.73a2.24 2.24 0 0 0 2-.91 6.53 6.53 0 0 0 0-5.66 2.18 2.18 0 0 0-1.93-.92q-2.66 0-2.66 3.76zM89.29 248.17l2.22-4.76h3.76L91 251.24v5h-3.5v-4.91l-4.23-7.94h3.78zM102.26 256.26L99.63 247h-.08c.12 1.57.18 2.8.18 3.67v5.58h-3.07v-12.84h4.62l2.68 9.12h.04l2.63-9.12h4.63v12.85h-3.16v-5.63-1c0-.38 0-1.23.12-2.63h-.08l-2.59 9.24zM121.69 256.26h-7.63v-12.85h7.63v2.79h-4.16v2h3.85v2.8h-3.85v2.43h4.16zM136.17 256.26h-4.55l-4.69-9h-.08c.11 1.42.16 2.51.16 3.26v5.79h-3.07v-12.9h4.53l4.68 8.93q-.12-1.93-.12-3.12v-5.81h3.09zM144.62 256.26h-3.47v-10H138v-2.84h9.74v2.84h-3.13z" class="cls-7"/>
  </g>
  <g class="cls-8">
    <path d="M299.78 441.66h-7.63v-12.85h7.63v2.79h-4.15v2h3.85v2.79h-3.85v2.42h4.15zM309.25 428.81h3.88l-4.21 12.85h-4.08l-4.2-12.85h3.91l1.75 6.52a19.12 19.12 0 0 1 .59 3c0-.41.13-.92.25-1.54s.23-1.1.32-1.45zM322.41 441.66l-.64-2.41h-4.17l-.65 2.41h-3.82l4.2-12.9H322l4.24 12.9zm-1.36-5.25l-.55-2.11c-.13-.47-.29-1.08-.47-1.82s-.31-1.28-.37-1.6c-.05.3-.15.79-.31 1.47s-.5 2-1 4.06zM327.59 441.66v-12.85h3.47v10.05H336v2.8zM349 428.81v7.74a5.14 5.14 0 0 1-1.43 3.9 6.75 6.75 0 0 1-8.15 0 5.07 5.07 0 0 1-1.41-3.86v-7.82h3.49v7.54a3.09 3.09 0 0 0 .51 2 2.19 2.19 0 0 0 3 0 3.29 3.29 0 0 0 .48-2v-7.53zM359.58 441.66l-.64-2.41h-4.17l-.65 2.41h-3.82l4.2-12.9h4.63l4.24 12.9zm-1.36-5.25l-.55-2.11c-.13-.47-.29-1.08-.47-1.82s-.31-1.28-.37-1.6c-.05.3-.15.79-.31 1.47s-.5 2-1 4.06zM370.43 441.66H367v-10h-3.14v-2.84h9.74v2.84h-3.13zM375.4 441.66v-12.85h3.48v12.85zM393.69 435.22a6.88 6.88 0 0 1-1.6 4.93 7.21 7.21 0 0 1-9.29 0 8.34 8.34 0 0 1 0-9.84 7.27 7.27 0 0 1 9.31 0 6.91 6.91 0 0 1 1.58 4.91zm-8.85 0c0 2.48.87 3.73 2.6 3.73a2.22 2.22 0 0 0 1.95-.91 4.9 4.9 0 0 0 .64-2.82 5 5 0 0 0-.65-2.84 2.18 2.18 0 0 0-1.93-.92q-2.61 0-2.61 3.76zM408.24 441.66h-4.55l-4.7-9.05h-.07c.11 1.42.16 2.51.16 3.26v5.79H396v-12.85h4.53l4.68 8.93q-.12-1.94-.12-3.12v-5.81h3.09z" class="cls-7"/>
  </g>
  <g class="cls-8">
    <path d="M285.41 463.26l-.87-.89a7.2 7.2 0 0 1-1.3.68 5.18 5.18 0 0 1-1.13.29 8.87 8.87 0 0 1-1.44.1 6 6 0 0 1-2.46-.48 3.72 3.72 0 0 1-1.63-1.32 3.43 3.43 0 0 1-.57-1.95 3.82 3.82 0 0 1 2.39-3.52 5 5 0 0 1-.84-1.31 3.71 3.71 0 0 1-.31-1.56 2.65 2.65 0 0 1 1.09-2.23 4.82 4.82 0 0 1 3-.82 4.52 4.52 0 0 1 2.89.82 2.69 2.69 0 0 1 1 2.23 3.12 3.12 0 0 1-.56 1.81 5.6 5.6 0 0 1-1.76 1.56l1.75 1.66a6.38 6.38 0 0 0 .91-2.28h3.57a11.27 11.27 0 0 1-.83 2.43 9.69 9.69 0 0 1-1.28 2.08l2.82 2.7zm-5.86-3.81a1.15 1.15 0 0 0 .4.9 1.48 1.48 0 0 0 1.05.35 2.67 2.67 0 0 0 .88-.13 2.07 2.07 0 0 0 .58-.3l-2.18-2.21a1.65 1.65 0 0 0-.73 1.39zm2.6-6.15a.76.76 0 0 0-.25-.62 1.07 1.07 0 0 0-.63-.18 1.05 1.05 0 0 0-.65.21.88.88 0 0 0-.27.71 1.91 1.91 0 0 0 .77 1.36 2.18 2.18 0 0 0 .76-.67 1.4 1.4 0 0 0 .27-.81zM303.71 463.26l-.64-2.41h-4.17l-.65 2.41h-3.82l4.2-12.9h4.63l4.24 12.9zm-1.36-5.26l-.55-2.11c-.13-.47-.29-1.08-.47-1.82s-.31-1.28-.37-1.6c0 .3-.15.79-.31 1.47s-.5 2-1 4.06zM319.8 456.56a6.64 6.64 0 0 1-1.77 5 6.8 6.8 0 0 1-5 1.74h-4.16v-12.89h4.45a6.76 6.76 0 0 1 4.78 1.58 6 6 0 0 1 1.7 4.57zm-3.6.13a4.12 4.12 0 0 0-.7-2.62 2.59 2.59 0 0 0-2.12-.85h-1v7.19h.78a2.81 2.81 0 0 0 2.32-.91 4.47 4.47 0 0 0 .72-2.81zM321.09 467.3a8.71 8.71 0 0 1-1.8-.19v-2.7l.6.12a3 3 0 0 0 .68.07 1.41 1.41 0 0 0 1.23-.52 3.17 3.17 0 0 0 .37-1.78v-11.89h3.49V462a6 6 0 0 1-1.14 4 4.26 4.26 0 0 1-3.43 1.3zM339.36 450.41v7.74a5.18 5.18 0 0 1-1.42 3.9 5.68 5.68 0 0 1-4.12 1.39 5.62 5.62 0 0 1-4-1.35 5.07 5.07 0 0 1-1.41-3.86v-7.82h3.49V458a3.09 3.09 0 0 0 .51 2 2.19 2.19 0 0 0 3 0 3.29 3.29 0 0 0 .48-2v-7.53zM350.46 459.36a3.81 3.81 0 0 1-.6 2.12 4 4 0 0 1-1.75 1.44 6.38 6.38 0 0 1-2.68.52 10.79 10.79 0 0 1-2.15-.18 8.06 8.06 0 0 1-1.82-.63v-3.09a10.63 10.63 0 0 0 2.07.79 7.76 7.76 0 0 0 2 .29 1.9 1.9 0 0 0 1.13-.27.83.83 0 0 0 .36-.69.72.72 0 0 0-.14-.46 1.49 1.49 0 0 0-.47-.4 17.5 17.5 0 0 0-1.71-.83 8 8 0 0 1-1.88-1.11 3.24 3.24 0 0 1-.93-1.23 3.93 3.93 0 0 1-.31-1.64 3.3 3.3 0 0 1 1.29-2.77 5.75 5.75 0 0 1 3.56-1 10 10 0 0 1 4.06.92l-1.06 2.68a7.73 7.73 0 0 0-3.11-.83 1.58 1.58 0 0 0-1 .24.72.72 0 0 0-.31.59.86.86 0 0 0 .39.68 15.25 15.25 0 0 0 2.12 1.09 5.89 5.89 0 0 1 2.31 1.6 3.48 3.48 0 0 1 .63 2.17zM358.12 463.26h-3.47v-10h-3.14v-2.84h9.74v2.84h-3.13zM368.68 463.26l-2.62-9.26H366c.12 1.57.18 2.8.18 3.67v5.58h-3.07v-12.84h4.62l2.68 9.13h.07l2.63-9.13h4.63v12.85h-3.19v-5.63-1c0-.38 0-1.23.12-2.63h-.08l-2.59 9.26zM388.12 463.26h-7.63v-12.85h7.63v2.79H384v2h3.85v2.8H384v2.42h4.16zM402.6 463.26h-4.55l-4.69-9.05h-.08c.11 1.42.16 2.51.16 3.26v5.79h-3.07v-12.85h4.53l4.68 8.93h.05q-.12-1.93-.12-3.12v-5.81h3.09zM411.05 463.26h-3.47v-10h-3.14v-2.84h9.74v2.84h-3.13zM424.42 459.36a3.82 3.82 0 0 1-.61 2.12 3.93 3.93 0 0 1-1.75 1.44 6.34 6.34 0 0 1-2.68.52 10.79 10.79 0 0 1-2.15-.18 7.82 7.82 0 0 1-1.81-.63v-3.09a10.3 10.3 0 0 0 2.06.79 7.76 7.76 0 0 0 2 .29 1.88 1.88 0 0 0 1.13-.27.83.83 0 0 0 .36-.69.72.72 0 0 0-.14-.46 1.49 1.49 0 0 0-.47-.4 17.5 17.5 0 0 0-1.71-.83 8.22 8.22 0 0 1-1.88-1.11 3.24 3.24 0 0 1-.93-1.23 4.1 4.1 0 0 1-.31-1.64 3.28 3.28 0 0 1 1.3-2.77 5.69 5.69 0 0 1 3.55-1 10.07 10.07 0 0 1 4.07.92l-1.07 2.68a7.73 7.73 0 0 0-3.11-.83 1.58 1.58 0 0 0-1 .24.72.72 0 0 0-.31.59.86.86 0 0 0 .39.68 15.25 15.25 0 0 0 2.12 1.09 5.89 5.89 0 0 1 2.31 1.6 3.49 3.49 0 0 1 .64 2.17z" class="cls-7"/>
  </g>
  <g class="cls-8">
    <path d="M553.18 234.66l-2.62-9.25h-.08c.12 1.57.18 2.8.18 3.67v5.58h-3.07v-12.85h4.62l2.68 9.12h.11l2.63-9.12h4.63v12.85H559V229v-1c0-.38.05-1.23.12-2.63h-.08l-2.59 9.24zM577 228.22a6.94 6.94 0 0 1-1.59 4.93 7.21 7.21 0 0 1-9.29 0 8.3 8.3 0 0 1 0-9.84 7.27 7.27 0 0 1 9.31 0 7 7 0 0 1 1.57 4.91zm-8.84 0c0 2.48.86 3.73 2.59 3.73a2.25 2.25 0 0 0 2-.91 6.53 6.53 0 0 0 0-5.66 2.18 2.18 0 0 0-1.93-.92q-2.65 0-2.65 3.76zM590.24 228a6.64 6.64 0 0 1-1.77 5 6.8 6.8 0 0 1-5 1.74h-4.16v-12.93h4.45a6.76 6.76 0 0 1 4.78 1.58 6 6 0 0 1 1.7 4.61zm-3.6.13a4.12 4.12 0 0 0-.7-2.62 2.6 2.6 0 0 0-2.13-.85h-1v7.19h.78a2.81 2.81 0 0 0 2.32-.91 4.47 4.47 0 0 0 .73-2.85zM600.17 234.66h-7.63v-12.85h7.63v2.79H596v2h3.85v2.79H596v2.42h4.16zM602.42 234.66v-12.85h3.47v10.05h5v2.8zM612.9 234.66v-12.85h3.49v12.85zM631.4 234.66h-4.55l-4.7-9h-.08c.11 1.42.17 2.51.17 3.26v5.79h-3.08v-12.9h4.54l4.68 8.93c-.08-1.29-.13-2.33-.13-3.12v-5.81h3.1zM639.33 227.14h5.55v6.92a15.09 15.09 0 0 1-5 .78 6 6 0 0 1-4.6-1.73 6.87 6.87 0 0 1-1.62-4.91 6.42 6.42 0 0 1 1.78-4.84 6.79 6.79 0 0 1 5-1.73 10.52 10.52 0 0 1 2.29.23 9.28 9.28 0 0 1 1.88.58l-1.1 2.72a6.76 6.76 0 0 0-3-.69 2.9 2.9 0 0 0-2.35 1 4.25 4.25 0 0 0-.83 2.83 4.35 4.35 0 0 0 .67 2.7 2.6 2.6 0 0 0 2.17.94 6.31 6.31 0 0 0 1.42-.15v-2h-2.3z" class="cls-7"/>
  </g>
  <g class="cls-8">
    <path d="M556.23 256.26l-.87-.9a6.75 6.75 0 0 1-1.3.69 5.28 5.28 0 0 1-1.14.29 9.91 9.91 0 0 1-1.43.1A5.93 5.93 0 0 1 549 256a3.62 3.62 0 0 1-1.63-1.33 3.38 3.38 0 0 1-.57-1.94 3.82 3.82 0 0 1 2.39-3.52 5.06 5.06 0 0 1-.85-1.31 3.88 3.88 0 0 1-.3-1.56 2.67 2.67 0 0 1 1.08-2.23 4.85 4.85 0 0 1 3-.83 4.52 4.52 0 0 1 2.89.83 2.71 2.71 0 0 1 1 2.23 3.2 3.2 0 0 1-.56 1.81 5.6 5.6 0 0 1-1.76 1.56l1.75 1.66a6.46 6.46 0 0 0 .91-2.28H560a12.05 12.05 0 0 1-.83 2.43 10.1 10.1 0 0 1-1.28 2.08l2.81 2.7zm-5.86-3.81a1.12 1.12 0 0 0 .4.9 1.47 1.47 0 0 0 1 .35 2.59 2.59 0 0 0 .88-.13 1.94 1.94 0 0 0 .58-.3l-2.18-2.21a1.66 1.66 0 0 0-.68 1.39zm2.63-6.15a.73.73 0 0 0-.25-.62 1 1 0 0 0-.62-.19 1 1 0 0 0-.65.22.84.84 0 0 0-.28.71 1.93 1.93 0 0 0 .78 1.36 2.18 2.18 0 0 0 .76-.67 1.39 1.39 0 0 0 .26-.81zM572.31 256.26h-3.47v-10h-3.14v-2.84h9.74v2.84h-3.13zM580.75 251.59v4.67h-3.47v-12.85h4.21q5.24 0 5.23 3.8a3.77 3.77 0 0 1-2.18 3.45l3.75 5.6h-3.94l-2.72-4.67zm0-2.62h.65c1.21 0 1.82-.53 1.82-1.6 0-.89-.6-1.33-1.79-1.33h-.68z" class="cls-7"/>
    <path d="M597.34 256.26l-.63-2.41h-4.18l-.65 2.41h-3.81l4.19-12.9h4.63l4.25 12.9zM596 251l-.56-2.1c-.13-.47-.28-1.08-.47-1.82s-.3-1.28-.36-1.6c-.05.3-.16.79-.31 1.47s-.5 2-1 4.05zM602.53 256.26v-12.85H606v12.85zM621 256.26h-4.56l-4.69-9h-.08c.11 1.42.17 2.51.17 3.26v5.79h-3.08v-12.9h4.54l4.67 8.93h.06c-.09-1.29-.13-2.33-.13-3.12v-5.81h3.1zM623.8 256.26v-12.85h3.49v12.85zM642.31 256.26h-4.56l-4.69-9H633c.11 1.42.17 2.51.17 3.26v5.79h-3.08v-12.9h4.54l4.67 8.93h.05q-.12-1.93-.12-3.12v-5.81h3.1zM650.24 248.74h5.55v6.92a15.15 15.15 0 0 1-5 .78 6 6 0 0 1-4.59-1.73 6.87 6.87 0 0 1-1.62-4.91 6.46 6.46 0 0 1 1.77-4.84 6.83 6.83 0 0 1 5-1.73 10.52 10.52 0 0 1 2.29.23 9 9 0 0 1 1.87.58l-1.09 2.72a6.79 6.79 0 0 0-3-.69 2.92 2.92 0 0 0-2.36 1 5.3 5.3 0 0 0-.07 5.58 2.59 2.59 0 0 0 2.16.94 6.4 6.4 0 0 0 1.43-.15v-2h-2.3z" class="cls-7"/>
  </g>
  <g id="data">
    <path d="M350 263c-20.4 0-41-5.8-41-16.9v-50c0-11.1 20.6-16.9 41-16.9s41 5.8 41 16.9v50.1c0 11-20.6 16.8-41 16.8zm34.9-57.7c-7.6 5-21.3 7.6-34.9 7.6s-27.3-2.6-34.9-7.6v15.9c.4 4.4 13.9 10.5 34.9 10.5 21.3 0 34.9-6.4 34.9-10.7zM350 256.8c21.3 0 34.9-6.4 34.9-10.7v-15.7c-7.6 5-21.3 7.6-34.9 7.6s-27.3-2.6-34.9-7.6v15.8c.2 4.3 13.8 10.6 34.9 10.6zm0-71.6c-21.1 0-34.7 6.3-34.9 10.6v.3c.4 4.4 13.9 10.5 34.9 10.5 21.3 0 34.9-6.4 34.9-10.7s-13.6-10.7-34.9-10.7z" class="cls-9"/>
    <g class="cls-8">
      <path d="M334.17 288.24q0 5-2.76 7.72t-7.75 2.7h-6.46v-20h6.92q4.8 0 7.43 2.46c1.74 1.66 2.62 4.03 2.62 7.12zm-5.61.2a6.33 6.33 0 0 0-1.09-4.08 4 4 0 0 0-3.3-1.32h-1.57v11.19h1.2a4.33 4.33 0 0 0 3.61-1.43 6.84 6.84 0 0 0 1.15-4.36zM347.54 298.66l-1-2.05h-.11a6 6 0 0 1-2.2 1.83 7.23 7.23 0 0 1-2.9.5 4.51 4.51 0 0 1-3.44-1.32 5.1 5.1 0 0 1-1.26-3.69 4.18 4.18 0 0 1 1.72-3.68 9.38 9.38 0 0 1 5-1.36l2.59-.09v-.21a1.68 1.68 0 0 0-1.89-1.92 11.22 11.22 0 0 0-4.31 1.15l-1.54-3.53a14.83 14.83 0 0 1 6.8-1.39 6.63 6.63 0 0 1 4.62 1.48 5.26 5.26 0 0 1 1.63 4.12v10.16zm-4-3.5a2.4 2.4 0 0 0 1.66-.61 2.05 2.05 0 0 0 .69-1.6v-1.21l-1.23.06c-1.76.06-2.64.71-2.64 1.94.03.95.54 1.42 1.55 1.42zM362.47 294.71a8 8 0 0 0 2.58-.53v3.89a10.47 10.47 0 0 1-2.06.67 11.75 11.75 0 0 1-2.29.2 5 5 0 0 1-3.88-1.32 5.93 5.93 0 0 1-1.19-4.06v-6.38h-1.87V285l2.38-1.68 1.38-3.25H361v3.1h3.8v4H361v6c0 1.04.5 1.54 1.47 1.54zM377.86 298.66l-1-2.05h-.1a6.11 6.11 0 0 1-2.21 1.83 7.17 7.17 0 0 1-2.89.5 4.54 4.54 0 0 1-3.45-1.32 5.1 5.1 0 0 1-1.26-3.69 4.18 4.18 0 0 1 1.73-3.68 9.36 9.36 0 0 1 5-1.36l2.58-.09v-.21a1.68 1.68 0 0 0-1.89-1.92 11.18 11.18 0 0 0-4.3 1.15l-1.55-3.53a14.87 14.87 0 0 1 6.84-1.39 6.62 6.62 0 0 1 4.61 1.48 5.27 5.27 0 0 1 1.64 4.12v10.16zm-4-3.5a2.42 2.42 0 0 0 1.66-.61 2.05 2.05 0 0 0 .69-1.6v-1.21l-1.23.06c-1.76.06-2.64.71-2.64 1.94.04.95.54 1.42 1.56 1.42z" class="cls-9"/>
    </g>
  </g>
  <g class="cls-8">
    <path d="M307.55 14.81H312a7.61 7.61 0 0 1 3.89.78 2.63 2.63 0 0 1 1.3 2.41 3.11 3.11 0 0 1-.55 1.84 2.51 2.51 0 0 1-1.46 1v.09a3 3 0 0 1 1.73 1.07 3.16 3.16 0 0 1 .53 1.92 3.26 3.26 0 0 1-1.31 2.75 5.77 5.77 0 0 1-3.58 1h-5zm3.45 4.93h1.05a1.85 1.85 0 0 0 1.15-.31 1.07 1.07 0 0 0 .41-.91c0-.72-.55-1.08-1.63-1.08h-1zm0 2.54V25h1.22c1.09 0 1.63-.46 1.63-1.37a1.19 1.19 0 0 0-.44-1 2 2 0 0 0-1.26-.34zM330.6 14.81v7.73a5.15 5.15 0 0 1-1.43 3.91 5.67 5.67 0 0 1-4.11 1.38 5.6 5.6 0 0 1-4-1.34 5.11 5.11 0 0 1-1.41-3.87v-7.81h3.49v7.54a3.09 3.09 0 0 0 .51 2 2.2 2.2 0 0 0 3 0 3.24 3.24 0 0 0 .48-2v-7.54zM341.7 23.76a3.83 3.83 0 0 1-.6 2.12 4 4 0 0 1-1.75 1.44 6.57 6.57 0 0 1-2.68.51 10.9 10.9 0 0 1-2.16-.18 8.45 8.45 0 0 1-1.81-.65v-3.1a10.19 10.19 0 0 0 2.07.8 7.66 7.66 0 0 0 2 .28 1.9 1.9 0 0 0 1.13-.27.8.8 0 0 0 .36-.68.84.84 0 0 0-.14-.47 2 2 0 0 0-.47-.4 18.49 18.49 0 0 0-1.71-.82 7.79 7.79 0 0 1-1.94-1.08 3.55 3.55 0 0 1-.94-1.23 4.1 4.1 0 0 1-.3-1.64 3.29 3.29 0 0 1 1.29-2.77 5.72 5.72 0 0 1 3.55-1 9.89 9.89 0 0 1 4.07.93l-1.06 2.68a7.73 7.73 0 0 0-3.11-.83 1.64 1.64 0 0 0-1 .24.72.72 0 0 0-.3.59.83.83 0 0 0 .39.67 13.63 13.63 0 0 0 2.16 1.1 5.9 5.9 0 0 1 2.31 1.61 3.48 3.48 0 0 1 .64 2.15zM343.69 27.66V14.81h3.49v12.85zM362.19 27.66h-4.55l-4.7-9h-.08c.12 1.42.17 2.51.17 3.26v5.79H350v-12.9h4.53l4.68 8.93h.05q-.12-1.95-.12-3.12v-5.81h3.09zM372.6 27.66H365V14.81h7.63v2.79h-4.16v2h3.85v2.8h-3.85v2.43h4.16zM383.25 23.76a3.76 3.76 0 0 1-.61 2.12 3.93 3.93 0 0 1-1.75 1.44 6.51 6.51 0 0 1-2.68.51 10.86 10.86 0 0 1-2.15-.18 8.45 8.45 0 0 1-1.81-.62v-3.1a10.34 10.34 0 0 0 2.06.8 7.72 7.72 0 0 0 2 .28 1.91 1.91 0 0 0 1.14-.27.8.8 0 0 0 .36-.68.78.78 0 0 0-.15-.47 1.73 1.73 0 0 0-.46-.4c-.22-.13-.79-.41-1.71-.82a8.1 8.1 0 0 1-1.89-1.11 3.4 3.4 0 0 1-.93-1.23 4.1 4.1 0 0 1-.3-1.64 3.29 3.29 0 0 1 1.29-2.77 5.7 5.7 0 0 1 3.55-1 9.89 9.89 0 0 1 4.07.93l-1.07 2.68a7.69 7.69 0 0 0-3.11-.83 1.58 1.58 0 0 0-1 .24.7.7 0 0 0-.31.59.83.83 0 0 0 .39.67 14.16 14.16 0 0 0 2.11 1.1 5.9 5.9 0 0 1 2.31 1.61 3.49 3.49 0 0 1 .65 2.15zM393.64 23.76a3.84 3.84 0 0 1-.61 2.12 3.93 3.93 0 0 1-1.75 1.44 6.51 6.51 0 0 1-2.68.51 10.86 10.86 0 0 1-2.15-.18 8.27 8.27 0 0 1-1.81-.62v-3.1a10.34 10.34 0 0 0 2.06.8 7.72 7.72 0 0 0 2 .28 1.88 1.88 0 0 0 1.13-.27.81.81 0 0 0 .37-.68.78.78 0 0 0-.15-.47 1.8 1.8 0 0 0-.47-.4 18.49 18.49 0 0 0-1.71-.82 8.22 8.22 0 0 1-1.87-1.11 3.4 3.4 0 0 1-1-1.26 4.1 4.1 0 0 1-.31-1.64 3.3 3.3 0 0 1 1.3-2.77 5.7 5.7 0 0 1 3.55-1 9.93 9.93 0 0 1 4.07.93l-1.07 2.68a7.73 7.73 0 0 0-3.11-.83 1.58 1.58 0 0 0-1 .24.7.7 0 0 0-.31.59.83.83 0 0 0 .39.67 14.16 14.16 0 0 0 2.17 1.13 5.9 5.9 0 0 1 2.32 1.6 3.49 3.49 0 0 1 .64 2.16z" class="cls-7"/>
  </g>
  <g class="cls-8">
    <path d="M282.1 36.41v7.73a5.19 5.19 0 0 1-1.43 3.91 6.8 6.8 0 0 1-8.16 0 5.11 5.11 0 0 1-1.41-3.87v-7.77h3.49V44a3.09 3.09 0 0 0 .51 2 2.21 2.21 0 0 0 3 0 3.24 3.24 0 0 0 .48-2v-7.59zM297 49.26h-4.55l-4.69-9h-.08c.11 1.42.16 2.51.16 3.26v5.79h-3.04v-12.9h4.53l4.67 8.93h.05q-.12-2-.12-3.12v-5.81H297zM310.72 42.56a6.64 6.64 0 0 1-1.77 5 6.82 6.82 0 0 1-5 1.74h-4.16V36.41h4.45A6.71 6.71 0 0 1 309 38a6 6 0 0 1 1.72 4.56zm-3.61.12a4 4 0 0 0-.7-2.61 2.57 2.57 0 0 0-2.12-.86h-1v7.2h.77a2.8 2.8 0 0 0 2.33-.92 4.45 4.45 0 0 0 .72-2.81zM320.65 49.26H313V36.41h7.63v2.79h-4.16v2h3.85V44h-3.85v2.43h4.16zM326.37 44.58v4.68h-3.47V36.41h4.21c3.49 0 5.24 1.26 5.24 3.8a3.8 3.8 0 0 1-2.18 3.45l3.74 5.6H330l-2.72-4.68zm0-2.61h.63c1.21 0 1.82-.53 1.82-1.61 0-.88-.59-1.32-1.78-1.32h-.69zM343.48 45.36a3.83 3.83 0 0 1-.6 2.12 4 4 0 0 1-1.75 1.44 6.54 6.54 0 0 1-2.68.51 10.9 10.9 0 0 1-2.16-.18 8.45 8.45 0 0 1-1.81-.62v-3.1a10.19 10.19 0 0 0 2.07.8 7.66 7.66 0 0 0 2 .28 1.9 1.9 0 0 0 1.13-.27.8.8 0 0 0 .36-.68.84.84 0 0 0-.14-.47 2 2 0 0 0-.47-.4 18.49 18.49 0 0 0-1.71-.82 8.1 8.1 0 0 1-1.89-1.11 3.65 3.65 0 0 1-.93-1.23 4.1 4.1 0 0 1-.3-1.64 3.29 3.29 0 0 1 1.29-2.77 5.72 5.72 0 0 1 3.55-1 9.89 9.89 0 0 1 4.07.93l-1.06 2.68a7.73 7.73 0 0 0-3.11-.83 1.64 1.64 0 0 0-1 .24.72.72 0 0 0-.3.59.83.83 0 0 0 .39.67 14.16 14.16 0 0 0 2.12 1.09 5.9 5.9 0 0 1 2.31 1.61 3.48 3.48 0 0 1 .62 2.16zM351.14 49.26h-3.47v-10h-3.14v-2.85h9.74v2.84h-3.13zM364 49.26l-.64-2.41h-4.17l-.65 2.41h-3.82l4.2-12.9h4.63l4.24 12.9zM362.63 44l-.55-2.11c-.13-.47-.29-1.07-.47-1.82s-.31-1.27-.36-1.6c-.06.3-.16.8-.32 1.48s-.5 2-1 4zM381.41 49.26h-4.56l-4.69-9h-.08c.11 1.42.17 2.51.17 3.26v5.79h-3.08v-12.9h4.54l4.67 8.93h.06c-.09-1.3-.13-2.34-.13-3.12v-5.81h3.1zM395.09 42.56a6.64 6.64 0 0 1-1.77 5 6.8 6.8 0 0 1-5 1.74h-4.16V36.41h4.45a6.74 6.74 0 0 1 4.8 1.59 6 6 0 0 1 1.68 4.56zm-3.6.12a4.09 4.09 0 0 0-.7-2.61 2.58 2.58 0 0 0-2.12-.86h-1v7.2h.77a2.78 2.78 0 0 0 2.32-.92 4.45 4.45 0 0 0 .73-2.81zM397.39 49.26V36.41h3.49v12.85zM415.9 49.26h-4.56l-4.69-9h-.08c.11 1.42.17 2.51.17 3.26v5.79h-3.08v-12.9h4.54l4.67 8.93h.05q-.12-2-.12-3.12v-5.81h3.1zM423.83 41.74h5.55v6.92a15.15 15.15 0 0 1-5 .77 6 6 0 0 1-4.59-1.72 6.89 6.89 0 0 1-1.62-4.91A6.44 6.44 0 0 1 420 38a6.83 6.83 0 0 1 5-1.74 11.18 11.18 0 0 1 2.29.23 10.36 10.36 0 0 1 1.87.58L428 39.76a6.79 6.79 0 0 0-3-.69 2.92 2.92 0 0 0-2.36 1 4.3 4.3 0 0 0-.83 2.83 4.26 4.26 0 0 0 .76 2.74 2.6 2.6 0 0 0 2.16.95 6.4 6.4 0 0 0 1.43-.15v-2h-2.3z" class="cls-7"/>
  </g>
  <g class="cls-8">
    <path d="M513.49 107a6.64 6.64 0 0 1-1.77 5 6.8 6.8 0 0 1-5 1.74h-4.15v-12.93H507a6.72 6.72 0 0 1 4.78 1.58 6 6 0 0 1 1.71 4.61zm-3.6.13a4.06 4.06 0 0 0-.7-2.62 2.58 2.58 0 0 0-2.12-.86h-1v7.2h.77a2.77 2.77 0 0 0 2.32-.92 4.42 4.42 0 0 0 .73-2.84zM523.68 113.66l-.63-2.41h-4.18l-.65 2.41h-3.81l4.19-12.9h4.63l4.25 12.9zm-1.35-5.26l-.56-2.1c-.13-.47-.28-1.08-.47-1.82s-.3-1.28-.36-1.6c-.06.29-.16.79-.31 1.47s-.5 2-1 4.05zM534.53 113.66h-3.47v-10h-3.14v-2.84h9.74v2.84h-3.13zM547.38 113.66l-.63-2.41h-4.17l-.65 2.41h-3.82l4.19-12.9h4.64l4.24 12.9zM546 108.4l-.55-2.1c-.13-.47-.29-1.08-.47-1.82s-.31-1.28-.37-1.6c0 .29-.16.79-.31 1.47s-.5 2-1 4.05zM565.13 113.66l-.63-2.41h-4.18l-.65 2.41h-3.81l4.19-12.9h4.63l4.25 12.9zm-1.35-5.26l-.56-2.1c-.13-.47-.28-1.08-.47-1.82s-.3-1.28-.36-1.6c-.06.29-.16.79-.32 1.47s-.49 2-1 4.05zM582.55 113.66H578l-4.7-9h-.08c.11 1.42.17 2.51.17 3.26v5.79h-3.08v-12.9h4.54l4.68 8.93h.05q-.12-1.93-.12-3.12v-5.81h3.09zM593.21 113.66l-.63-2.41h-4.18l-.65 2.41h-3.81l4.19-12.9h4.63l4.25 12.9zm-1.35-5.26l-.56-2.1c-.13-.47-.28-1.08-.47-1.82s-.3-1.28-.36-1.6c-.05.29-.16.79-.31 1.47s-.5 2-1 4.05zM598.4 113.66v-12.85h3.47v10h5v2.8zM613.46 105.57l2.21-4.76h3.77l-4.23 7.83v5h-3.5v-4.91l-4.23-7.94h3.78zM629.23 109.76a3.76 3.76 0 0 1-.61 2.12 3.93 3.93 0 0 1-1.75 1.44 6.5 6.5 0 0 1-2.68.52 10.86 10.86 0 0 1-2.15-.18 7.82 7.82 0 0 1-1.81-.63v-3.1a10.34 10.34 0 0 0 2.06.8 7.72 7.72 0 0 0 2 .28 1.92 1.92 0 0 0 1.14-.26.83.83 0 0 0 .36-.69.73.73 0 0 0-.15-.46 1.49 1.49 0 0 0-.47-.4 18.12 18.12 0 0 0-1.7-.83 8.1 8.1 0 0 1-1.89-1.11 3.4 3.4 0 0 1-.93-1.23 4.1 4.1 0 0 1-.3-1.64 3.29 3.29 0 0 1 1.29-2.77 5.69 5.69 0 0 1 3.55-1 9.91 9.91 0 0 1 4.07.92l-1.07 2.68a7.69 7.69 0 0 0-3.11-.83 1.58 1.58 0 0 0-1 .24.72.72 0 0 0-.31.59.86.86 0 0 0 .39.68 15.25 15.25 0 0 0 2.12 1.09 5.79 5.79 0 0 1 2.31 1.6 3.49 3.49 0 0 1 .64 2.17zM631.21 113.66v-12.85h3.49v12.85zM645.88 109.76a3.83 3.83 0 0 1-.6 2.12 4 4 0 0 1-1.75 1.44 6.54 6.54 0 0 1-2.68.52 10.9 10.9 0 0 1-2.16-.18 8 8 0 0 1-1.81-.63v-3.1a10.19 10.19 0 0 0 2.07.8 7.66 7.66 0 0 0 2 .28 1.91 1.91 0 0 0 1.13-.26.83.83 0 0 0 .36-.69.78.78 0 0 0-.14-.46 1.61 1.61 0 0 0-.47-.4 17.5 17.5 0 0 0-1.71-.83 7.79 7.79 0 0 1-1.88-1.11 3.55 3.55 0 0 1-.94-1.23 4.1 4.1 0 0 1-.3-1.64 3.29 3.29 0 0 1 1.29-2.77 5.71 5.71 0 0 1 3.55-1 9.88 9.88 0 0 1 4.07.92l-1.06 2.68a7.73 7.73 0 0 0-3.11-.83 1.64 1.64 0 0 0-1 .24.73.73 0 0 0-.3.59.86.86 0 0 0 .39.68 15.25 15.25 0 0 0 2.12 1.09 5.79 5.79 0 0 1 2.31 1.6 3.48 3.48 0 0 1 .62 2.17z" class="cls-7"/>
  </g>
  <g class="cls-8">
    <path d="M511.23 135.26l-.87-.9a6.75 6.75 0 0 1-1.3.69 5.93 5.93 0 0 1-1.14.29 9.91 9.91 0 0 1-1.43.1A5.93 5.93 0 0 1 504 135a3.68 3.68 0 0 1-1.63-1.33 3.38 3.38 0 0 1-.57-1.94 3.82 3.82 0 0 1 2.39-3.52 5.06 5.06 0 0 1-.85-1.31 3.88 3.88 0 0 1-.3-1.56 2.65 2.65 0 0 1 1.08-2.23 4.85 4.85 0 0 1 3-.83 4.58 4.58 0 0 1 2.89.82 2.74 2.74 0 0 1 1 2.24 3.22 3.22 0 0 1-.56 1.81 5.6 5.6 0 0 1-1.76 1.56l1.75 1.66a6.43 6.43 0 0 0 .91-2.29H515a11.64 11.64 0 0 1-.83 2.43 9.92 9.92 0 0 1-1.28 2.09l2.81 2.7zm-5.86-3.81a1.14 1.14 0 0 0 .4.9 1.47 1.47 0 0 0 1 .35 2.59 2.59 0 0 0 .88-.13 1.94 1.94 0 0 0 .58-.3l-2.18-2.21a1.65 1.65 0 0 0-.68 1.39zm2.63-6.15a.72.72 0 0 0-.25-.62 1 1 0 0 0-.62-.19 1 1 0 0 0-.65.22.84.84 0 0 0-.28.71 1.93 1.93 0 0 0 .78 1.36 2.18 2.18 0 0 0 .76-.67 1.39 1.39 0 0 0 .26-.81zM531 126.5a4.32 4.32 0 0 1-1.27 3.32 5.1 5.1 0 0 1-3.61 1.18h-1v4.26h-3.47v-12.85h4.45a5.41 5.41 0 0 1 3.65 1.06 3.79 3.79 0 0 1 1.25 3.03zm-5.86 1.67h.64a1.74 1.74 0 0 0 1.24-.44 1.61 1.61 0 0 0 .46-1.22c0-.86-.48-1.3-1.44-1.3h-.9zM536.49 130.58v4.68H533v-12.85h4.21c3.5 0 5.24 1.27 5.24 3.8a3.77 3.77 0 0 1-2.18 3.45l3.75 5.6h-3.94l-2.73-4.68zm0-2.61h.65c1.21 0 1.82-.53 1.82-1.6 0-.89-.6-1.33-1.79-1.33h-.68zM552.82 135.26h-7.62v-12.85h7.62v2.79h-4.15v2h3.85v2.8h-3.85v2.43h4.15zM564.4 126.5a4.28 4.28 0 0 1-1.27 3.32 5.1 5.1 0 0 1-3.61 1.18h-1v4.26h-3.48v-12.85h4.45a5.46 5.46 0 0 1 3.66 1.06 3.82 3.82 0 0 1 1.25 3.03zm-5.85 1.67h.63a1.74 1.74 0 0 0 1.24-.44 1.61 1.61 0 0 0 .46-1.22c0-.86-.48-1.3-1.44-1.3h-.89zM574.33 135.26l-.63-2.41h-4.18l-.65 2.41h-3.81l4.19-12.9h4.63l4.25 12.9zM573 130l-.56-2.11c-.13-.46-.28-1.07-.47-1.81s-.3-1.28-.36-1.6c-.05.29-.16.79-.31 1.47s-.5 2-1 4zM583 130.58v4.68h-3.47v-12.85h4.21q5.24 0 5.23 3.8a3.78 3.78 0 0 1-2.17 3.45l3.74 5.6h-3.94l-2.72-4.68zm0-2.61h.65c1.21 0 1.82-.53 1.82-1.6 0-.89-.6-1.33-1.79-1.33H583z" class="cls-7"/>
    <path d="M599.58 135.26l-.63-2.41h-4.18l-.65 2.41h-3.81l4.19-12.9h4.63l4.25 12.9zm-1.35-5.26l-.56-2.11-.47-1.81c-.18-.75-.3-1.28-.36-1.6-.05.29-.16.79-.31 1.47s-.5 2-1 4zM610.44 135.26H607v-10h-3.13v-2.84h9.74v2.84h-3.13zM615.4 135.26v-12.85h3.49v12.85zM633.69 128.82a6.94 6.94 0 0 1-1.59 4.93 7.21 7.21 0 0 1-9.29 0 8.3 8.3 0 0 1 0-9.84 7.27 7.27 0 0 1 9.31 0 6.91 6.91 0 0 1 1.57 4.91zm-8.84 0q0 3.72 2.59 3.72a2.25 2.25 0 0 0 2-.9 6.55 6.55 0 0 0 0-5.67 2.2 2.2 0 0 0-1.93-.91q-2.66 0-2.66 3.76zM648.25 135.26h-4.56l-4.69-9h-.08c.11 1.42.17 2.51.17 3.26v5.79H636v-12.9h4.54l4.67 8.93h.06c-.09-1.29-.13-2.34-.13-3.12v-5.81h3.1z" class="cls-7"/>
  </g>
</svg>
