<svg xmlns="http://www.w3.org/2000/svg" id="ic_artificial_intelligence" viewBox="0 0 152 171">
  <defs>
    <style>
      .cls-1,.cls-2{fill:#fff;fill-rule:evenodd}.cls-2{fill:#00c752}
    </style>
  </defs>
  <path id="Rectangle_776_копия_4" d="M1177 1349.65l.01.01s-.04 20.39-.01 26.41c.04 6.09-2.9 12.19-8.81 16.84l-45.93 36.15c-11.74 9.24-30.78 9.24-42.52 0l-45.93-36.15c-5.91-4.65-8.85-10.75-8.81-16.84.03-5.18.01-20.96.01-25.29 0-.07-.01-.15-.01-.22.03-6.02.01-26.41.01-26.41l.04-.02c.2-5.83 3.1-11.61 8.76-16.06l45.93-36.15c11.74-9.24 30.78-9.24 42.52 0l45.93 36.15c5.66 4.45 8.56 10.23 8.76 16.05l.06.03s-.04 18.58-.01 25.5z" class="cls-1" data-name="Rectangle 776 копия 4" transform="translate(-1025 -1265)"/>
  <path id="Фигура_1_копия_2" d="M1101 1432.01a33.871 33.871 0 0 1-20.76-6.72l-43.52-34.05c-5.65-4.43-8.75-10.34-8.72-16.65.03-5.06.02-20.73.01-23.82 0-.09-.01-.15-.01-.2.04-5.61.01-24.69.01-24.88v-.62l.08-.04c.38-5.8 3.43-11.2 8.63-15.27l43.52-34.06c11.45-8.95 30.07-8.95 41.52 0l43.51 34.06c5.21 4.07 8.26 9.47 8.65 15.27l.03.01.05.65c0 .17-.03 16.55-.01 23.41l.01.01v.61c0 .19-.04 19.27-.01 24.87.04 6.31-3.06 12.22-8.72 16.65l-43.51 34.05a33.892 33.892 0 0 1-20.76 6.72zm-71.02-105.71c.01 3.35.02 19.24 0 24.27v.2c.01 3.09.02 18.76 0 23.84-.04 5.68 2.79 11.04 7.96 15.08l43.52 34.06c10.78 8.43 28.3 8.43 39.08 0l43.51-34.06c5.18-4.04 8.01-9.4 7.97-15.09-.03-5.13 0-21.56.01-24.45l-.01-.44c-.02-5.87 0-20.83.01-23.59l-.05-.43c-.2-5.43-3.01-10.54-7.93-14.39l-43.51-34.05c-10.77-8.43-28.31-8.43-39.08 0l-43.52 34.05c-4.91 3.85-7.73 8.96-7.91 14.4z" class="cls-2" data-name="Фигура 1 копия 2" transform="translate(-1025 -1265)"/>
  <path id="Фигура_1_копия_3" fill="#e5f9ed" fill-rule="evenodd" d="M1029.98 1326.3c.01 3.35.02 19.24 0 24.27v.2c.01 3.09.02 18.76 0 23.84-.04 5.68 2.79 11.04 7.96 15.08l43.52 34.06c10.78 8.43 28.3 8.43 39.08 0l43.51-34.06c5.18-4.04 8.01-9.4 7.97-15.09-.03-5.13 0-21.56.01-24.45l-.01-.44c-.02-5.87 0-20.83.01-23.59l-.05-.43c-.2-5.43-3.01-10.54-7.93-14.39l-43.51-34.05c-10.77-8.43-28.31-8.43-39.08 0l-43.52 34.05c-4.91 3.85-7.73 8.96-7.91 14.4z" data-name="Фигура 1 копия 3" transform="translate(-1025 -1265)"/>
  <path id="Фигура_6" d="M1101 1421a29.112 29.112 0 0 1-17.96-5.87l-37.48-29.61c-4.91-3.88-7.59-9.06-7.56-14.58.02-4.02.01-15.82.01-20.71a1.213 1.213 0 0 1-.01-.18c.03-4.88.01-21.47.01-21.63l-.01-.62.08-.04a18.642 18.642 0 0 1 7.48-13.29l37.48-29.62c9.9-7.82 26.02-7.82 35.92 0l37.48 29.62a18.7 18.7 0 0 1 7.49 13.28l.03.02.04.65s-.02 14.2-.01 20.28h.02l-.01.61c0 .17-.03 16.76 0 21.63.03 5.52-2.65 10.7-7.56 14.58l-37.48 29.61A29.132 29.132 0 0 1 1101 1421zm-61.02-91.96c0 3.07.01 16.68-.01 21.02l.01.16c0 4.9.01 16.7-.01 20.73-.03 4.9 2.39 9.53 6.81 13.02l37.48 29.61c9.23 7.29 24.25 7.3 33.48 0l37.48-29.61c4.42-3.49 6.84-8.12 6.81-13.02-.02-4.44 0-18.59 0-21.22v-.42c-.02-5.11 0-17.96 0-20.47l-.04-.41c-.16-4.68-2.57-9.09-6.77-12.41l-37.48-29.62c-9.23-7.29-24.25-7.29-33.48 0l-37.48 29.62c-4.2 3.32-6.61 7.73-6.77 12.41zm61.02 80.12a24.037 24.037 0 0 1-14.93-4.91l-30.94-24.61c-4.09-3.25-6.33-7.6-6.3-12.24.02-3.52.01-14.26 0-17.21v-.15c.02-4.1 0-17.97 0-17.97v-.62l.07-.03a15.75 15.75 0 0 1 6.23-11.08l30.94-24.6c8.23-6.55 21.63-6.55 29.86 0l30.94 24.6a15.75 15.75 0 0 1 6.23 11.07l.04.02.04.64s-.03 11.58-.01 16.7l.01.01v.65c0 .14-.03 13.92-.01 17.97.03 4.64-2.21 8.99-6.3 12.24l-30.94 24.61a24.037 24.037 0 0 1-14.93 4.91zm-50.2-76.48c.01 2.73.02 13.79 0 17.37v.14c.01 2.95.02 13.7 0 17.22-.03 4.03 1.95 7.82 5.56 10.69l30.93 24.61c7.56 6.01 19.86 6.01 27.42 0l30.93-24.61c3.61-2.87 5.59-6.67 5.56-10.69-.02-3.65 0-15.19.01-17.56l-.01-.42c-.02-4.22 0-14.78.01-16.97l-.04-.38a13.657 13.657 0 0 0-5.53-10.19l-30.93-24.61c-7.56-6.01-19.86-6.01-27.42 0l-30.93 24.61a13.657 13.657 0 0 0-5.53 10.19z" class="cls-1" data-name="Фигура 6" transform="translate(-1025 -1265)"/>
  <path id="Фигура_7_копия" d="M1140.56 1366.65a6.581 6.581 0 0 0-1.06 3.53 18.056 18.056 0 0 1-12.82 17.03 6.359 6.359 0 0 0-2.92 1.89 14.483 14.483 0 0 1-18.42 2.77 6.4 6.4 0 0 0-6.68 0 14.483 14.483 0 0 1-18.42-2.77 6.359 6.359 0 0 0-2.92-1.89 18.056 18.056 0 0 1-12.82-17.03 6.581 6.581 0 0 0-1.06-3.53 21.562 21.562 0 0 1 .97-24.75 6.427 6.427 0 0 0 1.17-5.04 13.933 13.933 0 0 1-.23-2.47 14.226 14.226 0 0 1 6.6-12 6.36 6.36 0 0 0 2.87-4.22 7.663 7.663 0 0 1 7.59-6.32h.22a6.691 6.691 0 0 0 4.53-1.8 7.749 7.749 0 0 1 10.49-.01 6.415 6.415 0 0 0 8.7 0 7.762 7.762 0 0 1 10.5.01 6.648 6.648 0 0 0 4.52 1.8h.22a7.663 7.663 0 0 1 7.59 6.32 6.36 6.36 0 0 0 2.87 4.22 14.226 14.226 0 0 1 6.6 12 13.933 13.933 0 0 1-.23 2.47 6.427 6.427 0 0 0 1.17 5.04 21.562 21.562 0 0 1 .97 24.75z" class="cls-1" data-name="Фигура 7 копия" transform="translate(-1025 -1265)"/>
  <path id="Фигура_7" d="M1126.48 1360.21a6.448 6.448 0 0 0-6.26 4.91h-.36a1.5 1.5 0 1 0 0 3h.36a6.436 6.436 0 1 0 6.26-7.91zm0 9.83a3.415 3.415 0 1 1 3.44-3.42 3.429 3.429 0 0 1-3.44 3.42zm0-25.46a6.437 6.437 0 0 0-6.25 4.91 1.622 1.622 0 0 1-1.58-1.61v-2.44a4.639 4.639 0 0 0-4.64-4.62h-4.49a4.648 4.648 0 0 0-4.65 4.62v33.68a4.65 4.65 0 0 0 4.65 4.63h2.83a6.42 6.42 0 1 0 0-3h-2.83a1.641 1.641 0 0 1-1.65-1.63v-11h.3a1.5 1.5 0 0 0 0-3h-.3v-19.68a1.639 1.639 0 0 1 1.65-1.62h4.49a1.637 1.637 0 0 1 1.64 1.62v2.44a4.636 4.636 0 0 0 4.57 4.61 6.436 6.436 0 1 0 6.26-7.91zm-7.87 34.25a3.415 3.415 0 1 1-3.44 3.42 3.429 3.429 0 0 1 3.44-3.42zm7.87-24.41a3.42 3.42 0 1 1 3.44-3.42 3.429 3.429 0 0 1-3.44 3.42zm0-25.46a6.446 6.446 0 0 0-6.26 4.92h-.34a1.5 1.5 0 0 0 0 3h.34a6.437 6.437 0 1 0 6.26-7.92zm0 9.84a3.42 3.42 0 1 1 3.44-3.42 3.429 3.429 0 0 1-3.44 3.42zm-42.7 29.3a1.635 1.635 0 0 0 .22.02h.5a1.5 1.5 0 0 0 0-3h-.5a1.635 1.635 0 0 0-.22.02 6.42 6.42 0 1 0 0 2.96zm-6.26 1.94a3.415 3.415 0 1 1 3.44-3.42 3.429 3.429 0 0 1-3.44 3.42zm16.96-51.79h-2.83a6.42 6.42 0 1 0 0 3h2.83a1.641 1.641 0 0 1 1.65 1.63v9.38a1.639 1.639 0 0 1-1.65 1.62h-10.7a6.42 6.42 0 1 0 0 3h10.7a4.648 4.648 0 0 0 4.65-4.62v-9.38a4.65 4.65 0 0 0-4.65-4.63zm-9.09 4.92a3.415 3.415 0 1 1 3.44-3.41 3.427 3.427 0 0 1-3.44 3.41zm-7.87 15.63a3.42 3.42 0 1 1 3.44-3.42 3.429 3.429 0 0 1-3.44 3.42zm28.76-5.26a1.5 1.5 0 0 0 .1 2.12 4.558 4.558 0 0 0 1.1.75 1.55 1.55 0 0 0 .66.15 1.5 1.5 0 0 0 .65-2.85 2.038 2.038 0 0 1-.39-.26 1.5 1.5 0 0 0-2.12.09zm.02-8.98h.08a1.493 1.493 0 0 0 1.49-1.42 1.458 1.458 0 0 1 .1-.46 1.5 1.5 0 0 0-2.83-1.02 4.616 4.616 0 0 0-.26 1.32 1.5 1.5 0 0 0 1.42 1.58zm7.23 9.32a1.5 1.5 0 1 0 0 3h.91a1.5 1.5 0 0 0 0-3h-.91zm-7.16-2.97a1.5 1.5 0 0 0 1.5-1.5v-.91a1.5 1.5 0 0 0-3 0v.91a1.5 1.5 0 0 0 1.5 1.5zm4.76-9.31h.44a6.408 6.408 0 1 0-.17-3h-.27a1.5 1.5 0 0 0 0 3zm6.61-5.26a3.415 3.415 0 1 1-3.44 3.42 3.429 3.429 0 0 1 3.44-3.42zm-23.26 24.48H1090a4.641 4.641 0 0 0-4.65 4.62v2.44a1.622 1.622 0 0 1-1.58 1.61 6.409 6.409 0 1 0 .01 3 4.636 4.636 0 0 0 4.57-4.61v-2.44a1.639 1.639 0 0 1 1.65-1.62h4.48a1.639 1.639 0 0 1 1.65 1.62v19.68h-.34a1.5 1.5 0 0 0 0 3h.34v1.97a1.641 1.641 0 0 1-1.65 1.63h-5.07a4.613 4.613 0 0 0-4.61 4.28 6.447 6.447 0 1 0 2.99.02 1.654 1.654 0 0 1 1.62-1.3h5.07a4.65 4.65 0 0 0 4.65-4.63v-24.65a4.648 4.648 0 0 0-4.65-4.62zm-16.96 13.6a3.42 3.42 0 1 1 3.44-3.42 3.429 3.429 0 0 1-3.44 3.42zm12.18 27.83a3.44 3.44 0 1 1-3.44-3.42 3.427 3.427 0 0 1 3.44 3.42zm.88-14.13a1.5 1.5 0 0 0 0-3h-.87a1.5 1.5 0 0 0 0 3h.87zm23.88-3h-.9a1.5 1.5 0 0 0 0 3h.9a1.5 1.5 0 0 0 0-3zm27.52-25.04a3.41 3.41 0 0 1-.61-2.68 16.6 16.6 0 0 0 .28-3.01 17.28 17.28 0 0 0-7.97-14.53 3.331 3.331 0 0 1-1.55-2.2 10.679 10.679 0 0 0-10.54-8.81h-.22a3.687 3.687 0 0 1-2.49-1 10.737 10.737 0 0 0-14.56-.01 3.44 3.44 0 0 1-4.64 0 10.737 10.737 0 0 0-14.56.01 3.687 3.687 0 0 1-2.49 1h-.22a10.679 10.679 0 0 0-10.54 8.81 3.331 3.331 0 0 1-1.55 2.2 17.28 17.28 0 0 0-7.97 14.53 16.6 16.6 0 0 0 .28 3.01 3.41 3.41 0 0 1-.61 2.68 24.576 24.576 0 0 0-1.1 28.2 3.613 3.613 0 0 1 .58 1.94 20.927 20.927 0 0 0 6.21 14.64 21.182 21.182 0 0 0 8.73 5.22 3.387 3.387 0 0 1 1.55 1 17.473 17.473 0 0 0 22.23 3.35 3.418 3.418 0 0 1 3.56 0 17.473 17.473 0 0 0 22.23-3.35 3.387 3.387 0 0 1 1.55-1 21.182 21.182 0 0 0 8.73-5.22 20.927 20.927 0 0 0 6.21-14.64 3.613 3.613 0 0 1 .58-1.94 24.576 24.576 0 0 0-1.1-28.2zm-1.42 26.57a6.581 6.581 0 0 0-1.06 3.53 18.056 18.056 0 0 1-12.82 17.03 6.359 6.359 0 0 0-2.92 1.89 14.483 14.483 0 0 1-18.42 2.77 6.4 6.4 0 0 0-6.68 0 14.483 14.483 0 0 1-18.42-2.77 6.359 6.359 0 0 0-2.92-1.89 18.056 18.056 0 0 1-12.82-17.03 6.581 6.581 0 0 0-1.06-3.53 21.562 21.562 0 0 1 .97-24.75 6.427 6.427 0 0 0 1.17-5.04 13.933 13.933 0 0 1-.23-2.47 14.226 14.226 0 0 1 6.6-12 6.36 6.36 0 0 0 2.87-4.22 7.663 7.663 0 0 1 7.59-6.32h.22a6.691 6.691 0 0 0 4.53-1.8 7.749 7.749 0 0 1 10.49-.01 6.415 6.415 0 0 0 8.7 0 7.762 7.762 0 0 1 10.5.01 6.648 6.648 0 0 0 4.52 1.8h.22a7.663 7.663 0 0 1 7.59 6.32 6.36 6.36 0 0 0 2.87 4.22 14.226 14.226 0 0 1 6.6 12 13.933 13.933 0 0 1-.23 2.47 6.427 6.427 0 0 0 1.17 5.04 21.562 21.562 0 0 1 .97 24.75z" class="cls-2" data-name="Фигура 7" transform="translate(-1025 -1265)"/>
</svg>
