<svg xmlns="http://www.w3.org/2000/svg" id="ic_computer_vision" viewBox="0 0 152 171">
  <defs>
    <style>
      .cls-1,.cls-2{fill:#fff;fill-rule:evenodd}.cls-2{fill:#00c752}
    </style>
  </defs>
  <path id="Rectangle_776_копия_5" d="M1537 1349.65l.01.01s-.04 20.39-.01 26.41c.04 6.09-2.9 12.19-8.81 16.84l-45.93 36.15c-11.74 9.24-30.78 9.24-42.52 0l-45.93-36.15c-5.91-4.65-8.85-10.75-8.81-16.84.03-5.18.01-20.96.01-25.29 0-.07-.01-.15-.01-.22.03-6.02.01-26.41.01-26.41l.04-.02c.2-5.83 3.1-11.61 8.76-16.06l45.93-36.15c11.74-9.24 30.78-9.24 42.52 0l45.93 36.15c5.66 4.45 8.56 10.23 8.76 16.05l.06.03s-.04 18.58-.01 25.5z" class="cls-1" data-name="Rectangle 776 копия 5" transform="translate(-1385 -1265)"/>
  <path id="Фигура_1_копия_4" d="M1461 1432.01a33.871 33.871 0 0 1-20.76-6.72l-43.52-34.05c-5.65-4.43-8.75-10.34-8.72-16.65.03-5.06.02-20.73.01-23.82 0-.09-.01-.15-.01-.2.04-5.61.01-24.69.01-24.88v-.62l.08-.04c.38-5.8 3.43-11.2 8.63-15.27l43.52-34.06c11.45-8.95 30.07-8.95 41.52 0l43.51 34.06c5.21 4.07 8.26 9.47 8.65 15.27l.03.01.05.65c0 .17-.03 16.55-.01 23.41l.01.01v.61c0 .19-.04 19.27-.01 24.87.04 6.31-3.06 12.22-8.72 16.65l-43.51 34.05a33.892 33.892 0 0 1-20.76 6.72zm-71.02-105.71c.01 3.35.02 19.24 0 24.27v.2c.01 3.09.02 18.76 0 23.84-.04 5.68 2.79 11.04 7.96 15.08l43.52 34.06c10.78 8.43 28.3 8.43 39.08 0l43.51-34.06c5.18-4.04 8.01-9.4 7.97-15.09-.03-5.13 0-21.56.01-24.45l-.01-.44c-.02-5.87 0-20.83.01-23.59l-.05-.43c-.2-5.43-3.01-10.54-7.93-14.39l-43.51-34.05c-10.77-8.43-28.31-8.43-39.08 0l-43.52 34.05c-4.91 3.85-7.73 8.96-7.91 14.4z" class="cls-2" data-name="Фигура 1 копия 4" transform="translate(-1385 -1265)"/>
  <path id="Фигура_1_копия_4-2" fill="#e5f9ed" fill-rule="evenodd" d="M1389.98 1326.3c.01 3.35.02 19.24 0 24.27v.2c.01 3.09.02 18.76 0 23.84-.04 5.68 2.79 11.04 7.96 15.08l43.52 34.06c10.78 8.43 28.3 8.43 39.08 0l43.51-34.06c5.18-4.04 8.01-9.4 7.97-15.09-.03-5.13 0-21.56.01-24.45l-.01-.44c-.02-5.87 0-20.83.01-23.59l-.05-.43c-.2-5.43-3.01-10.54-7.93-14.39l-43.51-34.05c-10.77-8.43-28.31-8.43-39.08 0l-43.52 34.05c-4.91 3.85-7.73 8.96-7.91 14.4z" data-name="Фигура 1 копия 4" transform="translate(-1385 -1265)"/>
  <path id="Фигура_10" d="M1402.33 1349.03a1.5 1.5 0 1 0-1.45-2.63l-10.87 5.91c.01.9.01 2.07.01 3.41zm-12.31 15.33l23.24-15.4a1.5 1.5 0 0 0-1.68-2.49l-21.56 14.29v3.6zm33.83-17.64a1.491 1.491 0 0 0-2.11-.13l-31.73 27.19c0 .36 0 .7-.01.99a17.1 17.1 0 0 0 .23 2.78l33.49-28.71a1.5 1.5 0 0 0 .13-2.12zm10.63-.17a1.505 1.505 0 0 0-2.11.22l-35.36 42.31c.31.27.63.54.96.8l1.38 1.08 35.36-42.3a1.5 1.5 0 0 0-.23-2.11zm10-.2a1.5 1.5 0 0 0-1.99.74l-27.65 56.02 2.42 1.89 27.95-56.66a1.5 1.5 0 0 0-.73-1.99zm10.38-.12a1.492 1.492 0 0 0-1.68 1.29l-12.36 75.95.65.51a24.72 24.72 0 0 0 2.06 1.46l12.62-77.53a1.492 1.492 0 0 0-1.29-1.68zm9.8.02a1.491 1.491 0 0 0-1.15 1.78l14.01 77.97a29.181 29.181 0 0 0 2.72-1.81l-13.8-76.79a1.491 1.491 0 0 0-1.78-1.15zm10.73.14a1.511 1.511 0 0 0-.61 2.04l28.89 57.42 2.41-1.89-28.66-56.95a1.494 1.494 0 0 0-2.03-.62zm9.85.2a1.5 1.5 0 0 0-.13 2.12l36.56 43.03 2.36-1.86-36.67-43.16a1.5 1.5 0 0 0-2.12-.13zm10.97.17a1.5 1.5 0 0 0 .2 2.11l35.12 29.94a16.926 16.926 0 0 0 .46-3.55l-33.67-28.7a1.5 1.5 0 0 0-2.11.2zm10.03.14a1.5 1.5 0 0 0 .45 2.08l25.3 16.65v-3.59l-23.68-15.59a1.5 1.5 0 0 0-2.07.45zm13.09-.51a1.5 1.5 0 1 0-1.41 2.65l14.08 7.64v-3.42z" class="cls-1" data-name="Фигура 10" transform="translate(-1385 -1265)"/>
  <path id="Фигура_12" d="M1529 1384.44V1376a3.941 3.941 0 0 0-.95-2.56 1.431 1.431 0 0 0 .11-.15 2.724 2.724 0 0 0-.13-2.8c-1.15-1.96-4.35-3.49-7.29-3.49h-32.66c-1.86 0-3.28.62-3.91 1.71 0 .01-.01.03-.01.04a4.885 4.885 0 0 0-1.16 3.49v23.95c0 2.96 1.54 6.18 3.49 7.34a3.121 3.121 0 0 0 1.57.47 2.5 2.5 0 0 0 1.22-.32 2.861 2.861 0 0 0 .85-.78 4.141 4.141 0 0 0 .87.1h16.07l17-13.31a22.519 22.519 0 0 0 4.93-5.25zm-40.7 17.49l-.01.01a.77.77 0 0 1-.78-.13c-1.36-.8-2.51-3.38-2.51-5.62v-23.95a2.649 2.649 0 0 1 .71-2.2.475.475 0 0 1 .24-.06 1.107 1.107 0 0 1 .54.18 5.492 5.492 0 0 1 1.96 2.78 3.96 3.96 0 0 0-1.45 3.06v23a3.987 3.987 0 0 0 1.3 2.93zm2.7-29.93a4.756 4.756 0 0 0-.75.07 8.311 8.311 0 0 0-2-3.07h32.49c2.22 0 4.77 1.15 5.56 2.51a.779.779 0 0 1 .13.76 3.953 3.953 0 0 0-1.43-.27h-34zm-41.15-81.79a7.137 7.137 0 0 0-5.75-3.21h-15.08l-2.55 2h17.63a4.712 4.712 0 0 1 2.65.87 8.307 8.307 0 0 0-2.7 1.59 14.621 14.621 0 0 0-2.37 2.58 3.974 3.974 0 0 0-2.67-1.04h-17.65l-23.39 18.31c-4.92 3.85-7.73 8.96-7.92 14.39l-.04.6c0 3.35.02 19.24-.01 24.28a1.416 1.416 0 0 1 .01.19c0 1.23 0 4.47.01 8.23h48.99a4.005 4.005 0 0 0 4-4v-9.08a4.938 4.938 0 0 0 .87.08 5.5 5.5 0 0 0 .98-.09 7.555 7.555 0 0 0 6.14-7.17v-45.67a3.4 3.4 0 0 0-1.15-2.86zm-.85 48.53a5.582 5.582 0 0 1-4.47 5.2 3.484 3.484 0 0 1-1.52-.07V1297a4.164 4.164 0 0 0-.18-1.12 13.025 13.025 0 0 1 2.51-2.89 4.833 4.833 0 0 1 2.75-1.36.845.845 0 0 1 .33.06 4.8 4.8 0 0 1 .53 1.47c.01.05 0 .09.01.14.01.01.03.02.04.03v45.41z" class="cls-1" data-name="Фигура 12" transform="translate(-1385 -1265)"/>
  <path id="Фигура_14" d="M1486.53 1360.48v-21.52a1.684 1.684 0 0 0-2.51-1.46l-9.73 5.51v-1.98a6.272 6.272 0 0 0-6.28-6.19h-25.41a6.274 6.274 0 0 0-6.28 6.2v17.37a6.274 6.274 0 0 0 6.28 6.2h25.42a6.266 6.266 0 0 0 6.27-6.2v-1.98l9.73 5.51a1.684 1.684 0 0 0 2.51-1.46zm-15.59-6.93v4.85a2.905 2.905 0 0 1-2.93 2.85h-25.4a2.912 2.912 0 0 1-2.94-2.84v-17.37a2.912 2.912 0 0 1 2.93-2.85h25.41a2.912 2.912 0 0 1 2.93 2.85v4.85a1.674 1.674 0 0 0 2.5 1.46l9.73-5.51v15.76l-9.73-5.51a1.674 1.674 0 0 0-2.5 1.46zm24.13-42.56h-8.52a1.68 1.68 0 0 0 0 3.36h8.52a2.58 2.58 0 0 1 2.58 2.58v9.37a1.68 1.68 0 0 0 3.36 0v-9.37a5.954 5.954 0 0 0-5.94-5.94zm-72.4 16.99a1.682 1.682 0 0 0 1.67-1.68v-9.37a2.58 2.58 0 0 1 2.58-2.58h8.52a1.68 1.68 0 0 0 0-3.36h-8.52a5.945 5.945 0 0 0-5.93 5.94v9.37a1.684 1.684 0 0 0 1.68 1.68zm12.77 59.68h-8.52a2.588 2.588 0 0 1-2.58-2.59v-7.66a1.675 1.675 0 1 0-3.35 0v7.66a5.939 5.939 0 0 0 5.93 5.94h8.52a1.675 1.675 0 1 0 0-3.35zm63.89-11.93a1.684 1.684 0 0 0-1.68 1.68v7.66a2.588 2.588 0 0 1-2.58 2.59h-8.52a1.675 1.675 0 1 0 0 3.35h8.52a5.947 5.947 0 0 0 5.94-5.94v-7.66a1.684 1.684 0 0 0-1.68-1.68z" class="cls-2" data-name="Фигура 14" transform="translate(-1385 -1265)"/>
</svg>
