<svg xmlns="http://www.w3.org/2000/svg" id="ic_data_science" viewBox="0 0 152 171">
  <defs>
    <style>
      .cls-1,.cls-2{fill:#fff;fill-rule:evenodd}.cls-2{fill:#00c752}
    </style>
  </defs>
  <path id="Rectangle_776_копия" d="M457 1349.65l.009.01s-.039 20.39 0 26.41c.035 6.09-2.9 12.19-8.807 16.84l-45.93 36.15c-11.744 9.24-30.784 9.24-42.528 0l-45.93-36.15c-5.906-4.65-8.842-10.75-8.808-16.84.029-5.18.014-20.96.01-25.29 0-.07-.01-.15-.01-.22.034-6.02.008-26.41.008-26.41l.047-.02c.2-5.83 3.1-11.61 8.753-16.06l45.93-36.15c11.744-9.24 30.784-9.24 42.528 0l45.93 36.15c5.654 4.45 8.554 10.23 8.757 16.05l.055.03s-.044 18.58-.014 25.5z" class="cls-1" data-name="Rectangle 776 копия" transform="translate(-305 -1265)"/>
  <path id="Фигура_1" d="M381 1432.01a33.856 33.856 0 0 1-20.757-6.72l-43.517-34.05c-5.659-4.43-8.756-10.34-8.722-16.65.029-5.06.013-20.73.009-23.82a3.113 3.113 0 0 1-.009-.2c.033-5.61.008-24.69.008-24.88v-.62l.076-.04c.385-5.8 3.436-11.2 8.639-15.27l43.517-34.06c11.446-8.95 30.07-8.95 41.513 0l43.518 34.06c5.2 4.07 8.255 9.47 8.644 15.27l.031.01.051.65c0 .17-.031 16.55-.01 23.41l.011.01v.61c0 .19-.037 19.27 0 24.87.036 6.31-3.061 12.22-8.722 16.65l-43.518 34.05a33.851 33.851 0 0 1-20.762 6.72zm-71.015-105.71c0 3.35.02 19.24-.009 24.27.006.09.009.15.009.2 0 3.09.02 18.76-.009 23.84-.032 5.68 2.8 11.04 7.968 15.08l43.518 34.06c10.773 8.43 28.3 8.43 39.074 0l43.518-34.06c5.171-4.04 8-9.4 7.968-15.09-.03-5.13 0-21.56 0-24.45l-.008-.44c-.022-5.87 0-20.83.008-23.59l-.05-.43c-.191-5.43-3-10.54-7.922-14.39l-43.518-34.05c-10.771-8.43-28.3-8.43-39.074 0l-43.518 34.05c-4.917 3.85-7.729 8.96-7.917 14.4z" class="cls-2" data-name="Фигура 1" transform="translate(-305 -1265)"/>
  <path fill="#00c752" fill-rule="evenodd" d="M447 1350.27h.008s-.035 17.65 0 22.86c.031 5.27-2.519 10.55-7.649 14.58l-39.886 31.28c-10.2 8-26.734 8-36.932 0l-39.887-31.28c-5.129-4.03-7.678-9.31-7.649-14.58.026-4.48.013-18.14.009-21.89 0-.06-.009-.12-.009-.19.03-5.21.008-22.86.008-22.86l.04-.01c.174-5.05 2.69-10.05 7.6-13.9l39.887-31.29c10.2-8 26.734-8 36.932 0l39.886 31.29c4.911 3.85 7.429 8.85 7.605 13.89l.049.02s-.038 16.09-.012 22.08zm-52.061 39.29a5.724 5.724 0 1 1-5.937 5.72 5.831 5.831 0 0 1 5.935-5.72zm15.985-3.56a3.923 3.923 0 1 1-4.078 3.92 4 4 0 0 1 4.076-3.92z" opacity=".1" transform="translate(-305 -1265)"/>
  <path id="Фигура_2" d="M421.508 1323.5H372.07v-21.17a1.318 1.318 0 0 0-1.283-1.32l-.332-.01c-.191 0-.382-.01-.575-.01a49.276 49.276 0 0 0-28.317 8.91 1.334 1.334 0 0 0-.327 1.85l5.906 8.48a39 39 0 0 0-13.043 16.96 1.326 1.326 0 0 0 .732 1.72l11.169 4.46a26.69 26.69 0 0 0 15.375 33.26l-6.134 18.97a1.32 1.32 0 0 0 .8 1.65 45.607 45.607 0 0 0 14.726 2.73h.024a1.305 1.305 0 0 0 .916-.37 1.34 1.34 0 0 0 .391-.95l-.008-18.45h49.422a5.525 5.525 0 0 0 5.491-5.54v-45.62a5.528 5.528 0 0 0-5.495-5.55z" class="cls-1" data-name="Фигура 2" transform="translate(-305 -1265)"/>
  <path id="Фигура_13" d="M421.333 1323.93h-49.387v-20.37a1.557 1.557 0 0 0-1.513-1.55l-.325-.01c-.191 0-.382-.01-.575-.01a49.1 49.1 0 0 0-28.017 8.73 1.543 1.543 0 0 0-.386 2.16l5.668 8.06a38.417 38.417 0 0 0-12.721 16.49 1.539 1.539 0 0 0 .013 1.19 1.607 1.607 0 0 0 .851.83l10.762 4.26a26.149 26.149 0 0 0 15.135 32.42l-5.963 18.25a1.547 1.547 0 0 0 .947 1.94 45.771 45.771 0 0 0 14.6 2.68 1.524 1.524 0 0 0 1.082-.45 1.541 1.541 0 0 0 .462-1.1l-.008-17.73h49.371a5.668 5.668 0 0 0 5.662-5.66v-44.46a5.67 5.67 0 0 0-5.658-5.67zm0 52.71h-49.372l-.015-49.62h49.387a2.581 2.581 0 0 1 2.574 2.58v44.46a2.581 2.581 0 0 1-2.574 2.58zm-52.452 19.21a42.632 42.632 0 0 1-10.6-1.96l10.573-32.37zm-20.314-72.39l17.6 25.03-28.615-11.33a35.351 35.351 0 0 1 11.015-13.7zm-4-11.06a46.088 46.088 0 0 1 24.291-7.31v41.86zm4.031 32.45l19.883 7.88-6.676 20.44a22.972 22.972 0 0 1-13.205-28.32z" class="cls-2" data-name="Фигура 13" transform="translate(-305 -1265)"/>
  <path d="M409.58 1362.99a4.154 4.154 0 0 1-1.987 1.4 10.629 10.629 0 0 1-3.213.56h-17.189l13.217-15.98-11.816-14.12h15.556a5 5 0 0 1 3.6 1.04 6.039 6.039 0 0 1 1.626 3.91h.839l-.563-6.86h-26.769v.74l14.063 16.94-14.063 17.23v.92h27.5l1.344-8.69-.839-.23a8.162 8.162 0 0 1-1.306 3.14z" class="cls-2" transform="translate(-305 -1265)"/>
</svg>
