<svg xmlns="http://www.w3.org/2000/svg" id="ic_machine_learning" viewBox="0 0 153 171.5">
  <style>
    .st0{fill:#fff}.st1{fill:#00c752}
  </style>
  <path id="Rectangle_776_копия_5" d="M152.5 84.7v26.4c0 6.1-2.9 12.2-8.8 16.8l-45.9 36.2c-11.7 9.2-30.8 9.2-42.5 0l-46-36.2C3.4 123.2.5 117.1.5 111.1V85.8v-.2-26.4c.2-5.8 3.1-11.6 8.8-16.1L55.2 6.9C67-2.3 86-2.3 97.8 6.9l45.9 36.2c5.7 4.4 8.6 10.2 8.8 16.1h.1c-.1 0-.1 18.5-.1 25.5z" class="st0"/>
  <path id="Фигура_1_копия" d="M76.5 167c-7.5.1-14.8-2.3-20.8-6.7l-43.5-34.1c-5.7-4.4-8.8-10.3-8.7-16.7V85.7v-.2V60h.1C4 54.2 7 48.8 12.2 44.8l43.5-34.1c11.4-8.9 30.1-8.9 41.5 0l43.5 34.1c5.2 4.1 8.3 9.5 8.6 15.3l.1.7v48.9c0 6.3-3.1 12.2-8.7 16.7l-43.5 34.1c-5.9 4.3-13.2 6.6-20.7 6.5zM5.5 61.3v48.3c0 5.7 2.8 11 8 15.1L57 158.8c10.8 8.4 28.3 8.4 39.1 0l43.5-34.1c5.2-4 8-9.4 8-15.1V84.8v-24c-.2-5.4-3-10.5-7.9-14.4L96 12.2c-10.8-8.4-28.3-8.4-39.1 0L13.4 46.3c-4.9 3.8-7.7 9-7.9 14.4v.6z" class="st1"/>
  <path id="Фигура_3" fill="#00c752" d="M81.8 3.9l-39.3 146 13.6 10.6c12.2 8.8 28.7 8.8 40.8 0l15.2-11.9 28.1-104.4-43.3-34c-4.4-3.4-9.6-5.6-15.1-6.3m65.6 48.4l-23.4 87 17.1-13.4c5.7-4.4 8.5-10.3 8.5-16.1V84.5 60.1h-.1c-.2-2.7-.9-5.4-2.1-7.8" opacity=".1"/>
  <path d="M92.7 84.9c.1-9.5-7.6-17.2-17-17.3-9.5 0-17.2 7.7-17.3 17.2 0 9.4 7.6 17.1 17 17.2 9.5 0 17.2-7.6 17.3-17.1zM98.2 37.6c-3 0-5.4 2.5-5.4 5.5s2.5 5.4 5.5 5.4h.1c3 0 5.4-2.5 5.4-5.5s-2.6-5.4-5.6-5.4zM61.4 47.1c3.6 0 6.5-2.9 6.5-6.5s-2.9-6.5-6.5-6.5-6.5 2.9-6.5 6.5 2.9 6.5 6.5 6.5zM36 63.4c-.9 0-1.6.7-1.6 1.6 0 .9.7 1.6 1.6 1.6.9 0 1.6-.7 1.6-1.6 0-.9-.7-1.6-1.6-1.6zM36 66.6zM24.3 93.7c-.8 0-1.5.3-2 .9-.5.5-.7 1.2-.7 2 .1 1.5 1.3 2.7 2.9 2.7.7 0 1.4-.3 1.9-.9 1-1.1.9-2.9-.2-3.9-.5-.6-1.2-.8-1.9-.8zM44.7 100.2c-.7 0-1.4.3-1.8.8-.9 1-.8 2.5.1 3.4h.1c1 .9 2.5.8 3.4-.2.9-1 .8-2.5-.2-3.4-.4-.4-1-.6-1.6-.6zM68 128.2c-.1-1.7-.8-3.4-2.1-4.5-1.2-1.1-2.8-1.7-4.4-1.7h-.2-.1c-3.5.2-6.3 3.2-6.1 6.7.2 3.6 3.2 6.4 6.8 6.3 1.7-.1 3.3-.8 4.5-2.1 1.1-1.3 1.7-3 1.6-4.7zM90.3 122.1c-1.6.4-2.9 1.5-3.7 2.9-.8 1.4-1 3.1-.5 4.6.9 3.3 4.3 5.2 7.6 4.3 1.6-.4 2.9-1.5 3.7-2.9.8-1.4 1-3.1.5-4.6-.8-3.2-4.3-5.2-7.6-4.3zM110.1 84c-1.5 0-2.8 1.3-2.8 2.8 0 1.5 1.3 2.8 2.8 2.8 1.5 0 2.8-1.3 2.8-2.8 0-1.6-1.3-2.8-2.8-2.8zM131.3 58.2c-1.8 0-3.2 1.4-3.2 3.1 0 1.8 1.4 3.2 3.1 3.2 1.8 0 3.2-1.4 3.2-3.2 0-1.6-1.4-3-3.1-3.1z" class="st0"/>
  <path id="Фигура_1_копия_4" d="M76.5 167c-7.5.1-14.8-2.3-20.8-6.7l-43.5-34.1c-5.7-4.4-8.8-10.3-8.7-16.7V85.7v-.2V60h.1C4 54.2 7 48.8 12.2 44.8l43.5-34.1c11.4-8.9 30.1-8.9 41.5 0l43.5 34.1c5.2 4.1 8.3 9.5 8.7 15.3l.1.7v48.9c0 6.3-3.1 12.2-8.7 16.7l-43.5 34.1c-6 4.3-13.3 6.6-20.8 6.5zM5.5 61.3v48.3c0 5.7 2.8 11 8 15.1L57 158.8c10.8 8.4 28.3 8.4 39.1 0l43.5-34.1c5.2-4 8-9.4 8-15.1V84.8 61.2l-.1-.4c-.2-5.4-3-10.5-7.9-14.4L96 12.3c-10.8-8.4-28.3-8.4-39.1 0l-43.5 34c-4.9 3.8-7.7 9-7.9 14.4v.6z" class="st1"/>
  <path id="Фигура_5" d="M67.3 93h4v3h3.1v-3h2.2v3h3.1v-3h4v-3.7h3.6v-3.1h-3.6V84h3.6v-3.1h-3.6v-4.3h-4V73h-3.1v3.6h-2.2V73h-3.1v3.6h-4v4.3h-3.5V84h3.5v2.3h-3.5v3.1h3.5V93zm3.1-13.3h10.3V90H70.4V79.7zm60.8-24.6c-3.5 0-6.3 2.8-6.3 6.3 0 1.2.4 2.5 1.1 3.5l-12.9 16.9c-.9-.5-1.8-.8-2.9-.9l-7.8-30.4c4.1-2.3 5.5-7.6 3.2-11.7s-7.6-5.5-11.7-3.2-5.5 7.6-3.2 11.7c1.5 2.7 4.4 4.3 7.4 4.3.4 0 .9 0 1.3-.1l7.7 30.1c-1.4.8-2.4 2.1-2.8 3.7l-8.5.2v-.7c-.1-11.2-9.2-20.3-20.4-20.2-5.5 0-10.8 2.3-14.6 6.3l-20.3-6.3c0-.4-.1-.8-.3-1.2l14.4-15.8c3.9 3.6 9.9 3.5 13.6-.4 3.6-3.9 3.5-9.9-.4-13.6-3.9-3.6-9.9-3.5-13.6.4-2.8 3-3.4 7.4-1.5 11.1L38.3 60.9c-.7-.4-1.5-.7-2.3-.7-2.6 0-4.7 2.1-4.7 4.6s2.1 4.7 4.6 4.7c1.6 0 3-.8 3.9-2.1l18.9 5.9c-4 5.8-4.6 13.4-1.6 19.8l-8.6 5.4-.1-.1c-1.1-1-2.5-1.5-4-1.5-1.5.1-2.8.7-3.8 1.8v.1l-10.5-3.1c-.4-3.2-3.2-5.5-6.4-5.1-3.2.4-5.5 3.2-5.1 6.4.3 2.9 2.8 5.2 5.8 5.2h.2c2.2-.1 4.1-1.4 5-3.4l9.7 2.8c-.3 1.8.3 3.7 1.7 4.9 1.6 1.5 4 1.9 6 .9l7.9 13.9-.4.4c-1.7 1.9-2.6 4.4-2.5 6.9.2 5.1 4.5 9.2 9.6 9.2h.4c2.5-.1 4.9-1.2 6.6-3.1 1.7-1.9 2.6-4.3 2.5-6.8h11.8c.1 5.1 4.2 9.2 9.3 9.2 3.3 0 6.4-1.8 8-4.7 2.3-4.1 1.1-9.3-2.8-12.1l12.8-27.9c3.2-.1 5.8-2.7 5.8-5.9 0-.9-.2-1.9-.7-2.7l13.1-17.1c3.1 1.6 6.8.4 8.5-2.6 1.6-3.1.4-6.8-2.6-8.5-1.1-.2-2.1-.5-3.1-.5zm-38.4-12c0-3 2.4-5.5 5.4-5.5 3 0 5.5 2.4 5.5 5.4s-2.4 5.5-5.4 5.5h-.1c-3 0-5.4-2.4-5.4-5.4zm-31.5-9c3.6 0 6.5 2.9 6.5 6.5s-2.9 6.5-6.5 6.5-6.5-2.9-6.5-6.5 2.9-6.5 6.5-6.5zM36 66.5c-.9 0-1.6-.7-1.6-1.6 0-.9.7-1.6 1.6-1.6.9 0 1.6.7 1.6 1.6-.1.9-.8 1.6-1.6 1.6zm-9.6 31.8c-.5.5-1.2.8-1.9.9-1.5.1-2.8-1.2-2.9-2.7 0-.7.2-1.4.7-2 .5-.6 1.2-.9 2-.9.7 0 1.4.3 1.9.7 1.1 1.1 1.2 2.8.2 4zm78.1-9.9c.4 1.4 1.4 2.6 2.6 3.4l-12.6 27.4c-.9-.3-1.8-.4-2.7-.4V96.9c1.9-2.5 3.2-5.3 3.7-8.4l9-.1zM75.6 67.6c9.5.1 17.1 7.8 17 17.3-.1 9.5-7.8 17.1-17.3 17-9.4-.1-17-7.7-17-17.2.1-9.4 7.8-17.1 17.3-17.1zM43 104.4c-1-.9-1-2.5-.1-3.4.4-.5 1-.8 1.7-.8h.1c.6 0 1.2.2 1.6.7 1 .9 1.1 2.4.2 3.4-.9.9-2.4 1-3.5.1.1 0 0 0 0 0zm6.3 1.1c.8-1.3 1-2.8.7-4.2l8.6-5.3c1.5 2.2 3.3 4.1 5.5 5.6v17.7c-1-.3-2-.4-3.1-.4-1.3 0-2.5.4-3.7.9l-8-14.3zm17 27.3c-1.2 1.3-2.8 2-4.5 2.1-3.6.1-6.6-2.7-6.8-6.3-.2-3.5 2.6-6.5 6.1-6.7H61.4c1.6 0 3.2.6 4.4 1.7 1.3 1.2 2 2.8 2.1 4.5.2 1.8-.4 3.5-1.6 4.7zm17.7-9.3c-.3.5-.5 1-.7 1.5H70.4c-.5-1.4-1.4-2.6-2.5-3.6-.2-.2-.5-.4-.7-.6v-17.5c7.2 3.2 15.5 2.1 21.5-3v19.2c-2 .6-3.7 2.1-4.7 4zm13.4 7.5c-.8 1.4-2.1 2.5-3.7 2.9-3.3.9-6.7-1-7.6-4.3-.4-1.5-.2-3.2.5-4.6.8-1.4 2.1-2.5 3.7-2.9 3.3-.9 6.7 1 7.6 4.3.5 1.6.3 3.2-.5 4.6zm12.7-41.5c-1.5 0-2.8-1.2-2.8-2.8 0-1.5 1.2-2.8 2.8-2.8 1.5 0 2.8 1.2 2.8 2.8-.1 1.6-1.3 2.8-2.8 2.8zm21.1-24.9c-1.8 0-3.2-1.5-3.1-3.2 0-1.8 1.5-3.2 3.2-3.1 1.7 0 3.1 1.4 3.1 3.2 0 1.6-1.4 3.1-3.2 3.1z" class="st1"/>
</svg>
