<svg xmlns="http://www.w3.org/2000/svg" id="cloud_icon" data-name="cloud icon" viewBox="0 0 179.875 127">
  <defs>
    <style>
      .cls-5{fill:#0091ea;fill-rule:evenodd}
    </style>
  </defs>
  <path fill="#0091ea" fill-rule="evenodd" d="M484.6 2407.13a3.38 3.38 0 1 1 3.409-3.38 3.4 3.4 0 0 1-3.409 3.38zm0-17.18a3.38 3.38 0 1 1 3.409-3.38 3.391 3.391 0 0 1-3.409 3.38zm-15.732 103.06a3.38 3.38 0 1 1 3.408-3.38 3.392 3.392 0 0 1-3.407 3.38zm0-68.71a3.38 3.38 0 1 1 3.408-3.38 3.392 3.392 0 0 1-3.407 3.38zm0-34.35a3.38 3.38 0 1 1 3.408-3.38 3.392 3.392 0 0 1-3.407 3.38zm-15.732 103.06a3.38 3.38 0 1 1 3.408-3.38 3.392 3.392 0 0 1-3.407 3.38zm-6.993-120.24a3.38 3.38 0 1 1 3.408-3.38 3.392 3.392 0 0 1-3.407 3.38zm-19.228 0a3.38 3.38 0 1 1 3.408-3.38 3.392 3.392 0 0 1-3.407 3.38zm-1.836 116.86a3.409 3.409 0 1 1-3.408-3.38 3.392 3.392 0 0 1 3.409 3.38zm-17.393-116.86a3.38 3.38 0 1 1 3.408-3.38 3.392 3.392 0 0 1-3.407 3.38zm1.66 116.86a3.408 3.408 0 1 1-3.408-3.38 3.392 3.392 0 0 1 3.409 3.38zm-19.14 3.38a3.38 3.38 0 1 1 3.408-3.38 3.391 3.391 0 0 1-3.407 3.38zm-15.733-103.06a3.38 3.38 0 1 1 3.408-3.38 3.392 3.392 0 0 1-3.407 3.38zm-5.244-17.18a3.38 3.38 0 1 1 3.408-3.38 3.392 3.392 0 0 1-3.407 3.38zm-19.229 0a3.38 3.38 0 1 1 3.408-3.38 3.392 3.392 0 0 1-3.408 3.38zm-6.992 120.24a3.38 3.38 0 1 1 3.408-3.38 3.392 3.392 0 0 1-3.407 3.38zm0-103.06a3.38 3.38 0 1 1 3.408-3.38 3.392 3.392 0 0 1-3.407 3.38zm-12.236 17.18a3.38 3.38 0 1 1 3.408-3.38 3.4 3.4 0 0 1-3.407 3.38zm-.088 82.5a3.408 3.408 0 1 1-3.408-3.38 3.392 3.392 0 0 1 3.409 3.38zm-19.141-30.97a3.38 3.38 0 1 1 3.408-3.38 3.4 3.4 0 0 1-3.407 3.38zm0-17.18a3.38 3.38 0 1 1 3.408-3.38 3.392 3.392 0 0 1-3.407 3.38zm0-17.18a3.38 3.38 0 1 1 3.408-3.38 3.392 3.392 0 0 1-3.407 3.38zm0-17.17a3.38 3.38 0 1 1 3.408-3.38 3.4 3.4 0 0 1-3.407 3.38zm173.057 10.41a3.38 3.38 0 1 1-3.407 3.38 3.4 3.4 0 0 1 3.407-3.38z" opacity=".3" transform="translate(-308.125 -2366)"/>
  <path fill="#9dd9ff" fill-rule="evenodd" d="M349.661 2483.44a31.535 31.535 0 0 1-31.925-31.82c0-14.55 9.8-27.62 23.433-31.47a22.543 22.543 0 0 1-.273-3.48c0-12.63 10.57-22.91 23.563-22.91a23.94 23.94 0 0 1 11.991 3.19 42.259 42.259 0 0 1 79.5 20.08v.3c13.065 4.03 22.462 17.69 22.462 32.85 0 18.65-13.458 33.26-30.639 33.26h-98.112z" transform="translate(-308.125 -2366)"/>
  <path fill="#bde5ff" fill-rule="evenodd" d="M468.723 2458.66a3.38 3.38 0 1 1 3.408-3.38 3.4 3.4 0 0 1-3.408 3.38zm-15.732-34.36a3.38 3.38 0 1 1 3.408-3.38 3.392 3.392 0 0 1-3.408 3.38zm-3.5-17.17a3.38 3.38 0 1 1 3.408-3.38 3.4 3.4 0 0 1-3.399 3.38zm-19.229 34.35a3.38 3.38 0 1 1 3.408-3.38 3.392 3.392 0 0 1-3.404 3.38zm-8.74-51.53a3.38 3.38 0 1 1 3.408-3.38 3.392 3.392 0 0 1-3.404 3.38zm-10.488 17.18a3.38 3.38 0 1 1 3.408-3.38 3.4 3.4 0 0 1-3.404 3.38zm-5.244-17.18a3.38 3.38 0 1 1 3.408-3.38 3.392 3.392 0 0 1-3.404 3.38zm-31.465 34.35a3.38 3.38 0 1 1 3.408-3.38 3.392 3.392 0 0 1-3.404 3.38zm-1.749-17.17a3.38 3.38 0 1 1 3.408-3.38 3.4 3.4 0 0 1-3.404 3.38zM358.6 2424.3a3.38 3.38 0 1 1 3.408-3.38 3.392 3.392 0 0 1-3.408 3.38zm-24.473 51.53a3.38 3.38 0 1 1 3.408-3.38 3.392 3.392 0 0 1-3.412 3.38zm0-34.35a3.38 3.38 0 1 1 3.408-3.38 3.392 3.392 0 0 1-3.412 3.38zm-6.992 17.18a3.38 3.38 0 1 1 3.408-3.38 3.4 3.4 0 0 1-3.412 3.38zm-12.235 17.17a3.38 3.38 0 1 1 3.408-3.38 3.392 3.392 0 0 1-3.408 3.38zm57.685-41.11a3.38 3.38 0 1 1-3.408 3.38 3.391 3.391 0 0 1 3.403-3.38zm76.915 34.35a3.38 3.38 0 1 1-3.408 3.38 3.4 3.4 0 0 1 3.408-3.38z" transform="translate(-308.125 -2366)"/>
  <path fill="#fff" fill-rule="evenodd" d="M431.768 2483.45h-70.217a17.386 17.386 0 0 1 6.429-33.6c.519 0 1.029.04 1.536.08a28.435 28.435 0 0 1 50.468-9.73 22.484 22.484 0 0 1 11.784 43.25z" transform="translate(-308.125 -2366)"/>
  <path id="Фигура_19" d="M431.661 2484.99h-70.077a1.47 1.47 0 0 1-.546-.11 18.935 18.935 0 0 1 6.962-36.57c.138 0 .274 0 .407.01a29.831 29.831 0 0 1 52.144-9.81 22.544 22.544 0 0 1 3.319-.25 24.044 24.044 0 0 1 8.3 46.64 1.492 1.492 0 0 1-.509.09zm-69.788-3.01h69.518a21.03 21.03 0 0 0-7.52-40.71 20.524 20.524 0 0 0-3.711.35 1.5 1.5 0 0 1-1.467-.6 26.843 26.843 0 0 0-47.707 9.24 1.5 1.5 0 0 1-1.58 1.13c-.463-.04-.931-.07-1.405-.07a15.926 15.926 0 0 0-6.128 30.66z" class="cls-5" data-name="Фигура 19" transform="translate(-308.125 -2366)"/>
  <path id="Фигура_18" d="M447.793 2484.99h-98.3A33.088 33.088 0 0 1 316 2451.6a34.255 34.255 0 0 1 23.33-32.6 23.628 23.628 0 0 1-.124-2.42c0-13.48 11.265-24.46 25.112-24.46a25.7 25.7 0 0 1 11.428 2.68 44.475 44.475 0 0 1 37.882-21.81 43.957 43.957 0 0 1 43.855 43.17c13.108 4.61 22.513 18.71 22.513 34 .004 19.53-14.145 34.83-32.203 34.83zm-83.475-89.86c-12.189 0-22.106 9.62-22.106 21.45a20.839 20.839 0 0 0 .256 3.25 1.5 1.5 0 0 1-1.076 1.68c-12.971 3.67-22.386 16.32-22.386 30.09a30.107 30.107 0 0 0 30.486 30.38h98.3c16.372 0 29.2-13.98 29.2-31.82 0-14.41-9.019-27.64-21.447-31.48a1.493 1.493 0 0 1-1.06-1.45v-.28a40.949 40.949 0 0 0-40.857-40.95 41.384 41.384 0 0 0-35.972 21.54 1.52 1.52 0 0 1-.913.73 1.479 1.479 0 0 1-1.161-.15 22.636 22.636 0 0 0-11.264-2.99z" class="cls-5" data-name="Фигура 18" transform="translate(-308.125 -2366)"/>
</svg>
