<svg xmlns="http://www.w3.org/2000/svg" id="Comp_Vision_icon" data-name="Comp Vision icon" viewBox="0 0 180 138.94">
  <defs>
    <style>
      .cls-3{fill-rule:evenodd;fill:#0091ea}
    </style>
    <linearGradient id="linear-gradient" x1="90.768" x2="88.419" y1="88.56" y2="133.38" gradientUnits="userSpaceOnUse">
      <stop offset="0" stop-color="#0091ea"/>
      <stop offset="1" stop-color="#0091ea" stop-opacity="0"/>
    </linearGradient>
  </defs>
  <path fill="#bde5ff" fill-rule="evenodd" d="M451.362 2425.72c-1.209-3.91-4.112-5.94-7.821-5.39v-6.99c.405-.05.815-.12 1.227-.2a2.105 2.105 0 0 0 1.686-1.83 38.6 38.6 0 0 0-10.091-30.5c-8.83-9.77-22.232-5.13-35.758-5.13h-.005c-16.8-.74-32.051-5.06-41.717 6.19-8.583 10-12.058 23.09-9.782 36.87a2.088 2.088 0 0 0 1.117 1.52 1.153 1.153 0 0 0 .154.07c-2.691.36-4.764 2.25-5.731 5.39-2.083 6.76.985 19.72 6.977 23.71a2.893 2.893 0 0 0 1.37.49c7.747 22.73 31.5 46.35 44.941 46.06 21.52-.46 38.113-31.33 45.089-46.06a3.024 3.024 0 0 0 1.37-.48c5.99-4 9.056-16.96 6.974-23.72z" transform="translate(-308 -2357.03)"/>
  <path fill="url(#linear-gradient)" d="M3.156 88.56h172.875v44.82H3.156z" opacity=".2"/>
  <path id="Фигура_16" d="M427.9 2430.61a18.81 18.81 0 0 0-20.444 0 1.509 1.509 0 0 0 1.644 2.53 18.151 18.151 0 0 1 6.177-2.32 3.386 3.386 0 1 0 4.762 0 18.416 18.416 0 0 1 6.214 2.31 1.472 1.472 0 0 0 .822.25 1.508 1.508 0 0 0 .825-2.77zm4.038-8.89c-7.836-3.83-22.094-3.38-28.252.89a1.508 1.508 0 0 0 .855 2.75 1.5 1.5 0 0 0 .851-.27c5.238-3.62 18.443-3.97 25.231-.65a1.511 1.511 0 0 0 1.317-2.72zm-40.338 3.38a1.514 1.514 0 0 0 2.092-.39 1.513 1.513 0 0 0-.383-2.1c-6.155-4.27-20.412-4.72-28.249-.89a1.51 1.51 0 0 0 1.314 2.72c6.789-3.32 19.992-2.98 25.226.66zm-11.013 5.72a18.416 18.416 0 0 1 6.214 2.31 1.472 1.472 0 0 0 .822.25 1.508 1.508 0 0 0 .825-2.77 18.81 18.81 0 0 0-20.444 0 1.509 1.509 0 0 0 1.644 2.53 18.151 18.151 0 0 1 6.177-2.32 3.386 3.386 0 1 0 4.761 0zm32.067 37.52c-.064.05-6.45 5.52-14.169 5.52-7.685 0-14.106-5.47-14.169-5.52a1.493 1.493 0 0 0-2.119.15 1.513 1.513 0 0 0 .156 2.13c.294.26 7.307 6.26 16.132 6.26s15.839-6 16.133-6.26a1.514 1.514 0 0 0 .155-2.13 1.493 1.493 0 0 0-2.12-.15zm-20.145-15.06a1.5 1.5 0 0 0-1.5 1.51 4.077 4.077 0 0 0 4.2 3.93 4.864 4.864 0 0 1 3.292.65 4.785 4.785 0 0 0 2.525-.71 4.879 4.879 0 0 0 .767.06 4.076 4.076 0 0 0 4.2-3.93 1.5 1.5 0 1 0-3.006 0 1.1 1.1 0 0 1-1.2.91 1.372 1.372 0 0 1-.535-.1 1.509 1.509 0 0 0-1.57.3 1.872 1.872 0 0 1-2.372 0 1.515 1.515 0 0 0-1.574-.3 1.352 1.352 0 0 1-.533.1 1.1 1.1 0 0 1-1.2-.91 1.5 1.5 0 0 0-1.495-1.51z" class="cls-3" data-name="Фигура 16" transform="translate(-308 -2357.03)"/>
  <path fill="#9dd9ff" fill-rule="evenodd" d="M437.344 2421.71c2.1-6.28 6.65 4.37 7.344-14.66.572-15.68-12.943-43.88-38.819-48.17 2.256 12.77-24.785-2.86-46.99 22.99-8.583 10-12.058 23.09-9.782 36.87 5.315-3.61 6.374.38 13.755-2.27 27.525-34.47 37.268-14.59 58.754-32.46 11.494 8.58 13.64 43.98 15.738 37.7z" transform="translate(-308 -2357.03)"/>
  <path id="Фигура_15" d="M442.03 2491.99h-11.008a1.47 1.47 0 0 1 0-2.94h11.008a4.039 4.039 0 0 0 4.036-4.03v-9.91a1.468 1.468 0 1 1 2.935 0v9.91a6.975 6.975 0 0 1-6.971 6.97zm-77.055 0h-11.007a6.975 6.975 0 0 1-6.972-6.97v-9.91a1.468 1.468 0 1 1 2.936 0v9.91a4.039 4.039 0 0 0 4.036 4.03h11.007a1.47 1.47 0 0 1 0 2.94zm82.558-81.44a1.47 1.47 0 0 1-1.467-1.47v-12.11a4.039 4.039 0 0 0-4.036-4.03h-11.008a1.47 1.47 0 0 1 0-2.94h11.008a6.981 6.981 0 0 1 6.971 6.97v12.11a1.47 1.47 0 0 1-1.468 1.47zm-99.069 0a1.47 1.47 0 0 1-1.468-1.47v-12.11a6.981 6.981 0 0 1 6.972-6.97h11.007a1.47 1.47 0 0 1 0 2.94h-11.007a4.039 4.039 0 0 0-4.036 4.03v12.11a1.47 1.47 0 0 1-1.468 1.47z" class="cls-3" data-name="Фигура 15" transform="translate(-308 -2357.03)"/>
  <rect width="180" height="3" y="86.97" fill="#0091ea" rx="1.21" ry="1.21"/>
</svg>
