<svg xmlns="http://www.w3.org/2000/svg" id="Layer_1" data-name="Layer 1" viewBox="0 0 445 434">
  <defs>
    <style>
      .cls-2{fill:#0091ea}.cls-4{fill:#fff}
    </style>
    <linearGradient id="Безымянный_градиент_24" x1="-478.99" x2="-478.76" y1="655.39" y2="655.16" gradientTransform="matrix(721.09 0 0 -482.94 345646.02 316565.68)" gradientUnits="userSpaceOnUse">
      <stop offset="0" stop-color="#5bb9f2"/>
      <stop offset="1" stop-color="#35a8ef"/>
    </linearGradient>
  </defs>
  <path fill="#bfe3ff" d="M230.58 414.65a4 4 0 0 1-.18-8l1-.05a4 4 0 1 1 .4 8h-1zm-18.11 0h-.2l-1-.05a4 4 0 0 1 .44-8l1 .05a4 4 0 0 1-.19 8zm37.15-1.77a4 4 0 0 1-.57-8l1-.14a4 4 0 1 1 1.19 7.91l-1 .15a3.64 3.64 0 0 1-.62.05zm-56.18-.09a4 4 0 0 1-.59 0l-1-.16a4 4 0 0 1 1.23-7.9l1 .14a4 4 0 0 1-.58 8zm74.94-3.6a4 4 0 0 1-1-7.88l.95-.24a4 4 0 1 1 2 7.75l-1 .25a4 4 0 0 1-.95.09zm-93.69-.19a4.19 4.19 0 0 1-1-.12l-1-.26a4 4 0 1 1 2-7.74l.94.24a4 4 0 0 1-1 7.88zm112-5.4a4 4 0 0 1-1.36-7.77l.93-.33A4 4 0 0 1 289 403l-1 .35a4 4 0 0 1-1.31.26zm-130.29-.2a4.16 4.16 0 0 1-1.37-.24l-.95-.35a4 4 0 0 1 2.74-7.52l.94.35a4 4 0 0 1-1.36 7.76zm147.94-7.15a4 4 0 0 1-1.73-7.61l.89-.43a4 4 0 1 1 3.48 7.2l-.92.44a3.9 3.9 0 0 1-1.72.4zM138.76 396a3.89 3.89 0 0 1-1.72-.39l-.94-.45a4 4 0 1 1 3.51-7.19l.88.42a4 4 0 0 1-1.73 7.61zm182.4-8.82a4 4 0 0 1-2.07-7.42l.84-.51a4 4 0 0 1 4.18 6.82l-.88.53a4 4 0 0 1-2.07.56zM122 386.84a4 4 0 0 1-2.09-.59l-.87-.54a4 4 0 1 1 4.21-6.8l.84.52a4 4 0 0 1-2.09 7.41zm215-10.4a4 4 0 0 1-2.4-7.2l.78-.59a4 4 0 0 1 4.84 6.37l-.82.62a4 4 0 0 1-2.4.8zm-230.85-.38a4 4 0 0 1-2.41-.81l-.82-.62a4 4 0 0 1 4.86-6.35l.79.6a4 4 0 0 1-2.42 7.18zm245.55-11.85a4 4 0 0 1-2.71-6.95l.72-.67a4 4 0 1 1 5.45 5.86l-.75.7a4 4 0 0 1-2.71 1.06zm-260.21-.43a4 4 0 0 1-2.72-1.07L88 362a4 4 0 0 1 5.47-5.84l.73.68a4 4 0 0 1-2.73 6.93zm273.62-13.21a4 4 0 0 1-3-6.66l.65-.73a4 4 0 1 1 6 5.28l-.68.77a4 4 0 0 1-2.97 1.34zm-287-.47a4 4 0 0 1-3-1.34l-.69-.78a4 4 0 1 1 6-5.26l.64.73a4 4 0 0 1-3 6.65zm299-14.42a4 4 0 0 1-3.23-6.35l.58-.81a4 4 0 0 1 6.54 4.68l-.6.83a4 4 0 0 1-3.29 1.65zm-310.94-.51a4 4 0 0 1-3.24-1.66l-.6-.83a4 4 0 0 1 6.51-4.68l.57.79a4 4 0 0 1-3.24 6.35zm321.4-15.5a4 4 0 0 1-3.45-6l.5-.86a4 4 0 0 1 6.93 4l-.52.89a4 4 0 0 1-3.46 1.97zm-331.8-.54a4 4 0 0 1-3.47-2l-.51-.89a4 4 0 0 1 6.94-4l.49.86a4 4 0 0 1-1.45 5.46 3.94 3.94 0 0 1-2 .57zm340.62-16.44a3.83 3.83 0 0 1-1.64-.36 4 4 0 0 1-2-5.29l.42-.92a4 4 0 0 1 7.29 3.3l-.42.92a4 4 0 0 1-3.65 2.35zM47 302.13a4 4 0 0 1-3.65-2.35l-.42-.93a4 4 0 1 1 7.3-3.27l.41.9a4 4 0 0 1-3.64 5.65zm356.46-17.21a3.89 3.89 0 0 1-1.29-.22 4 4 0 0 1-2.5-5.07l.32-.95a4 4 0 0 1 7.58 2.55l-.32 1a4 4 0 0 1-3.78 2.69zM40 284.34a4 4 0 0 1-3.79-2.72l-.32-1a4 4 0 1 1 7.58-2.54l.32.94a4 4 0 0 1-2.51 5.07 3.86 3.86 0 0 1-1.28.25zm368.74-17.82a4 4 0 0 1-3.9-4.91l.22-.95a4 4 0 1 1 7.8 1.77l-.23 1a4 4 0 0 1-3.9 3.09zm-373.94-.58a4 4 0 0 1-3.89-3.11l-.23-1a4 4 0 0 1 7.81-1.73l.21 1a4 4 0 0 1-3 4.8 3.94 3.94 0 0 1-.91.04zm377.32-18.24a4.53 4.53 0 0 1-.52 0 4 4 0 0 1-3.46-4.48l.13-1a4 4 0 0 1 7.94 1l-.13 1a4 4 0 0 1-3.96 3.48zm-380.66-.59a4 4 0 0 1-4-3.5l-.13-1a4 4 0 0 1 8-.93l.12 1a4 4 0 0 1-3.45 4.4zm382.15-18.47h-.13a4 4 0 0 1-3.87-4.13v-1a4 4 0 1 1 8 .19v1a4 4 0 0 1-4 3.94zM30 228a4 4 0 0 1-4-3.9v-1a4 4 0 1 1 8-.17v1a4 4 0 0 1-3.9 4.11zm383.2-18.52a4 4 0 0 1-4-3.74l-.07-1a4 4 0 1 1 8-.58l.07 1a4 4 0 0 1-3.72 4.26zm-382.76-.6h-.3a4 4 0 0 1-3.69-4.28l.07-1a4 4 0 0 1 8 .61l-.07 1a4 4 0 0 1-3.98 3.71zM411 190.53a4 4 0 0 1-3.94-3.34l-.16-1a4 4 0 1 1 7.88-1.37l.17 1a4 4 0 0 1-3.28 4.61 3.79 3.79 0 0 1-.67.1zm-378.17-.59a4.11 4.11 0 0 1-.69-.06 4 4 0 0 1-3.25-4.62l.17-1a4 4 0 0 1 7.88 1.4l-.17 1a4 4 0 0 1-3.98 3.28zm374-18.08a4 4 0 0 1-3.86-2.94l-.26-.95a4 4 0 1 1 7.7-2.16l.28 1a4 4 0 0 1-2.8 4.92 3.91 3.91 0 0 1-1.07.13zM37 171.29a4 4 0 0 1-3.86-5.07l.28-1a4 4 0 0 1 7.69 2.21l-.26.94a4 4 0 0 1-3.85 2.92zm363.82-17.59a4 4 0 0 1-3.73-2.56l-.36-.91a4 4 0 0 1 7.45-2.93l.37 1a4 4 0 0 1-2.29 5.17 4 4 0 0 1-1.44.23zm-357.77-.55a3.94 3.94 0 0 1-1.46-.28 4 4 0 0 1-2.27-5.19l.38-1a4 4 0 0 1 7.44 3l-.37.93a4 4 0 0 1-3.72 2.54zm350-16.92a4 4 0 0 1-3.57-2.18l-.45-.88a4 4 0 1 1 7.11-3.66l.47.91a4 4 0 0 1-1.75 5.38 4 4 0 0 1-1.86.43zm-342.16-.53a4 4 0 0 1-3.56-5.82l.47-.91a4 4 0 1 1 7.11 3.66l-.45.89a4 4 0 0 1-3.57 2.18zm332.66-16.06a4 4 0 0 1-3.38-1.85l-.53-.83a4 4 0 1 1 6.72-4.34l.56.86a4 4 0 0 1-3.37 6.16zm-323.11-.52a4 4 0 0 1-3.36-6.12l.56-.86a4 4 0 0 1 6.7 4.37l-.54.83a4 4 0 0 1-3.36 1.78zm312-15.06a4 4 0 0 1-3.14-1.52l-.61-.77a4 4 0 1 1 6.25-5l.64.8a4 4 0 0 1-.67 5.62 4 4 0 0 1-2.46.87zm-300.86-.48a4 4 0 0 1-3.13-6.49l.64-.8a4 4 0 0 1 6.24 5l-.62.78a4 4 0 0 1-3.12 1.51zm288.28-13.92a4 4 0 0 1-2.86-1.22l-.68-.71a4 4 0 1 1 5.68-5.59l.72.74a4 4 0 0 1-2.88 6.78zm-275.64-.45a4 4 0 0 1-2.86-6.79l.72-.73a4 4 0 1 1 5.7 5.61l-.69.71a4 4 0 0 1-2.87 1.2zm261.69-12.64a4 4 0 0 1-2.59-.95l-.75-.63a4 4 0 0 1 5.14-6.13l.79.66a4 4 0 0 1-2.59 7zm-247.69-.4a4 4 0 0 1-2.58-7.06l.79-.66a4 4 0 0 1 5.12 6.15l-.76.63a3.93 3.93 0 0 1-2.57.94zm232.51-11.24a4 4 0 0 1-2.27-.71l-.82-.55a4 4 0 0 1 4.51-6.61l.85.58a4 4 0 0 1-2.27 7.29zm-217.29-.34a4 4 0 0 1-2.27-7.3l.85-.59a4 4 0 1 1 4.48 6.63l-.81.55a3.94 3.94 0 0 1-2.25.71zm201-9.73a3.94 3.94 0 0 1-1.93-.5l-.87-.48a4 4 0 0 1 3.83-7l.9.5a4 4 0 0 1-1.93 7.5zm-184.75-.29a4 4 0 0 1-1.92-7.51l.9-.49a4 4 0 0 1 3.81 7l-.87.47a3.93 3.93 0 0 1-1.89.53zm167.56-8.11a4.16 4.16 0 0 1-1.57-.32l-.91-.39a4 4 0 1 1 3.11-7.37l.95.4a4 4 0 0 1-1.58 7.68zm-150.35-.24a4 4 0 0 1-1.57-7.68l.95-.4a4 4 0 1 1 3.08 7.38l-.91.38a3.84 3.84 0 0 1-1.52.32zm132.41-6.4a4.21 4.21 0 0 1-1.2-.18l-.94-.3a4 4 0 1 1 2.35-7.64l1 .3a4 4 0 0 1-1.2 7.82zm-114.47-.18a4 4 0 0 1-1.18-7.82l1-.3a4 4 0 0 1 2.34 7.66l-.94.28a3.74 3.74 0 0 1-1.19.18zm96-4.62a3.72 3.72 0 0 1-.81-.09l-1-.2a4 4 0 0 1 1.58-7.84l1 .21a4 4 0 0 1-.8 7.92zm-77.44-.12a4 4 0 0 1-.8-7.9l1-.2a4 4 0 0 1 1.56 7.84l-1 .2a4.45 4.45 0 0 1-.77.06zm58.54-2.81h-.42l-1-.1a4 4 0 0 1 .79-8l1 .1a4 4 0 0 1-.41 8zM202.3 32a4 4 0 0 1-.4-8l1-.1a4 4 0 0 1 .76 8l-1 .1zm20.53-1h-1.43a4 4 0 0 1 0-8h1.46a4 4 0 0 1 0 8z"/>
  <path d="M241.62 301.53c-.37 0-.49-.24-.26-.53l1.86-2.37a1.53 1.53 0 0 1 1.08-.52h32.73c.37 0 .51.25.31.57l-1.46 2.32a1.38 1.38 0 0 1-1 .56zM227.8 310c-.37 0-.49-.24-.26-.53l1.86-2.37a1.54 1.54 0 0 1 1.08-.53h41.83a.45.45 0 0 1 .46.63l-.7 2.15a1 1 0 0 1-.89.64zM250.07 318.41c-.37 0-.53-.26-.35-.58l1.25-2.25a1.25 1.25 0 0 1 1-.59h18.3a.61.61 0 0 1 .61.67l-.2 2.09a.76.76 0 0 1-.74.67z" class="cls-2"/>
  <g id="CXHf1q">
    <path d="M345.39 299.9c-5.77 1.43-9.74 2.62-15.42 4-1.4.36-1.51.49-2.69-.88a12 12 0 0 0-4.31-3.49c-5.79-2.85-11.4-2.06-16.59 1.34a19.68 19.68 0 0 0-9.4 17.51 14.43 14.43 0 0 0 12.42 14.44c6.21.87 11.47-1.36 15.64-6 .87-1 1.58-2.1 2.52-3.37h-17.71c-1.92 0-2.37-1.17-1.71-2.76 1.16-2.8 3.4-7.66 4.68-10a2.53 2.53 0 0 1 2.26-1.51h33.47c-.16 2.49-.16 5-.52 7.45a38.87 38.87 0 0 1-7.54 18.05c-6.59 8.74-15.22 14.17-26.16 15.6-9 1.17-17.35-.58-24.67-6.11a29 29 0 0 1-11.66-20.4c-1.2-10 1.72-19 7.78-26.92A40.73 40.73 0 0 1 311.5 281c8.61-1.56 16.87-.5 24.32 4.48a29 29 0 0 1 10.65 13c.33.71-.05 1.17-1.08 1.42z" class="cls-2"/>
    <path d="M375.75 350.75c-8.4-.16-16-2.57-22.39-8.09a28.8 28.8 0 0 1-9.92-17.75c-1.65-10.36 1.22-19.56 7.48-27.76 6.73-8.8 14.83-13.42 25.71-15.37 9.35-1.68 18.19-.71 26.16 4.73 7.28 5 11.79 11.66 12.93 20.46 1.61 12.37-2 22.5-10.57 31.18a41.6 41.6 0 0 1-22 11.74c-2.46.48-4.95.58-7.4.86zm21.93-37.16c-.1-1.19-.1-2.14-.27-3-1.64-9.09-10-14.2-18.76-12.25-8.59 1.91-14.07 7.33-16.06 16a15.14 15.14 0 0 0 8.41 17.28 16.8 16.8 0 0 0 15-.57c7.24-3.66 11.2-9.55 11.68-17.46z" class="cls-2"/>
  </g>
  <g id="_Группа_" data-name="&lt;Группа&gt;">
    <path id="_Контур_" fill="#1399ec" d="M181.11 281.19a14.66 14.66 0 0 0-1.81-7.39 14.1 14.1 0 0 0-5.36-5.22q-29.55-17-59.12-34.06c-5.31-3.06-10.46-3-15.73.16-7.84 4.62-47.1 27.12-58.8 33.89a13.67 13.67 0 0 0-7.17 12.61v68.54a14.7 14.7 0 0 0 1.73 7.28 14.06 14.06 0 0 0 5.43 5.36c11.7 6.77 51 29.27 58.81 33.89 5.27 3.12 10.42 3.23 15.73.16q29.55-17.06 59.13-34.06a14 14 0 0 0 5.43-5.36 14.7 14.7 0 0 0 1.73-7.25v-68.55" data-name="&lt;Контур&gt;"/>
    <path id="_Контур_2" d="M107.34 315.23L34.85 357a14.06 14.06 0 0 0 5.43 5.36c11.7 6.77 51 29.27 58.81 33.89 5.27 3.12 10.42 3.23 15.73.16q29.55-17.06 59.13-34.06a14 14 0 0 0 5.43-5.36l-72-41.73" class="cls-2" data-name="&lt;Контур&gt;"/>
    <path id="_Контур_3" d="M85.87 327.59a24.47 24.47 0 0 0 42.57-.14l-21.1-12.22-21.47 12.36" class="cls-2" data-name="&lt;Контур&gt;"/>
    <path id="_Контур_4" d="M181.11 281.19a14.66 14.66 0 0 0-1.81-7.39l-72 41.43 72 41.73a14.7 14.7 0 0 0 1.73-7.25v-68.52" class="cls-2" data-name="&lt;Контур&gt;"/>
    <path id="_Контур_5" d="M177.15 318.21h-5.64v5.63h-5.63v-5.63h-5.62v-5.63h5.62v-5.63h5.63v5.63h5.64v5.63" class="cls-4" data-name="&lt;Контур&gt;"/>
    <path id="_Контур_6" d="M156.6 318.21h-5.63v5.63h-5.63v-5.63h-5.63v-5.63h5.63v-5.63h5.63v5.63h5.63v5.63" class="cls-4" data-name="&lt;Контур&gt;"/>
    <path id="_Контур_7" d="M128.44 327.45a24.47 24.47 0 1 1-.16-24.28l21.39-12.32a49.15 49.15 0 1 0 .13 49l-21.36-12.38" class="cls-4" data-name="&lt;Контур&gt;"/>
  </g>
  <g id="layer1">
    <g id="g1894">
      <path id="path8615" fill="#0794eb" d="M105.91 41c-39.47 0-37 17.12-37 17.12v17.73h37.66v5.33H54s-25.26-2.87-25.26 37 22.05 38.41 22.05 38.41h13.14v-18.48s-.71-22.05 21.69-22.05H123s21 .34 21-20.28v-34.1S147.16 41 105.91 41zM85.14 53a6.78 6.78 0 1 1-6.78 6.77A6.77 6.77 0 0 1 85.14 53z"/>
      <path id="path8620" fill="#a6d9f9" d="M107 195.71c39.47 0 37-17.12 37-17.12v-17.73h-37.67v-5.32H159s25.26 2.86 25.26-37-22.05-38.42-22.05-38.42H149v18.52s.71 22-21.7 22H90s-21-.29-21 20.36v34.1s-3.22 20.61 38 20.61zm20.77-11.92a6.78 6.78 0 1 1 6.77-6.78 6.77 6.77 0 0 1-6.74 6.78z"/>
    </g>
  </g>
  <path fill="url(#Безымянный_градиент_24)" d="M334 165.9c-46 0-83.22-25-83.22-55.74S288.06 54.42 334 54.42s83.23 25 83.23 55.74S380 165.9 334 165.9zm12.74-89.69c-34.93 0-63.26 17.07-63.26 38.11s28.33 38.11 63.26 38.11 60.72-11.67 60.72-38.11-25.76-38.11-60.7-38.11z"/>
  <path d="M377.55 140.76a63 63 0 0 1 8 3 15.4 15.4 0 0 1 4 2.88 11 11 0 0 1 1.85 2.66l19.85 33.47h-32.09l-15-28.17s-3.07-5.28-5-6.81c-1.58-1.28-2.25-1.74-3.81-1.74h-7.63v36.7h-28.34V89h57s26 .47 26 25.18-24.83 26.58-24.83 26.58zm-12.35-31.39H348v15.93h17.2s8 0 8-8.11c-.04-8.25-8-7.82-8-7.82z" class="cls-2"/>
</svg>
