<svg xmlns="http://www.w3.org/2000/svg" id="mobile" viewBox="0 0 180 130">
  <defs>
    <style>
      .cls-1,.cls-3{fill:#0091ea;fill-rule:evenodd}.cls-3{opacity:.3}
    </style>
  </defs>
  <path id="Фигура_20" d="M1168.51 2490.59a5.415 5.415 0 1 1 5.47-5.42 5.448 5.448 0 0 1-5.47 5.42m-147.05-9.09a5.386 5.386 0 1 1 5.46-5.38 5.425 5.425 0 0 1-5.46 5.38m140.42-3.04l-23.68-18.63v-5.46l11.87-15.08 22.95 4.66a9.34 9.34 0 0 0 4.7 7.97l-7.89 23.94a9.376 9.376 0 0 0-7.95 2.6m-126.5-28.77a5.386 5.386 0 1 1 5.46-5.39 5.433 5.433 0 0 1-5.46 5.39m147.13-.47a5.386 5.386 0 1 1 5.49-5.38 5.438 5.438 0 0 1-5.49 5.38m-44.31-1.32v-11.02l7.48 1.52-7.48 9.5m-94.39-7.85a10.029 10.029 0 0 0-1.05-1.6l21.25-25.95 5.69 2.69v21.25l-25.89 3.61m-14.9 30.3a9.542 9.542 0 0 0-5.43-3.4v-61.22l7.89 30.09a9.395 9.395 0 1 0 13.47 8.48c0-.12-.01-.24-.02-.35l24.88-3.48v10.38l-40.79 19.5m40.79-59.58l-3.08-1.46 3.08-3.77v5.23m104.13 29.27l-20.99-4.26 27.65-35.13v34.02a9.516 9.516 0 0 0-6.66 5.37m-138.56-5.12l-9.54-36.37a9.293 9.293 0 0 0 3.19-2.61l31.36 14.8-20.63 25.2a9.4 9.4 0 0 0-4.27-1.02h-.11m113.18-.04l-10.25-2.08v-19.79l36.83-17.55a9.69 9.69 0 0 0 2.64 2.3l-29.22 37.12m-126.99-39.3a5.386 5.386 0 1 1 5.46-5.39 5.433 5.433 0 0 1-5.46 5.39m161.05-.5a5.386 5.386 0 1 1 5.49-5.38 5.438 5.438 0 0 1-5.49 5.38M1083.28 2496a10.657 10.657 0 0 1-10.57-10.72v-102.57a10.657 10.657 0 0 1 10.57-10.72h41.35a10.657 10.657 0 0 1 10.57 10.72v102.57a10.657 10.657 0 0 1-10.57 10.72h-41.35m41.35-127h-41.35a13.659 13.659 0 0 0-13.58 13.71v16.52l-6.81 8.32-32.23-15.21a8.977 8.977 0 0 0 .26-2.15 9.46 9.46 0 1 0-11.45 9.17v67.59a9.39 9.39 0 1 0 11.45 9.17 9.081 9.081 0 0 0-.26-2.17l39.04-18.67v30a13.662 13.662 0 0 0 13.58 13.72h41.35a13.66 13.66 0 0 0 13.57-13.72v-20.36l21.47 16.89a9.17 9.17 0 0 0-.64 3.36 9.48 9.48 0 1 0 14.56-7.93l7.93-24.07c.33.03.65.05.99.05a9.374 9.374 0 0 0 1.98-18.56v-35.79a9.393 9.393 0 1 0-11.48-9.17 9.147 9.147 0 0 0 .27 2.17l-35.08 16.72v-25.88a13.657 13.657 0 0 0-13.57-13.71" class="cls-1" data-name="Фигура 20" transform="translate(-1012 -2369)"/>
  <path fill="#9dd9ff" fill-rule="evenodd" d="M1123.61 2376.98a7.393 7.393 0 0 1 7.3 7.48v100.19a7.393 7.393 0 0 1-7.3 7.48h-39.1a7.393 7.393 0 0 1-7.3-7.48v-100.19a7.393 7.393 0 0 1 7.3-7.48m3.2 0a2.235 2.235 0 0 1 2.21 2.26v1.07a2.237 2.237 0 0 0 2.21 2.27h23.86a2.237 2.237 0 0 0 2.21-2.27v-1.07a2.235 2.235 0 0 1 2.21-2.26" transform="translate(-1012 -2369)"/>
  <path d="M1078.42 2384.97h.97a1.3 1.3 0 0 1 1.3 1.3v9.25a1.3 1.3 0 0 1-1.3 1.29h-.97a1.3 1.3 0 0 1-1.3-1.29v-9.25a1.3 1.3 0 0 1 1.3-1.3zm0 33.22h.97a1.3 1.3 0 0 1 1.3 1.29v9.22a1.3 1.3 0 0 1-1.3 1.3h-.97a1.3 1.3 0 0 1-1.3-1.3v-9.22a1.3 1.3 0 0 1 1.3-1.29zm0 16.59h.97a1.3 1.3 0 0 1 1.3 1.3v9.25a1.3 1.3 0 0 1-1.3 1.29h-.97a1.3 1.3 0 0 1-1.3-1.29v-9.25a1.3 1.3 0 0 1 1.3-1.3zm0 33.19h.97a1.3 1.3 0 0 1 1.3 1.3v9.28a1.3 1.3 0 0 1-1.3 1.29h-.97a1.3 1.3 0 0 1-1.3-1.29v-9.28a1.3 1.3 0 0 1 1.3-1.3zm7.19-90.16h.97a1.3 1.3 0 0 1 1.29 1.3v9.34a1.3 1.3 0 0 1-1.29 1.3h-.97a1.3 1.3 0 0 1-1.3-1.3v-9.34a1.3 1.3 0 0 1 1.3-1.3zm0 16.63h.97a1.293 1.293 0 0 1 1.29 1.29v9.29a1.293 1.293 0 0 1-1.29 1.29h-.97a1.3 1.3 0 0 1-1.3-1.29v-9.29a1.3 1.3 0 0 1 1.3-1.29zm0 49.81h.97a1.3 1.3 0 0 1 1.29 1.3v9.25a1.293 1.293 0 0 1-1.29 1.29h-.97a1.3 1.3 0 0 1-1.3-1.29v-9.25a1.3 1.3 0 0 1 1.3-1.3zm7.16-61.66h.96a1.3 1.3 0 0 1 1.3 1.3v9.25a1.3 1.3 0 0 1-1.3 1.3h-.96a1.3 1.3 0 0 1-1.3-1.3v-9.25a1.3 1.3 0 0 1 1.3-1.3zm0 16.63h.96a1.3 1.3 0 0 1 1.3 1.3v9.21a1.3 1.3 0 0 1-1.3 1.3h-.96a1.3 1.3 0 0 1-1.3-1.3v-9.21a1.3 1.3 0 0 1 1.3-1.3zm0 16.56h.96a1.3 1.3 0 0 1 1.3 1.3v9.28a1.3 1.3 0 0 1-1.3 1.3h-.96a1.3 1.3 0 0 1-1.3-1.3v-9.28a1.3 1.3 0 0 1 1.3-1.3zm0 16.63h.96a1.3 1.3 0 0 1 1.3 1.29v9.25a1.3 1.3 0 0 1-1.3 1.3h-.96a1.3 1.3 0 0 1-1.3-1.3v-9.25a1.3 1.3 0 0 1 1.3-1.29zm0 33.21h.96a1.3 1.3 0 0 1 1.3 1.3v9.22a1.3 1.3 0 0 1-1.3 1.3h-.96a1.3 1.3 0 0 1-1.3-1.3v-9.22a1.3 1.3 0 0 1 1.3-1.3zm21.5-74.71h1a1.293 1.293 0 0 1 1.29 1.29v9.25a1.3 1.3 0 0 1-1.29 1.3h-1a1.3 1.3 0 0 1-1.3-1.3v-9.25a1.3 1.3 0 0 1 1.3-1.29zm0 16.62h1a1.3 1.3 0 0 1 1.29 1.3v9.25a1.293 1.293 0 0 1-1.29 1.29h-1a1.3 1.3 0 0 1-1.3-1.29v-9.25a1.3 1.3 0 0 1 1.3-1.3zm0 16.56h1a1.3 1.3 0 0 1 1.29 1.3v9.28a1.3 1.3 0 0 1-1.29 1.3h-1a1.3 1.3 0 0 1-1.3-1.3v-9.28a1.3 1.3 0 0 1 1.3-1.3zm0 33.22h1a1.3 1.3 0 0 1 1.29 1.3v9.28a1.3 1.3 0 0 1-1.29 1.3h-1a1.3 1.3 0 0 1-1.3-1.3v-9.28a1.3 1.3 0 0 1 1.3-1.3zm-7.18-73.53h1.01a1.314 1.314 0 0 1 1.31 1.31v9.26a1.314 1.314 0 0 1-1.31 1.31h-1.01a1.314 1.314 0 0 1-1.31-1.31v-9.26a1.314 1.314 0 0 1 1.31-1.31zm0 49.84h1.01a1.314 1.314 0 0 1 1.31 1.31v9.2a1.314 1.314 0 0 1-1.31 1.31h-1.01a1.314 1.314 0 0 1-1.31-1.31v-9.2a1.314 1.314 0 0 1 1.31-1.31zm0 33.19h1.01a1.314 1.314 0 0 1 1.31 1.31v9.23a1.314 1.314 0 0 1-1.31 1.31h-1.01a1.314 1.314 0 0 1-1.31-1.31v-9.23a1.314 1.314 0 0 1 1.31-1.31zm-7.14-28.44h.97a1.3 1.3 0 0 1 1.3 1.3v9.22a1.3 1.3 0 0 1-1.3 1.3h-.97a1.3 1.3 0 0 1-1.29-1.3v-9.22a1.3 1.3 0 0 1 1.29-1.3zm0 33.16h.97a1.3 1.3 0 0 1 1.3 1.3v9.28a1.3 1.3 0 0 1-1.3 1.3h-.97a1.3 1.3 0 0 1-1.29-1.3v-9.28a1.3 1.3 0 0 1 1.29-1.3zm28.66-61.66h.97a1.3 1.3 0 0 1 1.29 1.3v9.28a1.3 1.3 0 0 1-1.29 1.3h-.97a1.3 1.3 0 0 1-1.3-1.3v-9.28a1.3 1.3 0 0 1 1.3-1.3zm0 49.79h.97a1.293 1.293 0 0 1 1.29 1.29v9.28a1.3 1.3 0 0 1-1.29 1.3h-.97a1.3 1.3 0 0 1-1.3-1.3v-9.28a1.3 1.3 0 0 1 1.3-1.29zm-7.16-73.47h1a1.3 1.3 0 0 1 1.3 1.29v9.22a1.3 1.3 0 0 1-1.3 1.3h-1a1.3 1.3 0 0 1-1.29-1.3v-9.22a1.293 1.293 0 0 1 1.29-1.29zm0 33.18h1a1.3 1.3 0 0 1 1.3 1.3v9.25a1.3 1.3 0 0 1-1.3 1.3h-1a1.3 1.3 0 0 1-1.29-1.3v-9.25a1.3 1.3 0 0 1 1.29-1.3zm0 16.6h1a1.3 1.3 0 0 1 1.3 1.3v9.28a1.3 1.3 0 0 1-1.3 1.29h-1a1.293 1.293 0 0 1-1.29-1.29v-9.28a1.3 1.3 0 0 1 1.29-1.3zm0 16.62h1a1.3 1.3 0 0 1 1.3 1.3v9.22a1.3 1.3 0 0 1-1.3 1.3h-1a1.3 1.3 0 0 1-1.29-1.3v-9.22a1.3 1.3 0 0 1 1.29-1.3z" class="cls-3" transform="translate(-1012 -2369)"/>
  <path id="Фигура_22" d="M1109.63 2491.98v-6.7a1.314 1.314 0 0 0-1.31-1.31h-1.01a1.314 1.314 0 0 0-1.31 1.31v6.7h3.63zm13.07-5.61h-1a1.3 1.3 0 0 0-1.3 1.3v4.31h3.42c.06 0 .12-.01.18-.01v-4.3a1.3 1.3 0 0 0-1.3-1.3z" class="cls-3" data-name="Фигура 22" transform="translate(-1012 -2369)"/>
  <path id="Фигура_21" d="M1078 2380.98a1.217 1.217 0 0 0 .43.08h.97a1.3 1.3 0 0 0 1.3-1.29v-1.78a7.361 7.361 0 0 0-2.7 2.99zm22.01 3.65h.97a1.3 1.3 0 0 0 1.3-1.3v-.84h-3.57v.84a1.3 1.3 0 0 0 1.3 1.3zm27.65-6.53a1.261 1.261 0 0 0-.24.71v9.3a1.3 1.3 0 0 0 1.3 1.3h.97a1.3 1.3 0 0 0 1.3-1.3v-4.1a7.524 7.524 0 0 0-3.33-5.91zm-13.31 8.95h1a1.3 1.3 0 0 0 1.3-1.29v-3.34a2.341 2.341 0 0 1-.59.09h-3.01v3.25a1.3 1.3 0 0 0 1.3 1.29zm15.34 90.04h-.97a1.3 1.3 0 0 0-1.3 1.3v9.3a1.3 1.3 0 0 0 1.3 1.3h.97a.227.227 0 0 0 .04-.01 7.563 7.563 0 0 0 1.26-4.21v-6.38a1.3 1.3 0 0 0-1.3-1.3z" class="cls-3" data-name="Фигура 21" transform="translate(-1012 -2369)"/>
  <path d="M1121.75 2402.76h.37a1.6 1.6 0 0 1 1.61 1.59v8.68a1.6 1.6 0 0 1-1.61 1.59h-.37a1.6 1.6 0 0 1-1.61-1.59v-8.68a1.6 1.6 0 0 1 1.61-1.59zm0 66.41h.37a1.6 1.6 0 0 1 1.61 1.59v8.67a1.607 1.607 0 0 1-1.61 1.6h-.37a1.607 1.607 0 0 1-1.61-1.6v-8.67a1.6 1.6 0 0 1 1.61-1.59zm7.17-75.9h.37a1.607 1.607 0 0 1 1.61 1.6v8.67a1.6 1.6 0 0 1-1.61 1.59h-.37a1.6 1.6 0 0 1-1.61-1.59v-8.67a1.607 1.607 0 0 1 1.61-1.6zm-28.68 11.86h.38a1.6 1.6 0 0 1 1.6 1.59v8.68a1.6 1.6 0 0 1-1.6 1.59h-.38a1.6 1.6 0 0 1-1.61-1.59v-8.68a1.6 1.6 0 0 1 1.61-1.59zm0 49.81h.38a1.6 1.6 0 0 1 1.6 1.59v8.67a1.6 1.6 0 0 1-1.6 1.6h-.38a1.607 1.607 0 0 1-1.61-1.6v-8.67a1.6 1.6 0 0 1 1.61-1.59zm7.17-54.55h.37a1.6 1.6 0 0 1 1.61 1.59v8.67a1.607 1.607 0 0 1-1.61 1.6h-.37a1.607 1.607 0 0 1-1.61-1.6v-8.67a1.6 1.6 0 0 1 1.61-1.59zm0 49.8h.37a1.607 1.607 0 0 1 1.61 1.6v8.67a1.6 1.6 0 0 1-1.61 1.59h-.37a1.6 1.6 0 0 1-1.61-1.59v-8.67a1.607 1.607 0 0 1 1.61-1.6zm7.17 23.72h.37a1.6 1.6 0 0 1 1.61 1.59v8.68a1.6 1.6 0 0 1-1.61 1.59h-.37a1.6 1.6 0 0 1-1.61-1.59v-8.68a1.6 1.6 0 0 1 1.61-1.59zm-21.51-24.9h.38a1.6 1.6 0 0 1 1.6 1.59v8.67a1.6 1.6 0 0 1-1.6 1.6h-.38a1.607 1.607 0 0 1-1.61-1.6v-8.67a1.6 1.6 0 0 1 1.61-1.59zm-7.17 28.46h.38a1.6 1.6 0 0 1 1.6 1.59v8.68a1.6 1.6 0 0 1-1.6 1.59h-.38a1.6 1.6 0 0 1-1.61-1.59v-8.68a1.6 1.6 0 0 1 1.61-1.59zm-7.17-75.9h.38a1.6 1.6 0 0 1 1.6 1.6v8.67a1.6 1.6 0 0 1-1.6 1.59h-.38a1.6 1.6 0 0 1-1.61-1.59v-8.67a1.607 1.607 0 0 1 1.61-1.6z" class="cls-1" transform="translate(-1012 -2369)"/>
</svg>
