<svg xmlns="http://www.w3.org/2000/svg" id="Группа_1" data-name="Группа 1" viewBox="0 0 499 487">
  <defs>
    <style>
      .cls-1,.cls-2{fill:#afddfa;fill-rule:evenodd}.cls-2{fill:#cdeafc}
    </style>
  </defs>
  <path id="Фигура_18" d="M343 365l18-32 101-66-103 190z" class="cls-1" data-name="Фигура 18" transform="translate(-1)"/>
  <path id="Фигура_19" d="M127 443l1-8 201-83 13 10 10 91-13 13z" class="cls-2" data-name="Фигура 19" transform="translate(-1)"/>
  <path id="Фигура_20" fill="#d8effd" fill-rule="evenodd" d="M348 339l125-85-1-23-89-157-7 12-33 243z" data-name="Фигура 20" transform="translate(-1)"/>
  <path id="Фигура_12" d="M366 59L181 21l-15 19-28 119 16 2 212-91V59z" class="cls-2" data-name="Фигура 12" transform="translate(-1)"/>
  <path id="Фигура_13" d="M162 41L35 221l88-46 16-21 27-112z" class="cls-1" data-name="Фигура 13" transform="translate(-1)"/>
  <path id="Фигура_14" fill="#d2ecfd" fill-rule="evenodd" d="M28 251l9-24 84-50 10 10-25 236-6-2z" data-name="Фигура 14" transform="translate(-1)"/>
  <path id="Фигура_15" fill="#e6f5ff" fill-rule="evenodd" d="M149 180l-14 6-25 232 13 10 202-80 3-13z" data-name="Фигура 15" transform="translate(-1)"/>
  <path id="Фигура_21" fill="#ebf7ff" fill-rule="evenodd" d="M151 181l1-20 208-90 16 10-32 249-11 5z" data-name="Фигура 21" transform="translate(-1)"/>
  <path id="Фигура_17" fill="#1399ec" fill-rule="evenodd" d="M479.5 270a20.576 20.576 0 0 1-4.371-.478L370.05 453.165a20.493 20.493 0 1 1-35.6 17.586l-208.078-20.324a20.476 20.476 0 0 1-34.334-21.812l-69.257-171.68c-.426.027-.848.065-1.281.065a20.5 20.5 0 1 1 5.958-40.114l128.32-186.114a20.484 20.484 0 1 1 38.156-11.583L359.5 52.7a20.487 20.487 0 0 1 33.825 22.9l82.763 153.7A20.49 20.49 0 1 1 479.5 270zM358.712 446.437c.056.012.11.03.166.043l100.774-174.488-98.8 66.76a20.47 20.47 0 0 1-11.355 25.631zM335.169 459.7a20.578 20.578 0 0 1 10.5-11.682l-9.185-82.665a20.519 20.519 0 0 1-10.521-6.527l-195 79.371c0 .037-.008.073-.009.11zM127.451 426l193.605-79.2c-.027-.429-.056-.858-.056-1.3a20.385 20.385 0 0 1 1.288-7.127l-172.249-151.7a20.422 20.422 0 0 1-9.354 4.052c-2.828 24.462-23.968 207.292-26.455 226.627A20.516 20.516 0 0 1 127.451 426zM35.12 251.792l66.238 165.116 26.46-228.339a20.587 20.587 0 0 1-5.771-4.626L122 184l-80.576 47.749a20.318 20.318 0 0 1-6.304 20.043zM45 215l72-44 .025-.014c0-.163-.025-.322-.025-.486a20.491 20.491 0 0 1 16.905-20.165L156 54zM190.746 31.556A20.469 20.469 0 0 1 173.5 41c-.226 0-.445-.026-.669-.034l-26.168 111.215a20.646 20.646 0 0 1 3.574 2.281L355 65.433c0-.211.025-.418.032-.629zm168.391 46.262l-201.572 88.495a20.386 20.386 0 0 1-.81 11.2l174.108 150.5a20.422 20.422 0 0 1 5.45-2.329l32.567-240.8a20.564 20.564 0 0 1-9.743-7.066zm24.119 6.653c-.495.2-1 .374-1.517.539l-31.477 241.978a20.627 20.627 0 0 1 3.27 1.953l106.359-73.484a20.453 20.453 0 0 1 5.059-20.393z" data-name="Фигура 17" transform="translate(-1)"/>
</svg>
