<svg xmlns="http://www.w3.org/2000/svg" viewBox="0 0 114.6 122.8">
  <path fill="#3aaaef" d="M65.5 18.9v18.9l32.7 18.9V37.8L65.5 18.9zM0 37.8v18.9l16.4 9.4V47.2L0 37.8zm49.1 9.4l-16.4 9.4v56.7l16.4 9.4V85l16.4 9.4V75.6l-16.4-9.4v-19z"/>
  <path fill="#6cc0f4" d="M65.5 18.9L16.4 47.2v18.9l32.7-18.9v18.9l16.4-9.4V18.9zm49.1 9.4l-16.4 9.4v18.9l16.4-9.4V28.3zM81.8 66.1l-16.4 9.4v18.9L81.8 85V66.1zM65.5 94.5L49.1 85v37.8l16.4-9.4V94.5z"/>
  <path fill="#a3d8f9" d="M65.5 0L0 37.8l16.4 9.4 49.1-28.3 32.7 18.9 16.4-9.4L65.5 0zm0 56.7l-16.4 9.4 16.4 9.4 16.4-9.4-16.4-9.4z"/>
</svg>
